<?xml version="1.0" encoding="UTF-8"?>
<!DOCTYPE svg PUBLIC "-//W3C//DTD SVG 1.1//EN" "http://www.w3.org/Graphics/SVG/1.1/DTD/svg11.dtd">
<svg xmlns="http://www.w3.org/2000/svg" version="1.1" width="546px" height="457px" style="shape-rendering:geometricPrecision; text-rendering:geometricPrecision; image-rendering:optimizeQuality; fill-rule:evenodd; clip-rule:evenodd" xmlns:xlink="http://www.w3.org/1999/xlink">
<g><path style="opacity:1" fill="#1a0bff" d="M 369.5,106.5 C 369.427,108.027 370.094,109.027 371.5,109.5C 371.427,111.027 372.094,112.027 373.5,112.5C 376.488,115.481 378.154,119.148 378.5,123.5C 378.41,126.152 379.076,128.485 380.5,130.5C 381.984,135.253 382.818,140.253 383,145.5C 383.667,194.833 383.667,244.167 383,293.5C 379.428,332.738 357.928,353.238 318.5,355C 272.833,355.667 227.167,355.667 181.5,355C 173.703,354.869 166.036,354.036 158.5,352.5C 156.485,351.076 154.152,350.41 151.5,350.5C 148.088,349.958 145.088,348.625 142.5,346.5C 142.027,345.094 141.027,344.427 139.5,344.5C 139.027,343.094 138.027,342.427 136.5,342.5C 136.027,341.094 135.027,340.427 133.5,340.5C 130.5,338.167 127.833,335.5 125.5,332.5C 125.446,330.368 124.446,329.035 122.5,328.5C 115.783,318.667 112.283,307.667 112,295.5C 111.333,244.5 111.333,193.5 112,142.5C 112.181,139.305 112.681,136.305 113.5,133.5C 114.768,131.095 115.435,128.428 115.5,125.5C 115.5,125.167 115.5,124.833 115.5,124.5C 117.213,123.365 117.88,121.698 117.5,119.5C 117.992,117.181 118.992,115.181 120.5,113.5C 121.906,113.027 122.573,112.027 122.5,110.5C 123.906,110.027 124.573,109.027 124.5,107.5C 124.833,106.5 125.5,105.833 126.5,105.5C 129.167,103.5 131.5,101.167 133.5,98.5C 136.803,94.8442 140.803,92.1775 145.5,90.5C 148.491,90.8337 150.824,89.8337 152.5,87.5C 158.641,85.5058 164.974,84.3392 171.5,84C 222.167,83.3333 272.833,83.3333 323.5,84C 342.464,84.3612 357.798,91.8612 369.5,106.5 Z"/></g>
<g><path style="opacity:1" fill="#8d74ff" d="M 152.5,87.5 C 150.824,89.8337 148.491,90.8337 145.5,90.5C 147.509,88.9348 149.843,87.9348 152.5,87.5 Z"/></g>
<g><path style="opacity:0.62" fill="#a99dff" d="M 133.5,98.5 C 131.5,101.167 129.167,103.5 126.5,105.5C 127.833,102.167 130.167,99.8333 133.5,98.5 Z"/></g>
<g><path style="opacity:0.522" fill="#a395ff" d="M 369.5,106.5 C 370.906,106.973 371.573,107.973 371.5,109.5C 370.094,109.027 369.427,108.027 369.5,106.5 Z"/></g>
<g><path style="opacity:0.38" fill="#b6aeff" d="M 124.5,107.5 C 124.573,109.027 123.906,110.027 122.5,110.5C 122.427,108.973 123.094,107.973 124.5,107.5 Z"/></g>
<g><path style="opacity:0.537" fill="#9f90ff" d="M 371.5,109.5 C 372.906,109.973 373.573,110.973 373.5,112.5C 372.094,112.027 371.427,111.027 371.5,109.5 Z"/></g>
<g><path style="opacity:0.318" fill="#bab2ff" d="M 122.5,110.5 C 122.573,112.027 121.906,113.027 120.5,113.5C 120.427,111.973 121.094,110.973 122.5,110.5 Z"/></g>
<g><path style="opacity:0.929" fill="#9e8bff" d="M 117.5,119.5 C 117.88,121.698 117.213,123.365 115.5,124.5C 115.796,122.597 116.463,120.93 117.5,119.5 Z"/></g>
<g><path style="opacity:0.706" fill="#b3a9ff" d="M 115.5,125.5 C 115.435,128.428 114.768,131.095 113.5,133.5C 113.294,130.505 113.96,127.838 115.5,125.5 Z"/></g>
<g><path style="opacity:0.808" fill="#7d6eff" d="M 378.5,123.5 C 379.924,125.515 380.59,127.848 380.5,130.5C 379.076,128.485 378.41,126.152 378.5,123.5 Z"/></g>
<g><path style="opacity:1" fill="#fdfdff" d="M 173.5,145.5 C 225.168,145.333 276.834,145.5 328.5,146C 339.211,147.712 346.711,153.545 351,163.5C 352.915,172.063 354.248,180.73 355,189.5C 355.801,209.853 355.468,230.187 354,250.5C 353.559,257.584 352.559,264.584 351,271.5C 347.028,281.75 339.528,287.583 328.5,289C 276.5,289.667 224.5,289.667 172.5,289C 160.997,287.166 153.497,280.666 150,269.5C 144.076,234.492 144.076,199.492 150,164.5C 154.378,153.747 162.211,147.413 173.5,145.5 Z"/></g>
<g><path style="opacity:1" fill="#0a07ff" d="M 228.5,189.5 C 246.431,198.466 264.098,207.966 281.5,218C 264.292,227.368 246.958,236.535 229.5,245.5C 228.5,226.845 228.167,208.179 228.5,189.5 Z"/></g>
<g><path style="opacity:0.992" fill="#a791ff" d="M 122.5,328.5 C 124.446,329.035 125.446,330.368 125.5,332.5C 124.026,331.564 123.026,330.23 122.5,328.5 Z"/></g>
<g><path style="opacity:0.478" fill="#aba1ff" d="M 133.5,340.5 C 135.027,340.427 136.027,341.094 136.5,342.5C 134.973,342.573 133.973,341.906 133.5,340.5 Z"/></g>
<g><path style="opacity:0.506" fill="#a193ff" d="M 136.5,342.5 C 138.027,342.427 139.027,343.094 139.5,344.5C 137.973,344.573 136.973,343.906 136.5,342.5 Z"/></g>
<g><path style="opacity:0.439" fill="#a296ff" d="M 139.5,344.5 C 141.027,344.427 142.027,345.094 142.5,346.5C 140.973,346.573 139.973,345.906 139.5,344.5 Z"/></g>
<g><path style="opacity:0.541" fill="#ada4ff" d="M 151.5,350.5 C 154.152,350.41 156.485,351.076 158.5,352.5C 155.848,352.59 153.515,351.924 151.5,350.5 Z"/></g>
</svg>
