<?xml version="1.0" encoding="UTF-8"?>
<!DOCTYPE svg PUBLIC "-//W3C//DTD SVG 1.1//EN" "http://www.w3.org/Graphics/SVG/1.1/DTD/svg11.dtd">
<svg xmlns="http://www.w3.org/2000/svg" version="1.1" width="546px" height="457px" style="shape-rendering:geometricPrecision; text-rendering:geometricPrecision; image-rendering:optimizeQuality; fill-rule:evenodd; clip-rule:evenodd" xmlns:xlink="http://www.w3.org/1999/xlink">
<g><path style="opacity:1" fill="#1409ff" d="M 369.5,106.5 C 369.427,108.027 370.094,109.027 371.5,109.5C 371.427,111.027 372.094,112.027 373.5,112.5C 376.488,115.481 378.154,119.148 378.5,123.5C 378.41,126.152 379.076,128.485 380.5,130.5C 382.017,135.586 382.85,140.919 383,146.5C 383.667,195.167 383.667,243.833 383,292.5C 381.383,327.779 363.216,348.279 328.5,354C 274.503,355.657 220.503,355.657 166.5,354C 157.806,353.333 149.806,350.833 142.5,346.5C 142.027,345.094 141.027,344.427 139.5,344.5C 139.027,343.094 138.027,342.427 136.5,342.5C 136.027,341.094 135.027,340.427 133.5,340.5C 119.945,328.724 112.778,313.724 112,295.5C 111.333,244.5 111.333,193.5 112,142.5C 112.469,136.324 113.635,130.324 115.5,124.5C 117.213,123.365 117.88,121.698 117.5,119.5C 117.992,117.181 118.992,115.181 120.5,113.5C 121.906,113.027 122.573,112.027 122.5,110.5C 123.906,110.027 124.573,109.027 124.5,107.5C 124.833,106.5 125.5,105.833 126.5,105.5C 129.167,103.5 131.5,101.167 133.5,98.5C 136.803,94.8442 140.803,92.1775 145.5,90.5C 148.491,90.8337 150.824,89.8337 152.5,87.5C 158.641,85.5058 164.974,84.3392 171.5,84C 222.167,83.3333 272.833,83.3333 323.5,84C 342.464,84.3612 357.798,91.8612 369.5,106.5 Z"/></g>
<g><path style="opacity:1" fill="#8d73ff" d="M 152.5,87.5 C 150.824,89.8337 148.491,90.8337 145.5,90.5C 147.509,88.9348 149.843,87.9348 152.5,87.5 Z"/></g>
<g><path style="opacity:0.631" fill="#a99cff" d="M 133.5,98.5 C 131.5,101.167 129.167,103.5 126.5,105.5C 127.833,102.167 130.167,99.8333 133.5,98.5 Z"/></g>
<g><path style="opacity:0.525" fill="#a294ff" d="M 369.5,106.5 C 370.906,106.973 371.573,107.973 371.5,109.5C 370.094,109.027 369.427,108.027 369.5,106.5 Z"/></g>
<g><path style="opacity:0.369" fill="#b6aeff" d="M 124.5,107.5 C 124.573,109.027 123.906,110.027 122.5,110.5C 122.427,108.973 123.094,107.973 124.5,107.5 Z"/></g>
<g><path style="opacity:0.533" fill="#9e8fff" d="M 371.5,109.5 C 372.906,109.973 373.573,110.973 373.5,112.5C 372.094,112.027 371.427,111.027 371.5,109.5 Z"/></g>
<g><path style="opacity:0.31" fill="#bab2ff" d="M 122.5,110.5 C 122.573,112.027 121.906,113.027 120.5,113.5C 120.427,111.973 121.094,110.973 122.5,110.5 Z"/></g>
<g><path style="opacity:1" fill="#fbfaff" d="M 233.5,114.5 C 273.484,111.418 304.984,126.085 328,158.5C 348.938,196.411 346.938,233.077 322,268.5C 309.999,282.902 295.166,292.902 277.5,298.5C 277.485,294.44 277.985,290.44 279,286.5C 321.805,264.217 337.471,229.55 326,182.5C 311.522,146.867 285.022,128.201 246.5,126.5C 201.825,130.005 174.659,153.672 165,197.5C 162.128,238.776 179.128,268.443 216,286.5C 216.828,290.466 217.328,294.466 217.5,298.5C 187.294,288.795 167.127,268.795 157,238.5C 145.781,198.202 155.614,164.035 186.5,136C 200.486,125.004 216.153,117.838 233.5,114.5 Z"/></g>
<g><path style="opacity:0.949" fill="#9e8bff" d="M 117.5,119.5 C 117.88,121.698 117.213,123.365 115.5,124.5C 115.796,122.597 116.463,120.93 117.5,119.5 Z"/></g>
<g><path style="opacity:0.812" fill="#7e6fff" d="M 378.5,123.5 C 379.924,125.515 380.59,127.848 380.5,130.5C 379.076,128.485 378.41,126.152 378.5,123.5 Z"/></g>
<g><path style="opacity:1" fill="#fafaff" d="M 239.5,145.5 C 282.909,145.411 306.909,166.911 311.5,210C 310.435,229.795 302.435,246.128 287.5,259C 285.783,260.559 283.783,261.392 281.5,261.5C 281.334,256.821 281.501,252.155 282,247.5C 304.226,223.694 305.226,199.028 285,173.5C 260.886,152.892 236.386,152.392 211.5,172C 189.838,197.573 190.338,222.739 213,247.5C 213.499,252.155 213.666,256.821 213.5,261.5C 202.104,255.597 193.938,246.597 189,234.5C 178.706,206.965 183.873,182.798 204.5,162C 214.707,153.228 226.373,147.728 239.5,145.5 Z"/></g>
<g><path style="opacity:1" fill="#fcfcff" d="M 241.5,179.5 C 260.792,178.292 269.959,187.292 269,206.5C 263.607,220.781 253.44,225.947 238.5,222C 226.231,214.527 222.731,204.027 228,190.5C 231.336,185.269 235.836,181.602 241.5,179.5 Z"/></g>
<g><path style="opacity:1" fill="#fdfdff" d="M 240.5,232.5 C 249.547,231.347 257.881,233.18 265.5,238C 267.617,239.731 269.117,241.898 270,244.5C 270.955,268.154 268.621,291.487 263,314.5C 255.398,324.184 246.231,325.851 235.5,319.5C 234.139,317.972 232.972,316.305 232,314.5C 226.162,291.125 223.829,267.458 225,243.5C 228.735,237.724 233.901,234.058 240.5,232.5 Z"/></g>
<g><path style="opacity:0.467" fill="#aaa0ff" d="M 133.5,340.5 C 135.027,340.427 136.027,341.094 136.5,342.5C 134.973,342.573 133.973,341.906 133.5,340.5 Z"/></g>
<g><path style="opacity:0.506" fill="#a193ff" d="M 136.5,342.5 C 138.027,342.427 139.027,343.094 139.5,344.5C 137.973,344.573 136.973,343.906 136.5,342.5 Z"/></g>
<g><path style="opacity:0.431" fill="#a89bff" d="M 139.5,344.5 C 141.027,344.427 142.027,345.094 142.5,346.5C 140.973,346.573 139.973,345.906 139.5,344.5 Z"/></g>
</svg>
