<?xml version="1.0" encoding="UTF-8"?>
<!DOCTYPE svg PUBLIC "-//W3C//DTD SVG 1.1//EN" "http://www.w3.org/Graphics/SVG/1.1/DTD/svg11.dtd">
<svg xmlns="http://www.w3.org/2000/svg" version="1.1" width="546px" height="457px" style="shape-rendering:geometricPrecision; text-rendering:geometricPrecision; image-rendering:optimizeQuality; fill-rule:evenodd; clip-rule:evenodd" xmlns:xlink="http://www.w3.org/1999/xlink">
<g><path style="opacity:1" fill="#1709ff" d="M 369.5,106.5 C 369.427,108.027 370.094,109.027 371.5,109.5C 371.427,111.027 372.094,112.027 373.5,112.5C 376.488,115.481 378.154,119.148 378.5,123.5C 378.41,126.152 379.076,128.485 380.5,130.5C 382.017,135.586 382.85,140.919 383,146.5C 383.667,195.167 383.667,243.833 383,292.5C 379.9,332.266 358.4,353.099 318.5,355C 272.833,355.667 227.167,355.667 181.5,355C 174.132,354.687 166.799,354.02 159.5,353C 153.322,351.901 147.655,349.734 142.5,346.5C 142.027,345.094 141.027,344.427 139.5,344.5C 139.027,343.094 138.027,342.427 136.5,342.5C 136.027,341.094 135.027,340.427 133.5,340.5C 119.4,328.962 112.233,313.962 112,295.5C 111.333,244.5 111.333,193.5 112,142.5C 112.469,136.324 113.635,130.324 115.5,124.5C 117.213,123.365 117.88,121.698 117.5,119.5C 117.992,117.181 118.992,115.181 120.5,113.5C 121.906,113.027 122.573,112.027 122.5,110.5C 123.906,110.027 124.573,109.027 124.5,107.5C 124.833,106.5 125.5,105.833 126.5,105.5C 129.167,103.5 131.5,101.167 133.5,98.5C 136.803,94.8442 140.803,92.1775 145.5,90.5C 148.491,90.8337 150.824,89.8337 152.5,87.5C 158.641,85.5058 164.974,84.3392 171.5,84C 222.167,83.3333 272.833,83.3333 323.5,84C 342.464,84.3612 357.798,91.8612 369.5,106.5 Z"/></g>
<g><path style="opacity:1" fill="#8d74ff" d="M 152.5,87.5 C 150.824,89.8337 148.491,90.8337 145.5,90.5C 147.509,88.9348 149.843,87.9348 152.5,87.5 Z"/></g>
<g><path style="opacity:0.62" fill="#a99cff" d="M 133.5,98.5 C 131.5,101.167 129.167,103.5 126.5,105.5C 127.833,102.167 130.167,99.8333 133.5,98.5 Z"/></g>
<g><path style="opacity:0.525" fill="#a395ff" d="M 369.5,106.5 C 370.906,106.973 371.573,107.973 371.5,109.5C 370.094,109.027 369.427,108.027 369.5,106.5 Z"/></g>
<g><path style="opacity:0.369" fill="#b6aeff" d="M 124.5,107.5 C 124.573,109.027 123.906,110.027 122.5,110.5C 122.427,108.973 123.094,107.973 124.5,107.5 Z"/></g>
<g><path style="opacity:0.533" fill="#978aff" d="M 371.5,109.5 C 372.906,109.973 373.573,110.973 373.5,112.5C 372.094,112.027 371.427,111.027 371.5,109.5 Z"/></g>
<g><path style="opacity:0.306" fill="#bab2ff" d="M 122.5,110.5 C 122.573,112.027 121.906,113.027 120.5,113.5C 120.427,111.973 121.094,110.973 122.5,110.5 Z"/></g>
<g><path style="opacity:0.933" fill="#9e8bff" d="M 117.5,119.5 C 117.88,121.698 117.213,123.365 115.5,124.5C 115.796,122.597 116.463,120.93 117.5,119.5 Z"/></g>
<g><path style="opacity:0.808" fill="#7e6eff" d="M 378.5,123.5 C 379.924,125.515 380.59,127.848 380.5,130.5C 379.076,128.485 378.41,126.152 378.5,123.5 Z"/></g>
<g><path style="opacity:1" fill="#fdfdff" d="M 149.5,137.5 C 227.458,140.648 283.291,177.314 317,247.5C 326.508,270.206 331.341,293.873 331.5,318.5C 319.833,318.5 308.167,318.5 296.5,318.5C 294.791,265.565 272.124,224.399 228.5,195C 204.415,179.893 178.082,172.393 149.5,172.5C 149.5,160.833 149.5,149.167 149.5,137.5 Z"/></g>
<g><path style="opacity:1" fill="#fdfcff" d="M 149.5,199.5 C 200.777,201.543 237.61,225.543 260,271.5C 266.567,286.833 269.733,302.833 269.5,319.5C 257.833,319.5 246.167,319.5 234.5,319.5C 233.438,282.945 216.438,256.778 183.5,241C 172.588,236.605 161.254,234.105 149.5,233.5C 149.5,222.167 149.5,210.833 149.5,199.5 Z"/></g>
<g><path style="opacity:1" fill="#fcfcff" d="M 169.5,270.5 C 182.536,269.934 191.703,275.6 197,287.5C 200.034,303.937 193.534,314.437 177.5,319C 157.546,318.707 148.379,308.541 150,288.5C 153.536,279.125 160.036,273.125 169.5,270.5 Z"/></g>
<g><path style="opacity:0.471" fill="#aa9fff" d="M 133.5,340.5 C 135.027,340.427 136.027,341.094 136.5,342.5C 134.973,342.573 133.973,341.906 133.5,340.5 Z"/></g>
<g><path style="opacity:0.502" fill="#a194ff" d="M 136.5,342.5 C 138.027,342.427 139.027,343.094 139.5,344.5C 137.973,344.573 136.973,343.906 136.5,342.5 Z"/></g>
<g><path style="opacity:0.435" fill="#a196ff" d="M 139.5,344.5 C 141.027,344.427 142.027,345.094 142.5,346.5C 140.973,346.573 139.973,345.906 139.5,344.5 Z"/></g>
</svg>
