<?xml version="1.0" encoding="UTF-8"?>
<!DOCTYPE svg PUBLIC "-//W3C//DTD SVG 1.1//EN" "http://www.w3.org/Graphics/SVG/1.1/DTD/svg11.dtd">
<svg xmlns="http://www.w3.org/2000/svg" version="1.1" width="546px" height="457px" style="shape-rendering:geometricPrecision; text-rendering:geometricPrecision; image-rendering:optimizeQuality; fill-rule:evenodd; clip-rule:evenodd" xmlns:xlink="http://www.w3.org/1999/xlink">
<g><path style="opacity:1" fill="#1b0cff" d="M 369.5,106.5 C 369.427,108.027 370.094,109.027 371.5,109.5C 371.427,111.027 372.094,112.027 373.5,112.5C 376.7,116.561 378.867,121.228 380,126.5C 381.777,133.047 382.777,139.714 383,146.5C 383.667,195.167 383.667,243.833 383,292.5C 379.9,332.266 358.4,353.099 318.5,355C 272.833,355.667 227.167,355.667 181.5,355C 174.132,354.687 166.799,354.02 159.5,353C 153.322,351.901 147.655,349.734 142.5,346.5C 142.027,345.094 141.027,344.427 139.5,344.5C 139.027,343.094 138.027,342.427 136.5,342.5C 136.027,341.094 135.027,340.427 133.5,340.5C 119.4,328.962 112.233,313.962 112,295.5C 111.333,244.5 111.333,193.5 112,142.5C 112.469,136.324 113.635,130.324 115.5,124.5C 117.213,123.365 117.88,121.698 117.5,119.5C 117.992,117.181 118.992,115.181 120.5,113.5C 121.906,113.027 122.573,112.027 122.5,110.5C 123.906,110.027 124.573,109.027 124.5,107.5C 124.833,106.5 125.5,105.833 126.5,105.5C 129.167,103.5 131.5,101.167 133.5,98.5C 137.479,94.5058 142.145,91.5058 147.5,89.5C 149.698,89.8799 151.365,89.2132 152.5,87.5C 158.641,85.5058 164.974,84.3392 171.5,84C 222.167,83.3333 272.833,83.3333 323.5,84C 342.464,84.3612 357.798,91.8612 369.5,106.5 Z"/></g>
<g><path style="opacity:0.922" fill="#a795ff" d="M 152.5,87.5 C 151.365,89.2132 149.698,89.8799 147.5,89.5C 148.93,88.4625 150.597,87.7959 152.5,87.5 Z"/></g>
<g><path style="opacity:0.62" fill="#a99cff" d="M 133.5,98.5 C 131.5,101.167 129.167,103.5 126.5,105.5C 127.833,102.167 130.167,99.8333 133.5,98.5 Z"/></g>
<g><path style="opacity:0.522" fill="#a395ff" d="M 369.5,106.5 C 370.906,106.973 371.573,107.973 371.5,109.5C 370.094,109.027 369.427,108.027 369.5,106.5 Z"/></g>
<g><path style="opacity:0.373" fill="#b7afff" d="M 124.5,107.5 C 124.573,109.027 123.906,110.027 122.5,110.5C 122.427,108.973 123.094,107.973 124.5,107.5 Z"/></g>
<g><path style="opacity:0.533" fill="#9f90ff" d="M 371.5,109.5 C 372.906,109.973 373.573,110.973 373.5,112.5C 372.094,112.027 371.427,111.027 371.5,109.5 Z"/></g>
<g><path style="opacity:0.314" fill="#b9b1ff" d="M 122.5,110.5 C 122.573,112.027 121.906,113.027 120.5,113.5C 120.427,111.973 121.094,110.973 122.5,110.5 Z"/></g>
<g><path style="opacity:0.937" fill="#9e8bff" d="M 117.5,119.5 C 117.88,121.698 117.213,123.365 115.5,124.5C 115.796,122.597 116.463,120.93 117.5,119.5 Z"/></g>
<g><path style="opacity:1" fill="#fbfbff" d="M 341.5,205.5 C 342.245,215.148 342.578,224.815 342.5,234.5C 339.531,274.988 320.197,304.488 284.5,323C 270.616,327.369 256.616,328.536 242.5,326.5C 239.495,324.723 236.162,323.723 232.5,323.5C 216.389,317.512 203.222,307.512 193,293.5C 183.334,279.778 176.834,264.778 173.5,248.5C 173.638,243.586 172.972,238.919 171.5,234.5C 170.721,220.902 172.055,207.568 175.5,194.5C 176.924,192.485 177.59,190.152 177.5,187.5C 188.652,152.179 212.319,130.679 248.5,123C 289.031,122.849 317.531,141.349 334,178.5C 337.829,187.152 340.329,196.152 341.5,205.5 Z"/></g>
<g><path style="opacity:1" fill="#1a13ff" d="M 276.5,153.5 C 288.963,159.456 298.796,168.456 306,180.5C 321.614,208.236 322.614,236.57 309,265.5C 301.698,279.465 291.365,290.465 278,298.5C 275.016,295.21 272.516,291.543 270.5,287.5C 297.823,268.161 308.656,241.827 303,208.5C 298.12,189.21 287.287,174.376 270.5,164C 272.378,160.407 274.378,156.907 276.5,153.5 Z"/></g>
<g><path style="opacity:1" fill="#1811ff" d="M 292.5,204.5 C 292.41,207.152 293.076,209.485 294.5,211.5C 295.074,217.484 295.407,223.484 295.5,229.5C 294.055,250.736 284.221,266.736 266,277.5C 262.985,274.66 260.819,271.16 259.5,267C 282.536,249.839 288.369,228.005 277,201.5C 275.248,198.328 273.248,195.328 271,192.5C 266.968,189.295 263.135,185.962 259.5,182.5C 260.389,179.721 261.556,177.055 263,174.5C 264.133,172.789 265.633,172.289 267.5,173C 279.783,180.441 288.117,190.941 292.5,204.5 Z"/></g>
<g><path style="opacity:1" fill="#a09aff" d="M 177.5,187.5 C 177.59,190.152 176.924,192.485 175.5,194.5C 175.41,191.848 176.076,189.515 177.5,187.5 Z"/></g>
<g><path style="opacity:1" fill="#1d14ff" d="M 258.5,233.5 C 259.404,232.791 259.737,231.791 259.5,230.5C 244.99,230.171 230.657,230.504 216.5,231.5C 215.327,233.504 213.66,235.004 211.5,236C 201.662,238.833 195.995,235.167 194.5,225C 198.727,212.047 206.06,210.047 216.5,219C 230.829,219.5 245.163,219.667 259.5,219.5C 258.548,212.371 254.715,207.371 248,204.5C 247.333,203.5 247.333,202.5 248,201.5C 249.542,198.381 251.542,195.714 254,193.5C 270.62,202.21 276.954,215.876 273,234.5C 269.868,244.63 263.535,251.963 254,256.5C 251.053,253.538 248.887,250.038 247.5,246C 249.881,244.054 252.381,242.221 255,240.5C 256.646,238.391 257.812,236.057 258.5,233.5 Z"/></g>
<g><path style="opacity:1" fill="#8b85ff" d="M 292.5,204.5 C 293.924,206.515 294.59,208.848 294.5,211.5C 293.076,209.485 292.41,207.152 292.5,204.5 Z"/></g>
<g><path style="opacity:1" fill="#9b98ff" d="M 341.5,205.5 C 342.953,211.267 343.62,217.267 343.5,223.5C 343.499,227.349 343.165,231.016 342.5,234.5C 342.578,224.815 342.245,215.148 341.5,205.5 Z"/></g>
<g><path style="opacity:1" fill="#9f9dff" d="M 294.5,211.5 C 296.495,217.434 296.829,223.434 295.5,229.5C 295.407,223.484 295.074,217.484 294.5,211.5 Z"/></g>
<g><path style="opacity:1" fill="#c2c2ff" d="M 216.5,231.5 C 230.657,230.504 244.99,230.171 259.5,230.5C 259.737,231.791 259.404,232.791 258.5,233.5C 244.873,231.518 230.873,230.851 216.5,231.5 Z"/></g>
<g><path style="opacity:1" fill="#7974ff" d="M 171.5,234.5 C 172.972,238.919 173.638,243.586 173.5,248.5C 172.028,244.081 171.362,239.414 171.5,234.5 Z"/></g>
<g><path style="opacity:1" fill="#aca7ff" d="M 232.5,323.5 C 236.162,323.723 239.495,324.723 242.5,326.5C 238.838,326.277 235.505,325.277 232.5,323.5 Z"/></g>
<g><path style="opacity:0.478" fill="#aba1ff" d="M 133.5,340.5 C 135.027,340.427 136.027,341.094 136.5,342.5C 134.973,342.573 133.973,341.906 133.5,340.5 Z"/></g>
<g><path style="opacity:0.51" fill="#a194ff" d="M 136.5,342.5 C 138.027,342.427 139.027,343.094 139.5,344.5C 137.973,344.573 136.973,343.906 136.5,342.5 Z"/></g>
<g><path style="opacity:0.439" fill="#a297ff" d="M 139.5,344.5 C 141.027,344.427 142.027,345.094 142.5,346.5C 140.973,346.573 139.973,345.906 139.5,344.5 Z"/></g>
</svg>
