<?xml version="1.0" encoding="UTF-8"?>
<!DOCTYPE svg PUBLIC "-//W3C//DTD SVG 1.1//EN" "http://www.w3.org/Graphics/SVG/1.1/DTD/svg11.dtd">
<svg xmlns="http://www.w3.org/2000/svg" version="1.1" width="546px" height="457px" style="shape-rendering:geometricPrecision; text-rendering:geometricPrecision; image-rendering:optimizeQuality; fill-rule:evenodd; clip-rule:evenodd" xmlns:xlink="http://www.w3.org/1999/xlink">
<g><path style="opacity:1" fill="#1207ff" d="M 114.5,129.5 C 115.924,127.485 116.59,125.152 116.5,122.5C 118.556,115.459 122.222,109.459 127.5,104.5C 129.167,103.5 130.5,102.167 131.5,100.5C 138.465,92.8455 147.131,88.0121 157.5,86C 162.785,84.974 168.118,84.3073 173.5,84C 222.5,83.3333 271.5,83.3333 320.5,84C 359.801,86.968 380.635,108.135 383,147.5C 383.667,194.833 383.667,242.167 383,289.5C 382.321,327.08 363.488,348.58 326.5,354C 273.5,354.667 220.5,354.667 167.5,354C 137.124,350.289 118.958,333.456 113,303.5C 111.378,250.521 111.045,197.521 112,144.5C 112.296,139.272 113.129,134.272 114.5,129.5 Z"/></g>
<g><path style="opacity:0.573" fill="#9c8dff" d="M 131.5,100.5 C 130.5,102.167 129.167,103.5 127.5,104.5C 127.833,102.167 129.167,100.833 131.5,100.5 Z"/></g>
<g><path style="opacity:0.792" fill="#9a88ff" d="M 116.5,122.5 C 116.59,125.152 115.924,127.485 114.5,129.5C 114.41,126.848 115.076,124.515 116.5,122.5 Z"/></g>
<g><path style="opacity:1" fill="#d0d0ff" d="M 321.5,154.5 C 334.833,154.5 348.167,154.5 361.5,154.5C 361.817,158.702 361.483,162.702 360.5,166.5C 347.5,166.5 334.5,166.5 321.5,166.5C 321.5,162.5 321.5,158.5 321.5,154.5 Z"/></g>
<g><path style="opacity:1" fill="#fcfcfe" d="M 322.5,155.5 C 334.833,155.5 347.167,155.5 359.5,155.5C 359.5,158.833 359.5,162.167 359.5,165.5C 347.167,165.5 334.833,165.5 322.5,165.5C 322.5,162.167 322.5,158.833 322.5,155.5 Z"/></g>
<g><path style="opacity:1" fill="#8585ff" d="M 321.5,154.5 C 321.5,158.5 321.5,162.5 321.5,166.5C 334.5,166.5 347.5,166.5 360.5,166.5C 347.344,167.496 334.01,167.829 320.5,167.5C 320.182,162.968 320.515,158.634 321.5,154.5 Z"/></g>
<g><path style="opacity:1" fill="#5754ff" d="M 230.5,170.5 C 244.323,169.504 258.323,169.171 272.5,169.5C 272.5,174.167 272.5,178.833 272.5,183.5C 258.323,183.829 244.323,183.496 230.5,182.5C 243.833,182.5 257.167,182.5 270.5,182.5C 270.5,178.5 270.5,174.5 270.5,170.5C 257.167,170.5 243.833,170.5 230.5,170.5 Z"/></g>
<g><path style="opacity:1" fill="#b7b6ff" d="M 361.5,170.5 C 361.5,174.5 361.5,178.5 361.5,182.5C 347.833,182.5 334.167,182.5 320.5,182.5C 320.5,178.5 320.5,174.5 320.5,170.5C 334.167,170.5 347.833,170.5 361.5,170.5 Z"/></g>
<g><path style="opacity:1" fill="#fbfbfe" d="M 321.5,171.5 C 334.5,171.5 347.5,171.5 360.5,171.5C 360.5,174.833 360.5,178.167 360.5,181.5C 347.5,181.5 334.5,181.5 321.5,181.5C 321.5,178.167 321.5,174.833 321.5,171.5 Z"/></g>
<g><path style="opacity:1" fill="#c4c4fe" d="M 230.5,170.5 C 243.833,170.5 257.167,170.5 270.5,170.5C 270.5,174.5 270.5,178.5 270.5,182.5C 257.167,182.5 243.833,182.5 230.5,182.5C 230.5,178.5 230.5,174.5 230.5,170.5 Z"/></g>
<g><path style="opacity:1" fill="#fbfbfe" d="M 231.5,171.5 C 244.167,171.5 256.833,171.5 269.5,171.5C 269.5,174.833 269.5,178.167 269.5,181.5C 256.833,181.5 244.167,181.5 231.5,181.5C 231.5,178.167 231.5,174.833 231.5,171.5 Z"/></g>
<g><path style="opacity:1" fill="#c4c4fe" d="M 270.5,186.5 C 270.5,190.5 270.5,194.5 270.5,198.5C 257.167,198.5 243.833,198.5 230.5,198.5C 230.5,194.5 230.5,190.5 230.5,186.5C 243.833,186.5 257.167,186.5 270.5,186.5 Z"/></g>
<g><path style="opacity:1" fill="#fbfbfe" d="M 231.5,187.5 C 244.167,187.5 256.833,187.5 269.5,187.5C 269.5,190.833 269.5,194.167 269.5,197.5C 256.833,197.5 244.167,197.5 231.5,197.5C 231.5,194.167 231.5,190.833 231.5,187.5 Z"/></g>
<g><path style="opacity:1" fill="#b6b5ff" d="M 320.5,186.5 C 320.833,186.5 321.167,186.5 321.5,186.5C 321.185,190.371 321.518,194.038 322.5,197.5C 334.833,197.5 347.167,197.5 359.5,197.5C 360.482,194.038 360.815,190.371 360.5,186.5C 361.483,190.298 361.817,194.298 361.5,198.5C 347.833,198.5 334.167,198.5 320.5,198.5C 320.5,194.5 320.5,190.5 320.5,186.5 Z"/></g>
<g><path style="opacity:1" fill="#dad9fe" d="M 321.5,186.5 C 334.5,186.5 347.5,186.5 360.5,186.5C 360.815,190.371 360.482,194.038 359.5,197.5C 359.5,194.167 359.5,190.833 359.5,187.5C 347.167,187.5 334.833,187.5 322.5,187.5C 322.5,190.833 322.5,194.167 322.5,197.5C 321.518,194.038 321.185,190.371 321.5,186.5 Z"/></g>
<g><path style="opacity:1" fill="#fcfcfe" d="M 359.5,197.5 C 347.167,197.5 334.833,197.5 322.5,197.5C 322.5,194.167 322.5,190.833 322.5,187.5C 334.833,187.5 347.167,187.5 359.5,187.5C 359.5,190.833 359.5,194.167 359.5,197.5 Z"/></g>
<g><path style="opacity:1" fill="#473fff" d="M 270.5,186.5 C 271.488,191.64 271.821,196.974 271.5,202.5C 271.817,206.702 271.483,210.702 270.5,214.5C 270.5,214.167 270.5,213.833 270.5,213.5C 270.5,209.833 270.5,206.167 270.5,202.5C 257.344,201.504 244.01,201.171 230.5,201.5C 230.5,205.5 230.5,209.5 230.5,213.5C 229.167,208.5 229.167,203.5 230.5,198.5C 243.833,198.5 257.167,198.5 270.5,198.5C 270.5,194.5 270.5,190.5 270.5,186.5 Z"/></g>
<g><path style="opacity:1" fill="#f8f8fe" d="M 270.5,202.5 C 270.5,206.167 270.5,209.833 270.5,213.5C 257.5,213.5 244.5,213.5 231.5,213.5C 231.5,209.833 231.5,206.167 231.5,202.5C 244.5,202.5 257.5,202.5 270.5,202.5 Z"/></g>
<g><path style="opacity:1" fill="#9896ff" d="M 140.5,201.5 C 153.833,201.5 167.167,201.5 180.5,201.5C 180.5,205.833 180.5,210.167 180.5,214.5C 167.167,214.5 153.833,214.5 140.5,214.5C 139.167,210.5 139.167,206.5 140.5,202.5C 140.5,202.167 140.5,201.833 140.5,201.5 Z"/></g>
<g><path style="opacity:1" fill="#f8f8fe" d="M 140.5,202.5 C 153.5,202.5 166.5,202.5 179.5,202.5C 179.5,206.167 179.5,209.833 179.5,213.5C 166.5,213.5 153.5,213.5 140.5,213.5C 140.5,209.833 140.5,206.167 140.5,202.5 Z"/></g>
<g><path style="opacity:1" fill="#9f9dff" d="M 270.5,202.5 C 257.5,202.5 244.5,202.5 231.5,202.5C 231.5,206.167 231.5,209.833 231.5,213.5C 244.5,213.5 257.5,213.5 270.5,213.5C 270.5,213.833 270.5,214.167 270.5,214.5C 257.5,214.5 244.5,214.5 231.5,214.5C 230.833,214.5 230.5,214.167 230.5,213.5C 230.5,209.5 230.5,205.5 230.5,201.5C 244.01,201.171 257.344,201.504 270.5,202.5 Z"/></g>
<g><path style="opacity:1" fill="#9c9aff" d="M 315.5,201.5 C 315.5,201.833 315.5,202.167 315.5,202.5C 316.483,206.298 316.817,210.298 316.5,214.5C 302.833,214.5 289.167,214.5 275.5,214.5C 275.5,210.5 275.5,206.5 275.5,202.5C 288.656,201.504 301.99,201.171 315.5,201.5 Z"/></g>
<g><path style="opacity:1" fill="#2c29ff" d="M 140.5,201.5 C 153.99,200.504 167.656,200.171 181.5,200.5C 181.18,210.479 180.847,220.146 180.5,229.5C 180.5,225.5 180.5,221.5 180.5,217.5C 167.167,217.5 153.833,217.5 140.5,217.5C 140.5,216.5 140.5,215.5 140.5,214.5C 153.833,214.5 167.167,214.5 180.5,214.5C 180.5,210.167 180.5,205.833 180.5,201.5C 167.167,201.5 153.833,201.5 140.5,201.5 Z"/></g>
<g><path style="opacity:1" fill="#9896ff" d="M 140.5,217.5 C 153.833,217.5 167.167,217.5 180.5,217.5C 180.5,221.5 180.5,225.5 180.5,229.5C 180.5,230.167 180.167,230.5 179.5,230.5C 166.167,230.5 152.833,230.5 139.5,230.5C 139.183,226.298 139.517,222.298 140.5,218.5C 140.5,218.167 140.5,217.833 140.5,217.5 Z"/></g>
<g><path style="opacity:1" fill="#f8f8fe" d="M 140.5,218.5 C 153.5,218.5 166.5,218.5 179.5,218.5C 179.5,222.167 179.5,225.833 179.5,229.5C 166.5,229.5 153.5,229.5 140.5,229.5C 140.5,225.833 140.5,222.167 140.5,218.5 Z"/></g>
<g><path style="opacity:1" fill="#9996ff" d="M 231.5,217.5 C 244.677,217.171 257.677,217.505 270.5,218.5C 271.483,222.298 271.817,226.298 271.5,230.5C 257.833,230.5 244.167,230.5 230.5,230.5C 230.5,226.5 230.5,222.5 230.5,218.5C 230.5,217.833 230.833,217.5 231.5,217.5 Z"/></g>
<g><path style="opacity:1" fill="#9e9eff" d="M 361.5,233.5 C 361.818,238.032 361.485,242.366 360.5,246.5C 347.167,246.5 333.833,246.5 320.5,246.5C 320.5,242.167 320.5,237.833 320.5,233.5C 334.167,233.5 347.833,233.5 361.5,233.5 Z"/></g>
<g><path style="opacity:1" fill="#f9f9fe" d="M 321.5,234.5 C 334.5,234.5 347.5,234.5 360.5,234.5C 360.5,238.167 360.5,241.833 360.5,245.5C 347.5,245.5 334.5,245.5 321.5,245.5C 321.5,241.833 321.5,238.167 321.5,234.5 Z"/></g>
<g><path style="opacity:1" fill="#332eff" d="M 361.5,170.5 C 362.185,191.293 362.185,212.293 361.5,233.5C 347.833,233.5 334.167,233.5 320.5,233.5C 320.5,237.833 320.5,242.167 320.5,246.5C 333.833,246.5 347.167,246.5 360.5,246.5C 347.673,247.331 334.673,247.831 321.5,248C 334.673,248.169 347.673,248.669 360.5,249.5C 347.167,249.5 333.833,249.5 320.5,249.5C 319.504,249.414 318.671,249.748 318,250.5C 318.102,254.956 317.268,258.956 315.5,262.5C 302.673,263.331 289.673,263.831 276.5,264C 289.673,264.169 302.673,264.669 315.5,265.5C 302.167,265.5 288.833,265.5 275.5,265.5C 275.5,269.5 275.5,273.5 275.5,277.5C 273.74,274.299 272.906,270.633 273,266.5C 272.768,270.555 272.268,274.555 271.5,278.5C 257.512,279.666 243.512,279.833 229.5,279C 228.703,275.255 228.203,271.421 228,267.5C 227.762,271.222 227.262,274.889 226.5,278.5C 219.5,278.833 212.5,279.167 205.5,279.5C 198.133,279.497 191.133,278.83 184.5,277.5C 183.244,277.461 182.244,277.961 181.5,279C 174.5,279.167 167.5,279.333 160.5,279.5C 153.133,279.497 146.133,278.83 139.5,277.5C 139.833,277.5 140.167,277.5 140.5,277.5C 153.656,278.496 166.99,278.829 180.5,278.5C 180.5,274.167 180.5,269.833 180.5,265.5C 167.167,265.5 153.833,265.5 140.5,265.5C 140.167,264.167 139.833,262.833 139.5,261.5C 139.833,261.5 140.167,261.5 140.5,261.5C 153.656,262.496 166.99,262.829 180.5,262.5C 180.5,258.167 180.5,253.833 180.5,249.5C 166.833,249.5 153.167,249.5 139.5,249.5C 138.243,244.036 138.243,238.703 139.5,233.5C 139.5,232.5 139.5,231.5 139.5,230.5C 152.833,230.5 166.167,230.5 179.5,230.5C 180.207,232.134 181.373,233.468 183,234.5C 183.383,233.944 183.883,233.611 184.5,233.5C 184.183,237.702 184.517,241.702 185.5,245.5C 198.656,246.496 211.99,246.829 225.5,246.5C 225.5,242.5 225.5,238.5 225.5,234.5C 225.5,234.167 225.5,233.833 225.5,233.5C 227.268,237.044 228.102,241.044 228,245.5C 228.641,236.329 229.474,227.329 230.5,218.5C 230.5,222.5 230.5,226.5 230.5,230.5C 244.167,230.5 257.833,230.5 271.5,230.5C 271.817,226.298 271.483,222.298 270.5,218.5C 257.677,217.505 244.677,217.171 231.5,217.5C 244.327,216.669 257.327,216.169 270.5,216C 257.327,215.831 244.327,215.331 231.5,214.5C 244.5,214.5 257.5,214.5 270.5,214.5C 271.483,210.702 271.817,206.702 271.5,202.5C 272.323,205.977 272.823,209.644 273,213.5C 272.906,209.367 273.74,205.701 275.5,202.5C 275.5,206.5 275.5,210.5 275.5,214.5C 289.167,214.5 302.833,214.5 316.5,214.5C 316.817,210.298 316.483,206.298 315.5,202.5C 315.5,202.167 315.5,201.833 315.5,201.5C 317.117,202.038 318.784,202.371 320.5,202.5C 320.5,206.5 320.5,210.5 320.5,214.5C 334.167,214.5 347.833,214.5 361.5,214.5C 361.817,210.298 361.483,206.298 360.5,202.5C 347.677,201.505 334.677,201.171 321.5,201.5C 320.89,200.609 320.557,199.609 320.5,198.5C 334.167,198.5 347.833,198.5 361.5,198.5C 361.817,194.298 361.483,190.298 360.5,186.5C 347.5,186.5 334.5,186.5 321.5,186.5C 321.167,186.5 320.833,186.5 320.5,186.5C 320.5,185.167 320.5,183.833 320.5,182.5C 334.167,182.5 347.833,182.5 361.5,182.5C 361.5,178.5 361.5,174.5 361.5,170.5 Z"/></g>
<g><path style="opacity:1" fill="#a4a3ff" d="M 230.5,233.5 C 244.167,233.5 257.833,233.5 271.5,233.5C 271.5,237.833 271.5,242.167 271.5,246.5C 257.833,246.5 244.167,246.5 230.5,246.5C 230.5,242.167 230.5,237.833 230.5,233.5 Z"/></g>
<g><path style="opacity:1" fill="#a3a2ff" d="M 139.5,233.5 C 153.167,233.5 166.833,233.5 180.5,233.5C 180.5,237.833 180.5,242.167 180.5,246.5C 166.833,246.5 153.167,246.5 139.5,246.5C 139.5,242.167 139.5,237.833 139.5,233.5 Z"/></g>
<g><path style="opacity:1" fill="#f9f9ff" d="M 231.5,234.5 C 244.5,234.5 257.5,234.5 270.5,234.5C 270.5,238.167 270.5,241.833 270.5,245.5C 257.5,245.5 244.5,245.5 231.5,245.5C 231.5,241.833 231.5,238.167 231.5,234.5 Z"/></g>
<g><path style="opacity:1" fill="#f2f1ff" d="M 225.5,234.5 C 225.5,238.5 225.5,242.5 225.5,246.5C 211.99,246.829 198.656,246.496 185.5,245.5C 185.5,241.833 185.5,238.167 185.5,234.5C 198.833,234.5 212.167,234.5 225.5,234.5 Z"/></g>
<g><path style="opacity:1" fill="#f9f9fe" d="M 140.5,234.5 C 153.5,234.5 166.5,234.5 179.5,234.5C 179.5,238.167 179.5,241.833 179.5,245.5C 166.5,245.5 153.5,245.5 140.5,245.5C 140.5,241.833 140.5,238.167 140.5,234.5 Z"/></g>
<g><path style="opacity:1" fill="#9695ff" d="M 184.5,233.5 C 198.167,233.5 211.833,233.5 225.5,233.5C 225.5,233.833 225.5,234.167 225.5,234.5C 212.167,234.5 198.833,234.5 185.5,234.5C 185.5,238.167 185.5,241.833 185.5,245.5C 184.517,241.702 184.183,237.702 184.5,233.5 Z"/></g>
<g><path style="opacity:1" fill="#9897ff" d="M 360.5,218.5 C 361.483,222.298 361.817,226.298 361.5,230.5C 347.833,230.5 334.167,230.5 320.5,230.5C 320.5,226.167 320.5,221.833 320.5,217.5C 334.01,217.171 347.344,217.504 360.5,218.5 Z"/></g>
<g><path style="opacity:1" fill="#9c9aff" d="M 315.5,218.5 C 316.483,222.298 316.817,226.298 316.5,230.5C 302.833,230.5 289.167,230.5 275.5,230.5C 275.5,226.167 275.5,221.833 275.5,217.5C 289.01,217.171 302.344,217.504 315.5,218.5 Z"/></g>
<g><path style="opacity:1" fill="#f8f8fe" d="M 360.5,218.5 C 360.5,222.167 360.5,225.833 360.5,229.5C 347.5,229.5 334.5,229.5 321.5,229.5C 321.5,225.833 321.5,222.167 321.5,218.5C 334.5,218.5 347.5,218.5 360.5,218.5 Z"/></g>
<g><path style="opacity:1" fill="#f8f8fe" d="M 315.5,218.5 C 315.5,222.167 315.5,225.833 315.5,229.5C 302.5,229.5 289.5,229.5 276.5,229.5C 276.5,225.833 276.5,222.167 276.5,218.5C 289.5,218.5 302.5,218.5 315.5,218.5 Z"/></g>
<g><path style="opacity:1" fill="#f8f8fe" d="M 270.5,218.5 C 270.5,222.167 270.5,225.833 270.5,229.5C 257.5,229.5 244.5,229.5 231.5,229.5C 231.5,225.833 231.5,222.167 231.5,218.5C 244.5,218.5 257.5,218.5 270.5,218.5 Z"/></g>
<g><path style="opacity:1" fill="#9997ff" d="M 321.5,201.5 C 334.677,201.171 347.677,201.505 360.5,202.5C 361.483,206.298 361.817,210.298 361.5,214.5C 347.833,214.5 334.167,214.5 320.5,214.5C 320.5,210.5 320.5,206.5 320.5,202.5C 320.5,201.833 320.833,201.5 321.5,201.5 Z"/></g>
<g><path style="opacity:1" fill="#f8f8fe" d="M 360.5,202.5 C 360.5,206.167 360.5,209.833 360.5,213.5C 347.5,213.5 334.5,213.5 321.5,213.5C 321.5,209.833 321.5,206.167 321.5,202.5C 334.5,202.5 347.5,202.5 360.5,202.5 Z"/></g>
<g><path style="opacity:1" fill="#f8f8fe" d="M 315.5,202.5 C 315.5,206.167 315.5,209.833 315.5,213.5C 302.5,213.5 289.5,213.5 276.5,213.5C 276.5,209.833 276.5,206.167 276.5,202.5C 289.5,202.5 302.5,202.5 315.5,202.5 Z"/></g>
<g><path style="opacity:1" fill="#a5a5ff" d="M 315.5,245.5 C 302.344,246.496 289.01,246.829 275.5,246.5C 275.5,242.167 275.5,237.833 275.5,233.5C 289.167,233.5 302.833,233.5 316.5,233.5C 316.817,237.702 316.483,241.702 315.5,245.5 Z"/></g>
<g><path style="opacity:1" fill="#f9f9fe" d="M 315.5,245.5 C 302.5,245.5 289.5,245.5 276.5,245.5C 276.5,241.833 276.5,238.167 276.5,234.5C 289.5,234.5 302.5,234.5 315.5,234.5C 315.5,238.167 315.5,241.833 315.5,245.5 Z"/></g>
<g><path style="opacity:1" fill="#9493ff" d="M 139.5,249.5 C 153.167,249.5 166.833,249.5 180.5,249.5C 180.5,253.833 180.5,258.167 180.5,262.5C 166.99,262.829 153.656,262.496 140.5,261.5C 140.167,261.5 139.833,261.5 139.5,261.5C 139.5,257.5 139.5,253.5 139.5,249.5 Z"/></g>
<g><path style="opacity:1" fill="#8e8cff" d="M 225.5,261.5 C 225.5,257.833 225.5,254.167 225.5,250.5C 212.167,250.5 198.833,250.5 185.5,250.5C 185.5,254.167 185.5,257.833 185.5,261.5C 184.517,257.702 184.183,253.702 184.5,249.5C 198.5,249.5 212.5,249.5 226.5,249.5C 226.817,253.702 226.483,257.702 225.5,261.5 Z"/></g>
<g><path style="opacity:1" fill="#9391ff" d="M 230.5,250.5 C 243.99,249.504 257.656,249.171 271.5,249.5C 271.817,253.702 271.483,257.702 270.5,261.5C 270.815,257.629 270.482,253.962 269.5,250.5C 256.833,250.5 244.167,250.5 231.5,250.5C 231.167,250.5 230.833,250.5 230.5,250.5 Z"/></g>
<g><path style="opacity:1" fill="#9897ff" d="M 315.5,261.5 C 315.5,261.833 315.5,262.167 315.5,262.5C 302.167,262.5 288.833,262.5 275.5,262.5C 275.5,258.167 275.5,253.833 275.5,249.5C 289.167,249.5 302.833,249.5 316.5,249.5C 316.817,253.702 316.483,257.702 315.5,261.5 Z"/></g>
<g><path style="opacity:1" fill="#9594ff" d="M 320.5,249.5 C 333.833,249.5 347.167,249.5 360.5,249.5C 361.833,253.5 361.833,257.5 360.5,261.5C 347.344,262.496 334.01,262.829 320.5,262.5C 320.5,258.167 320.5,253.833 320.5,249.5 Z"/></g>
<g><path style="opacity:1" fill="#f8f7fe" d="M 315.5,261.5 C 302.5,261.5 289.5,261.5 276.5,261.5C 276.5,257.833 276.5,254.167 276.5,250.5C 289.5,250.5 302.5,250.5 315.5,250.5C 315.5,254.167 315.5,257.833 315.5,261.5 Z"/></g>
<g><path style="opacity:1" fill="#dfdffe" d="M 140.5,261.5 C 140.5,257.833 140.5,254.167 140.5,250.5C 153.5,250.5 166.5,250.5 179.5,250.5C 179.5,254.167 179.5,257.833 179.5,261.5C 166.5,261.5 153.5,261.5 140.5,261.5 Z"/></g>
<g><path style="opacity:1" fill="#fdfdfe" d="M 141.5,251.5 C 153.833,251.5 166.167,251.5 178.5,251.5C 178.5,254.5 178.5,257.5 178.5,260.5C 166.167,260.5 153.833,260.5 141.5,260.5C 141.5,257.5 141.5,254.5 141.5,251.5 Z"/></g>
<g><path style="opacity:1" fill="#ccc9ff" d="M 225.5,261.5 C 212.167,262.833 198.833,262.833 185.5,261.5C 185.5,257.833 185.5,254.167 185.5,250.5C 198.833,250.5 212.167,250.5 225.5,250.5C 225.5,254.167 225.5,257.833 225.5,261.5 Z"/></g>
<g><path style="opacity:1" fill="#fcfcfe" d="M 186.5,251.5 C 199.167,251.5 211.833,251.5 224.5,251.5C 224.5,254.5 224.5,257.5 224.5,260.5C 211.833,260.5 199.167,260.5 186.5,260.5C 186.5,257.5 186.5,254.5 186.5,251.5 Z"/></g>
<g><path style="opacity:1" fill="#c1befe" d="M 230.5,250.5 C 230.833,250.5 231.167,250.5 231.5,250.5C 231.5,253.833 231.5,257.167 231.5,260.5C 244.167,260.5 256.833,260.5 269.5,260.5C 269.5,257.167 269.5,253.833 269.5,250.5C 270.482,253.962 270.815,257.629 270.5,261.5C 257.344,262.496 244.01,262.829 230.5,262.5C 230.5,258.5 230.5,254.5 230.5,250.5 Z"/></g>
<g><path style="opacity:1" fill="#fafafe" d="M 231.5,250.5 C 244.167,250.5 256.833,250.5 269.5,250.5C 269.5,253.833 269.5,257.167 269.5,260.5C 256.833,260.5 244.167,260.5 231.5,260.5C 231.5,257.167 231.5,253.833 231.5,250.5 Z"/></g>
<g><path style="opacity:1" fill="#e0e0fe" d="M 360.5,261.5 C 347.5,261.5 334.5,261.5 321.5,261.5C 321.5,257.833 321.5,254.167 321.5,250.5C 334.5,250.5 347.5,250.5 360.5,250.5C 360.5,254.167 360.5,257.833 360.5,261.5 Z"/></g>
<g><path style="opacity:1" fill="#fdfdfe" d="M 322.5,251.5 C 334.833,251.5 347.167,251.5 359.5,251.5C 359.5,254.5 359.5,257.5 359.5,260.5C 347.167,260.5 334.833,260.5 322.5,260.5C 322.5,257.5 322.5,254.5 322.5,251.5 Z"/></g>
<g><path style="opacity:1" fill="#a5a3ff" d="M 140.5,265.5 C 153.833,265.5 167.167,265.5 180.5,265.5C 180.5,269.833 180.5,274.167 180.5,278.5C 166.99,278.829 153.656,278.496 140.5,277.5C 140.167,277.5 139.833,277.5 139.5,277.5C 139.183,273.298 139.517,269.298 140.5,265.5 Z"/></g>
<g><path style="opacity:1" fill="#b0aeff" d="M 225.5,267.5 C 225.167,267.5 224.833,267.5 224.5,267.5C 212.011,266.505 199.344,266.171 186.5,266.5C 185.518,269.962 185.185,273.629 185.5,277.5C 185.167,277.5 184.833,277.5 184.5,277.5C 184.5,273.5 184.5,269.5 184.5,265.5C 198.541,264.851 212.208,265.518 225.5,267.5 Z"/></g>
<g><path style="opacity:1" fill="#a9a7ff" d="M 315.5,265.5 C 316.833,269.5 316.833,273.5 315.5,277.5C 302.167,278.833 288.833,278.833 275.5,277.5C 275.5,273.5 275.5,269.5 275.5,265.5C 288.833,265.5 302.167,265.5 315.5,265.5 Z"/></g>
<g><path style="opacity:1" fill="#b5b4ff" d="M 321.5,266.5 C 321.5,266.167 321.5,265.833 321.5,265.5C 334.833,265.5 348.167,265.5 361.5,265.5C 361.817,269.702 361.483,273.702 360.5,277.5C 360.5,273.833 360.5,270.167 360.5,266.5C 347.5,266.5 334.5,266.5 321.5,266.5 Z"/></g>
<g><path style="opacity:1" fill="#fafafe" d="M 140.5,277.5 C 140.5,273.833 140.5,270.167 140.5,266.5C 153.5,266.5 166.5,266.5 179.5,266.5C 179.5,270.167 179.5,273.833 179.5,277.5C 166.5,277.5 153.5,277.5 140.5,277.5 Z"/></g>
<g><path style="opacity:1" fill="#fcfcfe" d="M 186.5,266.5 C 199.344,266.171 212.011,266.505 224.5,267.5C 224.5,270.5 224.5,273.5 224.5,276.5C 211.833,276.5 199.167,276.5 186.5,276.5C 186.5,273.167 186.5,269.833 186.5,266.5 Z"/></g>
<g><path style="opacity:1" fill="#fafafe" d="M 315.5,277.5 C 302.5,277.5 289.5,277.5 276.5,277.5C 276.5,273.833 276.5,270.167 276.5,266.5C 289.5,266.5 302.5,266.5 315.5,266.5C 315.5,270.167 315.5,273.833 315.5,277.5 Z"/></g>
<g><path style="opacity:1" fill="#f8f8fe" d="M 321.5,266.5 C 334.5,266.5 347.5,266.5 360.5,266.5C 360.5,270.167 360.5,273.833 360.5,277.5C 347.5,277.5 334.5,277.5 321.5,277.5C 321.5,273.833 321.5,270.167 321.5,266.5 Z"/></g>
<g><path style="opacity:1" fill="#c5c2ff" d="M 186.5,266.5 C 186.5,269.833 186.5,273.167 186.5,276.5C 199.167,276.5 211.833,276.5 224.5,276.5C 224.5,273.5 224.5,270.5 224.5,267.5C 224.833,267.5 225.167,267.5 225.5,267.5C 225.5,271.167 225.5,274.833 225.5,278.5C 211.99,278.829 198.656,278.496 185.5,277.5C 185.185,273.629 185.518,269.962 186.5,266.5 Z"/></g>
<g><path style="opacity:1" fill="#c2c0ff" d="M 230.5,265.5 C 243.833,265.5 257.167,265.5 270.5,265.5C 270.5,269.833 270.5,274.167 270.5,278.5C 257.167,278.5 243.833,278.5 230.5,278.5C 230.5,274.167 230.5,269.833 230.5,265.5 Z"/></g>
<g><path style="opacity:1" fill="#fcfcfe" d="M 231.5,266.5 C 244.167,266.5 256.833,266.5 269.5,266.5C 269.5,269.833 269.5,273.167 269.5,276.5C 256.833,276.5 244.167,276.5 231.5,276.5C 231.5,273.167 231.5,269.833 231.5,266.5 Z"/></g>
<g><path style="opacity:1" fill="#8a89ff" d="M 321.5,265.5 C 321.5,265.833 321.5,266.167 321.5,266.5C 321.5,270.167 321.5,273.833 321.5,277.5C 334.5,277.5 347.5,277.5 360.5,277.5C 347.344,278.496 334.01,278.829 320.5,278.5C 320.182,273.968 320.515,269.634 321.5,265.5 Z"/></g>
</svg>
