<?xml version="1.0" encoding="UTF-8"?>
<!DOCTYPE svg PUBLIC "-//W3C//DTD SVG 1.1//EN" "http://www.w3.org/Graphics/SVG/1.1/DTD/svg11.dtd">
<svg xmlns="http://www.w3.org/2000/svg" version="1.1" width="546px" height="457px" style="shape-rendering:geometricPrecision; text-rendering:geometricPrecision; image-rendering:optimizeQuality; fill-rule:evenodd; clip-rule:evenodd" xmlns:xlink="http://www.w3.org/1999/xlink">
<g><path style="opacity:1" fill="#1b0cff" d="M 369.5,106.5 C 369.427,108.027 370.094,109.027 371.5,109.5C 371.427,111.027 372.094,112.027 373.5,112.5C 376.488,115.481 378.154,119.148 378.5,123.5C 378.41,126.152 379.076,128.485 380.5,130.5C 382.017,135.586 382.85,140.919 383,146.5C 383.667,195.167 383.667,243.833 383,292.5C 381.373,327.787 363.206,348.287 328.5,354C 302.356,355.118 276.189,355.618 250,355.5C 227.167,355.333 204.333,355.167 181.5,355C 175.752,354.788 170.085,354.288 164.5,353.5C 160.458,351.763 156.124,350.763 151.5,350.5C 148.088,349.958 145.088,348.625 142.5,346.5C 142.027,345.094 141.027,344.427 139.5,344.5C 139.027,343.094 138.027,342.427 136.5,342.5C 136.027,341.094 135.027,340.427 133.5,340.5C 119.4,328.962 112.233,313.962 112,295.5C 111.333,244.5 111.333,193.5 112,142.5C 112.469,136.324 113.635,130.324 115.5,124.5C 117.213,123.365 117.88,121.698 117.5,119.5C 117.992,117.181 118.992,115.181 120.5,113.5C 121.906,113.027 122.573,112.027 122.5,110.5C 123.906,110.027 124.573,109.027 124.5,107.5C 124.833,106.5 125.5,105.833 126.5,105.5C 129.167,103.5 131.5,101.167 133.5,98.5C 137.479,94.5058 142.145,91.5058 147.5,89.5C 149.698,89.8799 151.365,89.2132 152.5,87.5C 158.641,85.5058 164.974,84.3392 171.5,84C 222.167,83.3333 272.833,83.3333 323.5,84C 342.464,84.3612 357.798,91.8612 369.5,106.5 Z"/></g>
<g><path style="opacity:0.929" fill="#a795ff" d="M 152.5,87.5 C 151.365,89.2132 149.698,89.8799 147.5,89.5C 148.93,88.4625 150.597,87.7959 152.5,87.5 Z"/></g>
<g><path style="opacity:0.627" fill="#a99cff" d="M 133.5,98.5 C 131.5,101.167 129.167,103.5 126.5,105.5C 127.833,102.167 130.167,99.8333 133.5,98.5 Z"/></g>
<g><path style="opacity:0.525" fill="#a395ff" d="M 369.5,106.5 C 370.906,106.973 371.573,107.973 371.5,109.5C 370.094,109.027 369.427,108.027 369.5,106.5 Z"/></g>
<g><path style="opacity:0.376" fill="#b6adff" d="M 124.5,107.5 C 124.573,109.027 123.906,110.027 122.5,110.5C 122.427,108.973 123.094,107.973 124.5,107.5 Z"/></g>
<g><path style="opacity:0.537" fill="#9589ff" d="M 371.5,109.5 C 372.906,109.973 373.573,110.973 373.5,112.5C 372.094,112.027 371.427,111.027 371.5,109.5 Z"/></g>
<g><path style="opacity:0.318" fill="#bab2ff" d="M 122.5,110.5 C 122.573,112.027 121.906,113.027 120.5,113.5C 120.427,111.973 121.094,110.973 122.5,110.5 Z"/></g>
<g><path style="opacity:1" fill="#fdfdff" d="M 241.5,117.5 C 285.11,116.545 317.61,134.879 339,172.5C 357.725,217.875 349.225,257.375 313.5,291C 272.643,321.537 231.309,322.203 189.5,293C 158.231,265.528 146.731,231.361 155,190.5C 161.614,167.557 174.781,149.39 194.5,136C 201.029,132.572 207.362,128.906 213.5,125C 222.765,121.746 232.098,119.246 241.5,117.5 Z"/></g>
<g><path style="opacity:0.945" fill="#9e8bff" d="M 117.5,119.5 C 117.88,121.698 117.213,123.365 115.5,124.5C 115.796,122.597 116.463,120.93 117.5,119.5 Z"/></g>
<g><path style="opacity:0.808" fill="#7d6eff" d="M 378.5,123.5 C 379.924,125.515 380.59,127.848 380.5,130.5C 379.076,128.485 378.41,126.152 378.5,123.5 Z"/></g>
<g><path style="opacity:1" fill="#100aff" d="M 219.5,169.5 C 243.903,168.296 267.903,170.796 291.5,177C 301.527,180.513 311.194,184.847 320.5,190C 324.847,198.463 322.514,203.963 313.5,206.5C 284,191.502 252.667,185.668 219.5,189C 211.636,189.216 203.97,190.549 196.5,193C 183.931,194.769 179.931,189.769 184.5,178C 195.795,173.17 207.462,170.337 219.5,169.5 Z"/></g>
<g><path style="opacity:1" fill="#140cff" d="M 216.5,203.5 C 246.851,200.76 275.518,206.26 302.5,220C 311.976,226.185 311.643,231.685 301.5,236.5C 292.505,232.67 283.505,228.836 274.5,225C 255.488,219.884 236.154,218.217 216.5,220C 211.696,220.368 207.03,221.368 202.5,223C 199.167,223.667 195.833,223.667 192.5,223C 188.399,219.499 187.732,215.499 190.5,211C 192.275,209.561 194.275,208.561 196.5,208C 203.276,206.378 209.943,204.878 216.5,203.5 Z"/></g>
<g><path style="opacity:1" fill="#130dff" d="M 222.5,235.5 C 246.913,233.292 269.913,237.792 291.5,249C 296.69,251.949 297.69,255.949 294.5,261C 293.271,261.781 291.938,262.281 290.5,262.5C 263.995,248.255 235.995,244.422 206.5,251C 202.833,251.667 199.167,251.667 195.5,251C 192.833,247.667 192.833,244.333 195.5,241C 198.089,239.803 200.756,238.803 203.5,238C 210.014,237.42 216.347,236.587 222.5,235.5 Z"/></g>
<g><path style="opacity:0.478" fill="#aba1ff" d="M 133.5,340.5 C 135.027,340.427 136.027,341.094 136.5,342.5C 134.973,342.573 133.973,341.906 133.5,340.5 Z"/></g>
<g><path style="opacity:0.514" fill="#a193ff" d="M 136.5,342.5 C 138.027,342.427 139.027,343.094 139.5,344.5C 137.973,344.573 136.973,343.906 136.5,342.5 Z"/></g>
<g><path style="opacity:0.443" fill="#a196ff" d="M 139.5,344.5 C 141.027,344.427 142.027,345.094 142.5,346.5C 140.973,346.573 139.973,345.906 139.5,344.5 Z"/></g>
<g><path style="opacity:1" fill="#8672ff" d="M 151.5,350.5 C 156.124,350.763 160.458,351.763 164.5,353.5C 159.849,353.373 155.515,352.373 151.5,350.5 Z"/></g>
</svg>
