<?xml version="1.0" encoding="UTF-8"?>
<!DOCTYPE svg PUBLIC "-//W3C//DTD SVG 1.1//EN" "http://www.w3.org/Graphics/SVG/1.1/DTD/svg11.dtd">
<svg xmlns="http://www.w3.org/2000/svg" version="1.1" width="546px" height="457px" style="shape-rendering:geometricPrecision; text-rendering:geometricPrecision; image-rendering:optimizeQuality; fill-rule:evenodd; clip-rule:evenodd" xmlns:xlink="http://www.w3.org/1999/xlink">
<g><path style="opacity:1" fill="#1509ff" d="M 369.5,106.5 C 369.427,108.027 370.094,109.027 371.5,109.5C 371.427,111.027 372.094,112.027 373.5,112.5C 373.427,114.027 374.094,115.027 375.5,115.5C 376.674,116.514 377.34,117.847 377.5,119.5C 377.41,122.152 378.076,124.485 379.5,126.5C 381.712,132.509 382.878,138.843 383,145.5C 383.667,194.833 383.667,244.167 383,293.5C 380.939,328.225 362.773,348.392 328.5,354C 274.501,355.893 220.501,355.893 166.5,354C 143.681,351.507 127.181,340.007 117,319.5C 114.182,311.742 112.515,303.742 112,295.5C 111.333,244.5 111.333,193.5 112,142.5C 112.259,139.413 112.759,136.413 113.5,133.5C 114.768,131.095 115.435,128.428 115.5,125.5C 115.5,125.167 115.5,124.833 115.5,124.5C 117.213,123.365 117.88,121.698 117.5,119.5C 117.992,117.181 118.992,115.181 120.5,113.5C 121.906,113.027 122.573,112.027 122.5,110.5C 123.906,110.027 124.573,109.027 124.5,107.5C 124.833,106.5 125.5,105.833 126.5,105.5C 129.167,103.5 131.5,101.167 133.5,98.5C 137.479,94.5058 142.145,91.5058 147.5,89.5C 149.698,89.8799 151.365,89.2132 152.5,87.5C 158.641,85.5058 164.974,84.3392 171.5,84C 222.167,83.3333 272.833,83.3333 323.5,84C 342.464,84.3612 357.798,91.8612 369.5,106.5 Z"/></g>
<g><path style="opacity:0.863" fill="#a694ff" d="M 152.5,87.5 C 151.365,89.2132 149.698,89.8799 147.5,89.5C 148.93,88.4625 150.597,87.7959 152.5,87.5 Z"/></g>
<g><path style="opacity:0.584" fill="#a99dff" d="M 133.5,98.5 C 131.5,101.167 129.167,103.5 126.5,105.5C 127.833,102.167 130.167,99.8333 133.5,98.5 Z"/></g>
<g><path style="opacity:0.471" fill="#a294ff" d="M 369.5,106.5 C 370.906,106.973 371.573,107.973 371.5,109.5C 370.094,109.027 369.427,108.027 369.5,106.5 Z"/></g>
<g><path style="opacity:0.337" fill="#b6aeff" d="M 124.5,107.5 C 124.573,109.027 123.906,110.027 122.5,110.5C 122.427,108.973 123.094,107.973 124.5,107.5 Z"/></g>
<g><path style="opacity:1" fill="#7471ff" d="M 255.5,111.5 C 251.766,111.323 248.099,111.656 244.5,112.5C 244.611,111.883 244.944,111.383 245.5,111C 249.027,110.192 252.36,110.359 255.5,111.5 Z"/></g>
<g><path style="opacity:0.486" fill="#9e8fff" d="M 371.5,109.5 C 372.906,109.973 373.573,110.973 373.5,112.5C 372.094,112.027 371.427,111.027 371.5,109.5 Z"/></g>
<g><path style="opacity:0.282" fill="#bab2ff" d="M 122.5,110.5 C 122.573,112.027 121.906,113.027 120.5,113.5C 120.427,111.973 121.094,110.973 122.5,110.5 Z"/></g>
<g><path style="opacity:1" fill="#d4d2ff" d="M 255.5,111.5 C 255.842,112.338 256.508,112.672 257.5,112.5C 258.167,113.5 258.833,114.5 259.5,115.5C 252.719,112.881 246.052,113.215 239.5,116.5C 240.539,114.469 242.205,113.136 244.5,112.5C 248.099,111.656 251.766,111.323 255.5,111.5 Z"/></g>
<g><path style="opacity:1" fill="#6b67ff" d="M 257.5,112.5 C 260.167,113.167 261.833,114.833 262.5,117.5C 261.5,116.833 260.5,116.167 259.5,115.5C 258.833,114.5 258.167,113.5 257.5,112.5 Z"/></g>
<g><path style="opacity:1" fill="#fcfcfe" d="M 259.5,115.5 C 262.671,125.227 263.338,135.227 261.5,145.5C 260.194,147.473 258.527,149.139 256.5,150.5C 247.532,153.005 241.698,150.005 239,141.5C 238.227,133.118 238.394,124.785 239.5,116.5C 246.052,113.215 252.719,112.881 259.5,115.5 Z"/></g>
<g><path style="opacity:0.294" fill="#b3a9ff" d="M 373.5,112.5 C 374.906,112.973 375.573,113.973 375.5,115.5C 374.094,115.027 373.427,114.027 373.5,112.5 Z"/></g>
<g><path style="opacity:0.89" fill="#9f8cff" d="M 117.5,119.5 C 117.88,121.698 117.213,123.365 115.5,124.5C 115.796,122.597 116.463,120.93 117.5,119.5 Z"/></g>
<g><path style="opacity:0.808" fill="#9f8eff" d="M 377.5,119.5 C 378.924,121.515 379.59,123.848 379.5,126.5C 378.076,124.485 377.41,122.152 377.5,119.5 Z"/></g>
<g><path style="opacity:1" fill="#b9b6ff" d="M 239.5,116.5 C 238.394,124.785 238.227,133.118 239,141.5C 241.698,150.005 247.532,153.005 256.5,150.5C 256.5,150.833 256.5,151.167 256.5,151.5C 249.993,153.876 244.493,152.542 240,147.5C 239,145.5 238,143.5 237,141.5C 236.333,134.5 236.333,127.5 237,120.5C 237.2,118.68 238.034,117.347 239.5,116.5 Z"/></g>
<g><path style="opacity:1" fill="#d4d3fe" d="M 259.5,115.5 C 260.5,116.167 261.5,116.833 262.5,117.5C 263.611,126.452 263.777,135.452 263,144.5C 262.617,145.056 262.117,145.389 261.5,145.5C 263.338,135.227 262.671,125.227 259.5,115.5 Z"/></g>
<g><path style="opacity:1" fill="#5e55ff" d="M 262.5,117.5 C 263.966,118.347 264.8,119.68 265,121.5C 265.832,129.521 265.665,137.521 264.5,145.5C 262.103,147.902 259.436,149.902 256.5,151.5C 256.5,151.167 256.5,150.833 256.5,150.5C 258.527,149.139 260.194,147.473 261.5,145.5C 262.117,145.389 262.617,145.056 263,144.5C 263.777,135.452 263.611,126.452 262.5,117.5 Z"/></g>
<g><path style="opacity:0.663" fill="#b3a9ff" d="M 115.5,125.5 C 115.435,128.428 114.768,131.095 113.5,133.5C 113.294,130.505 113.96,127.838 115.5,125.5 Z"/></g>
<g><path style="opacity:1" fill="#8a87ff" d="M 291.5,153.5 C 294.64,152.359 297.973,152.192 301.5,153C 303.119,153.236 304.119,154.069 304.5,155.5C 300.364,153.817 296.031,153.15 291.5,153.5 Z"/></g>
<g><path style="opacity:1" fill="#ada8ff" d="M 209.5,154.5 C 202.259,153.136 196.259,155.136 191.5,160.5C 195.037,153.671 200.703,151.171 208.5,153C 209.056,153.383 209.389,153.883 209.5,154.5 Z"/></g>
<g><path style="opacity:1" fill="#fcfcfe" d="M 213.5,157.5 C 213.833,157.5 214.167,157.5 214.5,157.5C 214.372,159.655 214.872,161.655 216,163.5C 216.667,180.833 216.667,198.167 216,215.5C 214.671,218.829 212.837,221.829 210.5,224.5C 209.292,225.234 207.959,225.567 206.5,225.5C 203.14,225.384 199.807,225.051 196.5,224.5C 196.167,223.833 195.833,223.167 195.5,222.5C 194.68,220.188 193.847,217.854 193,215.5C 192.333,197.5 192.333,179.5 193,161.5C 198.746,155.127 205.579,153.794 213.5,157.5 Z"/></g>
<g><path style="opacity:1" fill="#fafafe" d="M 291.5,153.5 C 296.031,153.15 300.364,153.817 304.5,155.5C 306.177,158.025 307.677,160.691 309,163.5C 309.901,171.579 309.568,179.579 308,187.5C 303.464,192.152 297.964,193.652 291.5,192C 290.211,190.198 288.544,189.031 286.5,188.5C 286.068,187.29 285.401,186.29 284.5,185.5C 284.334,177.16 284.5,168.827 285,160.5C 287.372,158.297 289.539,155.963 291.5,153.5 Z"/></g>
<g><path style="opacity:1" fill="#7a71ff" d="M 291.5,153.5 C 289.539,155.963 287.372,158.297 285,160.5C 284.5,168.827 284.334,177.16 284.5,185.5C 283.883,185.389 283.383,185.056 283,184.5C 282.333,176.5 282.333,168.5 283,160.5C 285.436,157.553 288.269,155.22 291.5,153.5 Z"/></g>
<g><path style="opacity:1" fill="#a7a6ff" d="M 214.5,157.5 C 215.558,158.6 216.392,159.934 217,161.5C 217.667,179.833 217.667,198.167 217,216.5C 215.989,220.231 213.823,222.898 210.5,224.5C 212.837,221.829 214.671,218.829 216,215.5C 216.667,198.167 216.667,180.833 216,163.5C 214.872,161.655 214.372,159.655 214.5,157.5 Z"/></g>
<g><path style="opacity:1" fill="#fdfdfe" d="M 262.5,257.5 C 261.279,261.385 258.946,264.385 255.5,266.5C 245.936,268.104 240.436,264.104 239,254.5C 238.026,227.105 238.359,199.771 240,172.5C 247.259,164.554 254.592,164.554 262,172.5C 262.5,200.831 262.667,229.165 262.5,257.5 Z"/></g>
<g><path style="opacity:1" fill="#4948ff" d="M 191.5,160.5 C 190.553,178.806 190.22,197.139 190.5,215.5C 189.338,198.005 189.171,180.338 190,162.5C 190.278,161.584 190.778,160.918 191.5,160.5 Z"/></g>
<g><path style="opacity:1" fill="#a19dff" d="M 304.5,155.5 C 306.836,157.004 308.669,159.004 310,161.5C 310.913,170.576 310.58,179.576 309,188.5C 305.783,192.408 301.616,194.075 296.5,193.5C 291.802,194.453 288.469,192.786 286.5,188.5C 288.544,189.031 290.211,190.198 291.5,192C 297.964,193.652 303.464,192.152 308,187.5C 309.568,179.579 309.901,171.579 309,163.5C 307.677,160.691 306.177,158.025 304.5,155.5 Z"/></g>
<g><path style="opacity:1" fill="#cfcdff" d="M 209.5,154.5 C 211.404,154.738 212.738,155.738 213.5,157.5C 205.579,153.794 198.746,155.127 193,161.5C 192.333,179.5 192.333,197.5 193,215.5C 193.847,217.854 194.68,220.188 195.5,222.5C 193.416,220.424 191.749,218.09 190.5,215.5C 190.22,197.139 190.553,178.806 191.5,160.5C 196.259,155.136 202.259,153.136 209.5,154.5 Z"/></g>
<g><path style="opacity:1" fill="#8b88ff" d="M 244.5,165.5 C 241.726,168.26 239.392,171.26 237.5,174.5C 237.933,170.062 240.267,167.062 244.5,165.5 Z"/></g>
<g><path style="opacity:1" fill="#bbb7ff" d="M 263.5,257.5 C 263.167,257.5 262.833,257.5 262.5,257.5C 262.667,229.165 262.5,200.831 262,172.5C 254.592,164.554 247.259,164.554 240,172.5C 238.359,199.771 238.026,227.105 239,254.5C 240.436,264.104 245.936,268.104 255.5,266.5C 252.024,267.643 248.358,267.81 244.5,267C 241.657,264.489 239.157,261.656 237,258.5C 236.17,230.33 236.336,202.33 237.5,174.5C 239.392,171.26 241.726,168.26 244.5,165.5C 248.078,164.411 251.745,164.245 255.5,165C 258.63,167.128 261.463,169.628 264,172.5C 264.824,200.905 264.657,229.239 263.5,257.5 Z"/></g>
<g><path style="opacity:1" fill="#f9f9fe" d="M 162.5,196.5 C 167.167,197.833 170.167,200.833 171.5,205.5C 171.77,213.555 171.437,221.555 170.5,229.5C 170.167,230.167 169.833,230.833 169.5,231.5C 164.127,233.674 158.46,234.674 152.5,234.5C 150.983,234.489 149.816,233.823 149,232.5C 148.634,230.548 147.801,228.882 146.5,227.5C 146.334,219.16 146.5,210.827 147,202.5C 149.46,201.042 151.627,199.209 153.5,197C 156.482,196.502 159.482,196.335 162.5,196.5 Z"/></g>
<g><path style="opacity:1" fill="#fbfbfe" d="M 353.5,203.5 C 354.606,211.785 354.773,220.118 354,228.5C 352.272,231.33 350.105,233.663 347.5,235.5C 344.257,236.58 340.924,236.747 337.5,236C 336.944,235.617 336.611,235.117 336.5,234.5C 334.395,232.215 332.895,229.548 332,226.5C 331.333,218.833 331.333,211.167 332,203.5C 339.092,196.958 346.259,196.958 353.5,203.5 Z"/></g>
<g><path style="opacity:1" fill="#8b88ff" d="M 336.5,196.5 C 333.748,199.084 331.581,202.084 330,205.5C 329.5,212.826 329.334,220.159 329.5,227.5C 328.344,219.677 328.177,211.677 329,203.5C 330.736,200.261 333.236,197.927 336.5,196.5 Z"/></g>
<g><path style="opacity:1" fill="#e2e1ff" d="M 353.5,201.5 C 353.5,202.167 353.5,202.833 353.5,203.5C 346.259,196.958 339.092,196.958 332,203.5C 331.333,211.167 331.333,218.833 332,226.5C 332.895,229.548 334.395,232.215 336.5,234.5C 333.167,233.167 330.833,230.833 329.5,227.5C 329.334,220.159 329.5,212.826 330,205.5C 331.581,202.084 333.748,199.084 336.5,196.5C 343.305,194.324 348.972,195.991 353.5,201.5 Z"/></g>
<g><path style="opacity:1" fill="#f9f8ff" d="M 305.5,210.5 C 306.64,212.78 307.807,215.114 309,217.5C 309.5,234.83 309.667,252.163 309.5,269.5C 309.343,272.318 308.009,274.318 305.5,275.5C 303.226,275.715 301.059,276.382 299,277.5C 295.086,276.73 291.253,275.73 287.5,274.5C 286.5,273.833 285.5,273.167 284.5,272.5C 283.359,253.544 283.192,234.544 284,215.5C 284.383,214.944 284.883,214.611 285.5,214.5C 287.63,212.873 289.63,211.04 291.5,209C 296.341,208.231 301.007,208.731 305.5,210.5 Z"/></g>
<g><path style="opacity:1" fill="#9f9aff" d="M 162.5,196.5 C 159.482,196.335 156.482,196.502 153.5,197C 151.627,199.209 149.46,201.042 147,202.5C 146.5,210.827 146.334,219.16 146.5,227.5C 145.178,224.232 144.511,220.565 144.5,216.5C 144.457,211.433 144.957,206.433 146,201.5C 148.46,200.042 150.627,198.209 152.5,196C 156.027,195.192 159.36,195.359 162.5,196.5 Z"/></g>
<g><path style="opacity:1" fill="#a4a2ff" d="M 353.5,201.5 C 354.222,201.918 354.722,202.584 355,203.5C 355.667,212.167 355.667,220.833 355,229.5C 353.519,232.817 351.019,234.817 347.5,235.5C 350.105,233.663 352.272,231.33 354,228.5C 354.773,220.118 354.606,211.785 353.5,203.5C 353.5,202.833 353.5,202.167 353.5,201.5 Z"/></g>
<g><path style="opacity:1" fill="#9594ff" d="M 171.5,205.5 C 172.656,212.989 172.822,220.655 172,228.5C 171.617,229.056 171.117,229.389 170.5,229.5C 171.437,221.555 171.77,213.555 171.5,205.5 Z"/></g>
<g><path style="opacity:1" fill="#bfbbff" d="M 305.5,210.5 C 301.007,208.731 296.341,208.231 291.5,209C 289.63,211.04 287.63,212.873 285.5,214.5C 285.327,210.83 286.993,208.33 290.5,207C 293.833,206.333 297.167,206.333 300.5,207C 302.881,207.223 304.547,208.39 305.5,210.5 Z"/></g>
<g><path style="opacity:1" fill="#a8a7ff" d="M 305.5,210.5 C 307.451,211.282 308.951,212.616 310,214.5C 310.829,233.005 310.662,251.338 309.5,269.5C 309.667,252.163 309.5,234.83 309,217.5C 307.807,215.114 306.64,212.78 305.5,210.5 Z"/></g>
<g><path style="opacity:1" fill="#7e7bff" d="M 196.5,224.5 C 199.807,225.051 203.14,225.384 206.5,225.5C 205.378,226.156 204.045,226.489 202.5,226.5C 200.117,226.639 198.117,225.972 196.5,224.5 Z"/></g>
<g><path style="opacity:1" fill="#cac8ff" d="M 169.5,231.5 C 168.327,233.504 166.66,235.004 164.5,236C 161.167,236.667 157.833,236.667 154.5,236C 153.584,235.722 152.918,235.222 152.5,234.5C 158.46,234.674 164.127,233.674 169.5,231.5 Z"/></g>
<g><path style="opacity:1" fill="#f8f7ff" d="M 212.5,241.5 C 212.685,243.196 213.519,244.529 215,245.5C 215.5,254.494 215.666,263.494 215.5,272.5C 214.833,273.5 214.167,274.5 213.5,275.5C 210.42,277.107 207.087,278.107 203.5,278.5C 199.698,278.126 196.365,276.793 193.5,274.5C 192.928,273.027 192.095,271.693 191,270.5C 190.2,262.421 190.367,254.421 191.5,246.5C 194.427,245.243 196.761,243.243 198.5,240.5C 203.384,239.036 208.051,239.37 212.5,241.5 Z"/></g>
<g><path style="opacity:1" fill="#a8a1ff" d="M 212.5,241.5 C 208.051,239.37 203.384,239.036 198.5,240.5C 196.761,243.243 194.427,245.243 191.5,246.5C 192.423,243.162 194.423,240.662 197.5,239C 201.833,238.333 206.167,238.333 210.5,239C 211.381,239.708 212.047,240.542 212.5,241.5 Z"/></g>
<g><path style="opacity:1" fill="#c4c2ff" d="M 212.5,241.5 C 214.504,242.673 216.004,244.34 217,246.5C 217.667,254.833 217.667,263.167 217,271.5C 216.617,272.056 216.117,272.389 215.5,272.5C 215.666,263.494 215.5,254.494 215,245.5C 213.519,244.529 212.685,243.196 212.5,241.5 Z"/></g>
<g><path style="opacity:1" fill="#9a97ff" d="M 262.5,257.5 C 262.833,257.5 263.167,257.5 263.5,257.5C 262.904,262.425 260.237,265.425 255.5,266.5C 258.946,264.385 261.279,261.385 262.5,257.5 Z"/></g>
<g><path style="opacity:1" fill="#6b66ff" d="M 284.5,272.5 C 285.5,273.167 286.5,273.833 287.5,274.5C 288.167,275.5 288.833,276.5 289.5,277.5C 286.833,276.833 285.167,275.167 284.5,272.5 Z"/></g>
<g><path style="opacity:1" fill="#d2cfff" d="M 287.5,274.5 C 291.253,275.73 295.086,276.73 299,277.5C 301.059,276.382 303.226,275.715 305.5,275.5C 304.657,277.173 303.324,278.34 301.5,279C 297.833,279.667 294.167,279.667 290.5,279C 289.944,278.617 289.611,278.117 289.5,277.5C 288.833,276.5 288.167,275.5 287.5,274.5 Z"/></g>
<g><path style="opacity:1" fill="#a6a4ff" d="M 193.5,274.5 C 196.365,276.793 199.698,278.126 203.5,278.5C 207.087,278.107 210.42,277.107 213.5,275.5C 210.993,278.565 207.66,279.898 203.5,279.5C 199.046,279.94 195.713,278.273 193.5,274.5 Z"/></g>
<g><path style="opacity:1" fill="#fcfcfe" d="M 260.5,286.5 C 261.966,287.347 262.8,288.68 263,290.5C 263.5,297.492 263.666,304.492 263.5,311.5C 261.574,315.097 258.907,318.097 255.5,320.5C 255.167,320.5 254.833,320.5 254.5,320.5C 247.491,321.497 242.657,318.831 240,312.5C 239.333,304.5 239.333,296.5 240,288.5C 246.105,281.189 252.939,280.522 260.5,286.5 Z"/></g>
<g><path style="opacity:1" fill="#8382ff" d="M 238.5,287.5 C 237.167,296.167 237.167,304.833 238.5,313.5C 237.883,313.389 237.383,313.056 237,312.5C 236.333,304.5 236.333,296.5 237,288.5C 237.383,287.944 237.883,287.611 238.5,287.5 Z"/></g>
<g><path style="opacity:1" fill="#dddbff" d="M 257.5,281.5 C 258.925,282.922 259.925,284.589 260.5,286.5C 252.939,280.522 246.105,281.189 240,288.5C 239.333,296.5 239.333,304.5 240,312.5C 242.657,318.831 247.491,321.497 254.5,320.5C 247.086,323.13 241.753,320.797 238.5,313.5C 237.167,304.833 237.167,296.167 238.5,287.5C 239.543,284.944 241.21,282.777 243.5,281C 248.22,280.283 252.886,280.45 257.5,281.5 Z"/></g>
<g><path style="opacity:1" fill="#8786ff" d="M 257.5,281.5 C 260.823,283.102 262.989,285.769 264,289.5C 264.822,297.012 264.655,304.345 263.5,311.5C 263.666,304.492 263.5,297.492 263,290.5C 262.8,288.68 261.966,287.347 260.5,286.5C 259.925,284.589 258.925,282.922 257.5,281.5 Z"/></g>
<g><path style="opacity:1" fill="#908cff" d="M 263.5,311.5 C 262.943,316.39 260.276,319.39 255.5,320.5C 258.907,318.097 261.574,315.097 263.5,311.5 Z"/></g>
</svg>
