<?xml version="1.0" encoding="UTF-8"?>
<!DOCTYPE svg PUBLIC "-//W3C//DTD SVG 1.1//EN" "http://www.w3.org/Graphics/SVG/1.1/DTD/svg11.dtd">
<svg xmlns="http://www.w3.org/2000/svg" version="1.1" width="1080px" height="1080px" style="shape-rendering:geometricPrecision; text-rendering:geometricPrecision; image-rendering:optimizeQuality; fill-rule:evenodd; clip-rule:evenodd" xmlns:xlink="http://www.w3.org/1999/xlink">
<g><path style="opacity:0.889" fill="#3e05f9" d="M 505.5,-0.5 C 528.167,-0.5 550.833,-0.5 573.5,-0.5C 679.658,7.21047 775.325,42.5438 860.5,105.5C 860.973,106.906 861.973,107.573 863.5,107.5C 867.146,109.817 870.48,112.484 873.5,115.5C 873.973,116.906 874.973,117.573 876.5,117.5C 877.5,117.833 878.167,118.5 878.5,119.5C 878.973,120.906 879.973,121.573 881.5,121.5C 882.5,121.833 883.167,122.5 883.5,123.5C 884.585,125.587 886.251,126.92 888.5,127.5C 889.5,127.833 890.167,128.5 890.5,129.5C 891.585,131.587 893.251,132.92 895.5,133.5C 896.833,134.167 897.833,135.167 898.5,136.5C 899.585,138.587 901.251,139.92 903.5,140.5C 907.833,144.167 911.833,148.167 915.5,152.5C 918.5,156.167 921.833,159.5 925.5,162.5C 929.167,165.5 932.5,168.833 935.5,172.5C 936.757,175.427 938.757,177.761 941.5,179.5C 945.525,182.558 948.858,186.225 951.5,190.5C 951.738,192.404 952.738,193.738 954.5,194.5C 955.5,194.833 956.167,195.5 956.5,196.5C 956.738,198.404 957.738,199.738 959.5,200.5C 961.633,202.091 963.299,204.091 964.5,206.5C 964.427,208.027 965.094,209.027 966.5,209.5C 968.262,210.262 969.262,211.596 969.5,213.5C 970.08,215.749 971.413,217.415 973.5,218.5C 973.427,220.027 974.094,221.027 975.5,221.5C 975.738,223.404 976.738,224.738 978.5,225.5C 978.427,227.027 979.094,228.027 980.5,228.5C 982.547,230.55 984.214,232.883 985.5,235.5C 985.427,237.027 986.094,238.027 987.5,238.5C 987.427,240.027 988.094,241.027 989.5,241.5C 989.427,243.027 990.094,244.027 991.5,244.5C 991.427,246.027 992.094,247.027 993.5,247.5C 993.427,249.027 994.094,250.027 995.5,250.5C 996.338,250.842 996.672,251.508 996.5,252.5C 996.427,254.027 997.094,255.027 998.5,255.5C 998.427,257.027 999.094,258.027 1000.5,258.5C 1000.43,260.027 1001.09,261.027 1002.5,261.5C 1003.67,262.514 1004.34,263.847 1004.5,265.5C 1004.43,267.027 1005.09,268.027 1006.5,268.5C 1008.01,270.181 1009.01,272.181 1009.5,274.5C 1009.43,276.027 1010.09,277.027 1011.5,277.5C 1012.67,278.514 1013.34,279.847 1013.5,281.5C 1013.43,283.027 1014.09,284.027 1015.5,284.5C 1032.53,314.895 1045.86,346.895 1055.5,380.5C 1055.05,383.01 1055.72,385.01 1057.5,386.5C 1059.63,392.688 1061.3,399.022 1062.5,405.5C 1062.74,410.12 1063.74,414.453 1065.5,418.5C 1065.42,421.781 1066.09,424.781 1067.5,427.5C 1067.29,430.495 1067.96,433.162 1069.5,435.5C 1071.7,445.716 1073.37,456.049 1074.5,466.5C 1076.75,488.94 1078.42,511.274 1079.5,533.5C 1079.5,543.167 1079.5,552.833 1079.5,562.5C 1077.89,576.996 1076.56,591.663 1075.5,606.5C 1067.53,671.059 1048.53,732.059 1018.5,789.5C 1016.08,792.008 1014.41,795.008 1013.5,798.5C 1013.67,799.492 1013.34,800.158 1012.5,800.5C 1010.41,802.336 1009.08,804.669 1008.5,807.5C 1005.38,810.976 1003.04,814.976 1001.5,819.5C 999.05,821.629 997.383,824.296 996.5,827.5C 995.094,827.973 994.427,828.973 994.5,830.5C 990.007,836.148 986.007,842.148 982.5,848.5C 981.094,848.973 980.427,849.973 980.5,851.5C 978.738,852.262 977.738,853.596 977.5,855.5C 976.094,855.973 975.427,856.973 975.5,858.5C 973.738,859.262 972.738,860.596 972.5,862.5C 970.738,863.262 969.738,864.596 969.5,866.5C 967.413,867.585 966.08,869.251 965.5,871.5C 963.738,872.262 962.738,873.596 962.5,875.5C 962.5,876.167 962.167,876.5 961.5,876.5C 956.085,881.579 951.418,887.246 947.5,893.5C 929.833,911.833 911.833,929.833 893.5,947.5C 885.871,953.129 878.537,959.129 871.5,965.5C 863.546,970.788 855.88,976.455 848.5,982.5C 845.63,983.433 843.296,985.1 841.5,987.5C 837.317,989.087 833.65,991.421 830.5,994.5C 828.973,994.427 827.973,995.094 827.5,996.5C 824.296,997.383 821.629,999.05 819.5,1001.5C 814.976,1003.04 810.976,1005.38 807.5,1008.5C 804.669,1009.08 802.336,1010.41 800.5,1012.5C 800.158,1013.34 799.492,1013.67 798.5,1013.5C 793.016,1015.41 788.016,1018.07 783.5,1021.5C 779.818,1024.01 775.818,1026.01 771.5,1027.5C 768.759,1027.71 766.426,1028.71 764.5,1030.5C 763.486,1031.67 762.153,1032.34 760.5,1032.5C 757.759,1032.71 755.426,1033.71 753.5,1035.5C 749.213,1036.65 745.213,1038.31 741.5,1040.5C 739.447,1040.4 737.78,1041.07 736.5,1042.5C 734.447,1042.4 732.78,1043.07 731.5,1044.5C 729.11,1046.02 726.443,1047.02 723.5,1047.5C 720.215,1047.93 717.215,1048.93 714.5,1050.5C 708.784,1053.07 702.784,1055.07 696.5,1056.5C 693.848,1056.41 691.515,1057.08 689.5,1058.5C 686.848,1058.41 684.515,1059.08 682.5,1060.5C 681.432,1061.43 680.099,1061.77 678.5,1061.5C 671.573,1062.57 664.906,1064.23 658.5,1066.5C 651.589,1067.22 644.923,1068.55 638.5,1070.5C 628.061,1072.81 617.394,1074.48 606.5,1075.5C 587.37,1077.15 568.37,1078.49 549.5,1079.5C 538.167,1079.5 526.833,1079.5 515.5,1079.5C 503.631,1078.69 491.631,1077.69 479.5,1076.5C 474.731,1075.11 469.731,1074.44 464.5,1074.5C 449.165,1073 434.165,1070.33 419.5,1066.5C 413.094,1064.23 406.427,1062.57 399.5,1061.5C 364.257,1052.76 330.59,1040.09 298.5,1023.5C 297.341,1021.75 295.674,1020.75 293.5,1020.5C 288.516,1018.67 283.849,1016.34 279.5,1013.5C 279.027,1012.09 278.027,1011.43 276.5,1011.5C 274.847,1011.34 273.514,1010.67 272.5,1009.5C 272.027,1008.09 271.027,1007.43 269.5,1007.5C 267.847,1007.34 266.514,1006.67 265.5,1005.5C 265.027,1004.09 264.027,1003.43 262.5,1003.5C 261.508,1003.67 260.842,1003.34 260.5,1002.5C 260.027,1001.09 259.027,1000.43 257.5,1000.5C 255.566,999.89 253.899,998.89 252.5,997.5C 252.027,996.094 251.027,995.427 249.5,995.5C 249.027,994.094 248.027,993.427 246.5,993.5C 244.566,992.89 242.899,991.89 241.5,990.5C 241.027,989.094 240.027,988.427 238.5,988.5C 227.781,982.141 217.781,974.808 208.5,966.5C 208.027,965.094 207.027,964.427 205.5,964.5C 204.5,964.167 203.833,963.5 203.5,962.5C 202.415,960.413 200.749,959.08 198.5,958.5C 197.089,956.086 195.089,954.419 192.5,953.5C 189.911,952.581 187.911,950.914 186.5,948.5C 185.089,946.086 183.089,944.419 180.5,943.5C 179.5,943.167 178.833,942.5 178.5,941.5C 175.437,937.434 171.771,934.101 167.5,931.5C 166.5,931.167 165.833,930.5 165.5,929.5C 160.167,923.5 154.5,917.833 148.5,912.5C 146.5,911.167 144.833,909.5 143.5,907.5C 142.243,904.573 140.243,902.239 137.5,900.5C 136.167,899.833 135.167,898.833 134.5,897.5C 133.92,895.251 132.587,893.585 130.5,892.5C 129.5,892.167 128.833,891.5 128.5,890.5C 128.262,888.596 127.262,887.262 125.5,886.5C 124.5,886.167 123.833,885.5 123.5,884.5C 123.262,882.596 122.262,881.262 120.5,880.5C 119.5,880.167 118.833,879.5 118.5,878.5C 118.573,876.973 117.906,875.973 116.5,875.5C 115.5,875.167 114.833,874.5 114.5,873.5C 114.573,871.973 113.906,870.973 112.5,870.5C 111.833,870.5 111.5,870.167 111.5,869.5C 111.573,867.973 110.906,866.973 109.5,866.5C 106.815,863.81 104.482,860.81 102.5,857.5C 102.573,855.973 101.906,854.973 100.5,854.5C 99.8333,854.5 99.5,854.167 99.5,853.5C 99.573,851.973 98.9063,850.973 97.5,850.5C 97.573,848.973 96.9063,847.973 95.5,847.5C 93.4776,845.469 91.8109,843.135 90.5,840.5C 90.573,838.973 89.9063,837.973 88.5,837.5C 88.573,835.973 87.9063,834.973 86.5,834.5C 83.0843,830.677 80.4176,826.343 78.5,821.5C 78.573,819.973 77.9063,818.973 76.5,818.5C 74.4405,815.76 72.7738,812.76 71.5,809.5C 71.573,807.973 70.9063,806.973 69.5,806.5C 68.3263,805.486 67.6596,804.153 67.5,802.5C 67.573,800.973 66.9063,799.973 65.5,799.5C 63.3256,796.485 61.6589,793.151 60.5,789.5C 60.573,787.973 59.9063,786.973 58.5,786.5C 56.9925,784.819 55.9925,782.819 55.5,780.5C 54.9579,777.088 53.6246,774.088 51.5,771.5C 49.659,769.151 48.3257,766.485 47.5,763.5C 47.5979,761.447 46.9313,759.78 45.5,758.5C 43.4082,755.912 42.0749,752.912 41.5,749.5C 41.5979,747.447 40.9313,745.78 39.5,744.5C 33.0897,730.323 27.7564,715.656 23.5,700.5C 23.5905,697.848 22.9238,695.515 21.5,693.5C 20.0762,691.485 19.4095,689.152 19.5,686.5C 19.5905,683.848 18.9238,681.515 17.5,679.5C 16.5655,678.432 16.2322,677.099 16.5,675.5C 16.4349,672.572 15.7682,669.905 14.5,667.5C 13.5655,666.432 13.2322,665.099 13.5,663.5C 13.5797,660.219 12.913,657.219 11.5,654.5C 11.1179,649.256 10.1179,644.256 8.5,639.5C 7.54885,638.081 7.21552,636.415 7.5,634.5C 7.37554,629.951 6.70888,625.618 5.5,621.5C 3.07775,605.787 1.07775,590.12 -0.5,574.5C -0.5,548.833 -0.5,523.167 -0.5,497.5C 16.1188,343.736 83.4522,217.57 201.5,119C 290.709,49.0821 392.043,9.24876 505.5,-0.5 Z"/></g>
<g><path style="opacity:1" fill="#fdf50b" d="M 520.5,41.5 C 672.941,39.004 801.441,92.6707 906,202.5C 1009.51,319.744 1051.51,456.411 1032,612.5C 1007.05,759.345 933.215,874.179 810.5,957C 695.247,1029.64 570.58,1052.97 436.5,1027C 300.809,995.797 194.976,922.297 119,806.5C 46.6907,688.315 25.024,561.315 54,425.5C 87.6021,293.346 161.435,190.513 275.5,117C 350.695,70.7678 432.362,45.6011 520.5,41.5 Z"/></g>
<g><path style="opacity:1" fill="#3a00f9" d="M 500.5,70.5 C 654.381,62.3777 783.881,114.044 889,225.5C 992.492,346.116 1028.83,484.782 998,641.5C 964.291,779.511 885.791,883.345 762.5,953C 665.704,1003.73 563.371,1020.06 455.5,1002C 329.987,976.702 229.82,912.535 155,809.5C 81.05,700.433 55.3834,580.766 78,450.5C 109.216,307.46 188.049,199.627 314.5,127C 372.845,95.7527 434.845,76.9193 500.5,70.5 Z"/></g>
<g><path style="opacity:0.004" fill="#dcccb3" d="M 860.5,105.5 C 862.027,105.427 863.027,106.094 863.5,107.5C 861.973,107.573 860.973,106.906 860.5,105.5 Z"/></g>
<g><path style="opacity:0.004" fill="#d2bfc6" d="M 873.5,115.5 C 875.027,115.427 876.027,116.094 876.5,117.5C 874.973,117.573 873.973,116.906 873.5,115.5 Z"/></g>
<g><path style="opacity:0.004" fill="#d9caae" d="M 878.5,119.5 C 880.027,119.427 881.027,120.094 881.5,121.5C 879.973,121.573 878.973,120.906 878.5,119.5 Z"/></g>
<g><path style="opacity:0.004" fill="#d9c8a9" d="M 883.5,123.5 C 885.749,124.08 887.415,125.413 888.5,127.5C 886.251,126.92 884.585,125.587 883.5,123.5 Z"/></g>
<g><path style="opacity:0.004" fill="#dbcbac" d="M 890.5,129.5 C 892.749,130.08 894.415,131.413 895.5,133.5C 893.251,132.92 891.585,131.587 890.5,129.5 Z"/></g>
<g><path style="opacity:0.004" fill="#dbcca0" d="M 898.5,136.5 C 900.749,137.08 902.415,138.413 903.5,140.5C 901.251,139.92 899.585,138.587 898.5,136.5 Z"/></g>
<g><path style="opacity:0.004" fill="#ded0a5" d="M 915.5,152.5 C 919.833,154.833 923.167,158.167 925.5,162.5C 921.833,159.5 918.5,156.167 915.5,152.5 Z"/></g>
<g><path style="opacity:0.004" fill="#cbb59f" d="M 935.5,172.5 C 938.243,174.239 940.243,176.573 941.5,179.5C 938.757,177.761 936.757,175.427 935.5,172.5 Z"/></g>
<g><path style="opacity:0.004" fill="#c3abad" d="M 951.5,190.5 C 953.262,191.262 954.262,192.596 954.5,194.5C 952.738,193.738 951.738,192.404 951.5,190.5 Z"/></g>
<g><path style="opacity:1" fill="#fcf50c" d="M 274.5,235.5 C 274.333,289.834 274.5,344.168 275,398.5C 275.717,397.956 276.217,397.289 276.5,396.5C 322.448,301.072 396.448,238.572 498.5,209C 592.308,186.211 680.975,198.877 764.5,247C 870.08,314.944 924.746,412.11 928.5,538.5C 925.533,662.633 872.866,759.133 770.5,828C 695.22,874.188 613.886,890.188 526.5,876C 444.276,860.156 376.442,820.323 323,756.5C 320.492,745.337 324.992,739.837 336.5,740C 337.833,740.667 339.167,741.333 340.5,742C 415.473,828.122 510.14,866.122 624.5,856C 739.818,838.623 823.651,778.123 876,674.5C 908.243,603.013 914.243,529.347 894,453.5C 860.944,346.11 791.444,273.61 685.5,236C 568.852,202.392 464.519,224.725 372.5,303C 339.726,333.233 314.059,368.567 295.5,409C 342.833,409.333 390.167,409.667 437.5,410C 444.94,414.623 446.44,420.789 442,428.5C 440.745,429.211 439.579,430.044 438.5,431C 379.224,432.655 319.891,432.988 260.5,432C 257.063,430.895 254.563,428.728 253,425.5C 252.333,360.833 252.333,296.167 253,231.5C 259.325,224 265.991,223.667 273,230.5C 274.009,232.025 274.509,233.692 274.5,235.5 Z"/></g>
<g><path style="opacity:0.004" fill="#c7b1a2" d="M 956.5,196.5 C 958.262,197.262 959.262,198.596 959.5,200.5C 957.738,199.738 956.738,198.404 956.5,196.5 Z"/></g>
<g><path style="opacity:0.004" fill="#bca2b1" d="M 964.5,206.5 C 965.906,206.973 966.573,207.973 966.5,209.5C 965.094,209.027 964.427,208.027 964.5,206.5 Z"/></g>
<g><path style="opacity:0.004" fill="#c9ab9f" d="M 969.5,213.5 C 971.587,214.585 972.92,216.251 973.5,218.5C 971.413,217.415 970.08,215.749 969.5,213.5 Z"/></g>
<g><path style="opacity:0.004" fill="#c8b18e" d="M 973.5,218.5 C 974.906,218.973 975.573,219.973 975.5,221.5C 974.094,221.027 973.427,220.027 973.5,218.5 Z"/></g>
<g><path style="opacity:0.004" fill="#c0a3a5" d="M 975.5,221.5 C 977.262,222.262 978.262,223.596 978.5,225.5C 976.738,224.738 975.738,223.404 975.5,221.5 Z"/></g>
<g><path style="opacity:0.004" fill="#bb9fa3" d="M 978.5,225.5 C 979.906,225.973 980.573,226.973 980.5,228.5C 979.094,228.027 978.427,227.027 978.5,225.5 Z"/></g>
<g><path style="opacity:1" fill="#7c53a6" d="M 274.5,235.5 C 275.167,289.167 275.833,342.833 276.5,396.5C 276.217,397.289 275.717,397.956 275,398.5C 274.5,344.168 274.333,289.834 274.5,235.5 Z"/></g>
<g><path style="opacity:0.004" fill="#b696a5" d="M 985.5,235.5 C 986.906,235.973 987.573,236.973 987.5,238.5C 986.094,238.027 985.427,237.027 985.5,235.5 Z"/></g>
<g><path style="opacity:0.004" fill="#ba9a98" d="M 987.5,238.5 C 988.906,238.973 989.573,239.973 989.5,241.5C 988.094,241.027 987.427,240.027 987.5,238.5 Z"/></g>
<g><path style="opacity:0.004" fill="#bfa39d" d="M 989.5,241.5 C 990.906,241.973 991.573,242.973 991.5,244.5C 990.094,244.027 989.427,243.027 989.5,241.5 Z"/></g>
<g><path style="opacity:0.004" fill="#c5ab9f" d="M 991.5,244.5 C 992.906,244.973 993.573,245.973 993.5,247.5C 992.094,247.027 991.427,246.027 991.5,244.5 Z"/></g>
<g><path style="opacity:0.004" fill="#cebaa6" d="M 993.5,247.5 C 994.906,247.973 995.573,248.973 995.5,250.5C 994.094,250.027 993.427,249.027 993.5,247.5 Z"/></g>
<g><path style="opacity:0.004" fill="#be9fa1" d="M 996.5,252.5 C 997.906,252.973 998.573,253.973 998.5,255.5C 997.094,255.027 996.427,254.027 996.5,252.5 Z"/></g>
<g><path style="opacity:0.004" fill="#ceb89e" d="M 998.5,255.5 C 999.906,255.973 1000.57,256.973 1000.5,258.5C 999.094,258.027 998.427,257.027 998.5,255.5 Z"/></g>
<g><path style="opacity:0.004" fill="#d2c0a1" d="M 1000.5,258.5 C 1001.91,258.973 1002.57,259.973 1002.5,261.5C 1001.09,261.027 1000.43,260.027 1000.5,258.5 Z"/></g>
<g><path style="opacity:0.004" fill="#d0bca5" d="M 1004.5,265.5 C 1005.91,265.973 1006.57,266.973 1006.5,268.5C 1005.09,268.027 1004.43,267.027 1004.5,265.5 Z"/></g>
<g><path style="opacity:0.004" fill="#b999ae" d="M 1009.5,274.5 C 1010.91,274.973 1011.57,275.973 1011.5,277.5C 1010.09,277.027 1009.43,276.027 1009.5,274.5 Z"/></g>
<g><path style="opacity:0.004" fill="#c6a9aa" d="M 1013.5,281.5 C 1014.91,281.973 1015.57,282.973 1015.5,284.5C 1014.09,284.027 1013.43,283.027 1013.5,281.5 Z"/></g>
<g><path style="opacity:1" fill="#fdf605" d="M 582.5,300.5 C 590.038,298.85 595.204,301.517 598,308.5C 598.667,386.5 598.667,464.5 598,542.5C 594.943,547.565 591.11,552.065 586.5,556C 552.534,586.298 518.867,616.964 485.5,648C 477.7,652.555 471.533,651.055 467,643.5C 466.035,639.218 466.702,635.218 469,631.5C 504.633,599.535 539.966,567.202 575,534.5C 575.333,458.833 575.667,383.167 576,307.5C 577.694,304.642 579.861,302.309 582.5,300.5 Z"/></g>
<g><path style="opacity:0.004" fill="#b98cc2" d="M 1055.5,380.5 C 1056.74,382.214 1057.41,384.214 1057.5,386.5C 1055.72,385.01 1055.05,383.01 1055.5,380.5 Z"/></g>
<g><path style="opacity:0.004" fill="#b590b4" d="M 1062.5,405.5 C 1064.26,409.547 1065.26,413.88 1065.5,418.5C 1063.74,414.453 1062.74,410.12 1062.5,405.5 Z"/></g>
<g><path style="opacity:0.004" fill="#a981be" d="M 1065.5,418.5 C 1066.91,421.219 1067.58,424.219 1067.5,427.5C 1066.09,424.781 1065.42,421.781 1065.5,418.5 Z"/></g>
<g><path style="opacity:0.004" fill="#ceb6b1" d="M 1067.5,427.5 C 1068.77,429.905 1069.43,432.572 1069.5,435.5C 1067.96,433.162 1067.29,430.495 1067.5,427.5 Z"/></g>
<g><path style="opacity:0.004" fill="#e6dbc5" d="M 1074.5,466.5 C 1076.35,476.473 1078.02,486.473 1079.5,496.5C 1079.5,508.833 1079.5,521.167 1079.5,533.5C 1078.42,511.274 1076.75,488.94 1074.5,466.5 Z"/></g>
<g><path style="opacity:1" fill="#fcf30f" d="M 213.5,496.5 C 214.5,496.5 215.5,496.5 216.5,496.5C 217.167,498.819 217.334,501.153 217,503.5C 211.919,507.998 209.252,513.664 209,520.5C 207.078,546.137 206.411,571.804 207,597.5C 206.938,602.694 209.105,606.527 213.5,609C 219.528,609.641 225.528,609.474 231.5,608.5C 231.02,613.53 230.353,618.53 229.5,623.5C 206.41,621.675 183.41,622.342 160.5,625.5C 160.917,621.165 161.417,616.832 162,612.5C 168.13,611.672 173.964,609.839 179.5,607C 182.169,603.664 183.669,599.831 184,595.5C 184.667,571.5 184.667,547.5 184,523.5C 183.167,520.667 181.333,518.833 178.5,518C 171.756,517.416 165.089,517.416 158.5,518C 157.978,517.439 157.645,516.772 157.5,516C 158.218,512.539 158.718,509.039 159,505.5C 177.32,502.86 195.486,499.86 213.5,496.5 Z"/></g>
<g><path style="opacity:1" fill="#fcf410" d="M 296.5,496.5 C 336.616,496.282 356.949,516.282 357.5,556.5C 358.842,585.666 346.842,607.166 321.5,621C 292.725,631.849 269.892,624.683 253,599.5C 244.659,579.309 243.325,558.642 249,537.5C 257.367,514.953 273.2,501.286 296.5,496.5 Z"/></g>
<g><path style="opacity:1" fill="#3b01f9" d="M 291.5,522.5 C 330.383,522.543 345.883,541.543 338,579.5C 330.399,594.061 318.233,601.061 301.5,600.5C 276.091,598.925 263.091,585.425 262.5,560C 262.606,540.066 272.272,527.566 291.5,522.5 Z"/></g>
<g><path style="opacity:0.004" fill="#dfd3ed" d="M 1079.5,562.5 C 1079.5,569.5 1079.5,576.5 1079.5,583.5C 1078.35,591.195 1077.02,598.861 1075.5,606.5C 1076.56,591.663 1077.89,576.996 1079.5,562.5 Z"/></g>
<g><path style="opacity:0.004" fill="#dccff6" d="M 5.5,621.5 C 6.70888,625.618 7.37554,629.951 7.5,634.5C 5.94622,630.433 5.27955,626.1 5.5,621.5 Z"/></g>
<g><path style="opacity:0.004" fill="#fefffe" d="M 0.5,627.5 C 1.83333,628.167 1.83333,628.167 0.5,627.5 Z"/></g>
<g><path style="opacity:0.004" fill="#fefffe" d="M 1.5,631.5 C 2.57346,632.251 2.74012,633.251 2,634.5C 1.51722,633.552 1.35055,632.552 1.5,631.5 Z"/></g>
<g><path style="opacity:0.004" fill="#fefffe" d="M 2.5,638.5 C 3.52502,638.897 3.69169,639.563 3,640.5C 2.53566,639.906 2.36899,639.239 2.5,638.5 Z"/></g>
<g><path style="opacity:0.004" fill="#cfbdf0" d="M 8.5,639.5 C 10.1179,644.256 11.1179,649.256 11.5,654.5C 9.6253,649.794 8.6253,644.794 8.5,639.5 Z"/></g>
<g><path style="opacity:0.004" fill="#fefffe" d="M 3.5,643.5 C 4.52502,643.897 4.69169,644.563 4,645.5C 3.53566,644.906 3.36899,644.239 3.5,643.5 Z"/></g>
<g><path style="opacity:0.004" fill="#fefffe" d="M 4.5,648.5 C 5.52502,648.897 5.69169,649.563 5,650.5C 4.53566,649.906 4.36899,649.239 4.5,648.5 Z"/></g>
<g><path style="opacity:0.004" fill="#fefffe" d="M 5.5,652.5 C 6.52502,652.897 6.69169,653.563 6,654.5C 5.53566,653.906 5.36899,653.239 5.5,652.5 Z"/></g>
<g><path style="opacity:0.004" fill="#fefffe" d="M 6.5,657.5 C 7.52502,657.897 7.69169,658.563 7,659.5C 6.53566,658.906 6.36899,658.239 6.5,657.5 Z"/></g>
<g><path style="opacity:0.004" fill="#d6c5f5" d="M 11.5,654.5 C 12.913,657.219 13.5797,660.219 13.5,663.5C 12.087,660.781 11.4203,657.781 11.5,654.5 Z"/></g>
<g><path style="opacity:0.004" fill="#fefffe" d="M 7.5,661.5 C 8.52502,661.897 8.69169,662.563 8,663.5C 7.53566,662.906 7.36899,662.239 7.5,661.5 Z"/></g>
<g><path style="opacity:0.004" fill="#fefffe" d="M 8.5,666.5 C 9.52502,666.897 9.69169,667.563 9,668.5C 8.53566,667.906 8.36899,667.239 8.5,666.5 Z"/></g>
<g><path style="opacity:0.004" fill="#fefffe" d="M 9.5,670.5 C 10.525,670.897 10.6917,671.563 10,672.5C 9.53566,671.906 9.36899,671.239 9.5,670.5 Z"/></g>
<g><path style="opacity:0.004" fill="#dcd0f2" d="M 14.5,667.5 C 15.7682,669.905 16.4349,672.572 16.5,675.5C 14.9605,673.162 14.2938,670.495 14.5,667.5 Z"/></g>
<g><path style="opacity:0.004" fill="#fefffe" d="M 10.5,674.5 C 11.525,674.897 11.6917,675.563 11,676.5C 10.5357,675.906 10.369,675.239 10.5,674.5 Z"/></g>
<g><path style="opacity:0.004" fill="#fefffe" d="M 11.5,678.5 C 12.8333,679.167 12.8333,679.167 11.5,678.5 Z"/></g>
<g><path style="opacity:0.004" fill="#fefffe" d="M 12.5,681.5 C 13.525,681.897 13.6917,682.563 13,683.5C 12.5357,682.906 12.369,682.239 12.5,681.5 Z"/></g>
<g><path style="opacity:0.004" fill="#dbccf7" d="M 17.5,679.5 C 18.9238,681.515 19.5905,683.848 19.5,686.5C 18.0762,684.485 17.4095,682.152 17.5,679.5 Z"/></g>
<g><path style="opacity:0.004" fill="#fefffe" d="M 13.5,685.5 C 14.525,685.897 14.6917,686.563 14,687.5C 13.5357,686.906 13.369,686.239 13.5,685.5 Z"/></g>
<g><path style="opacity:0.004" fill="#fefffe" d="M 14.5,689.5 C 15.8333,690.167 15.8333,690.167 14.5,689.5 Z"/></g>
<g><path style="opacity:0.004" fill="#fefffe" d="M 15.5,692.5 C 16.525,692.897 16.6917,693.563 16,694.5C 15.5357,693.906 15.369,693.239 15.5,692.5 Z"/></g>
<g><path style="opacity:0.004" fill="#fefffe" d="M 16.5,696.5 C 17.8333,697.167 17.8333,697.167 16.5,696.5 Z"/></g>
<g><path style="opacity:0.004" fill="#dccef3" d="M 21.5,693.5 C 22.9238,695.515 23.5905,697.848 23.5,700.5C 22.0762,698.485 21.4095,696.152 21.5,693.5 Z"/></g>
<g><path style="opacity:0.004" fill="#fefffe" d="M 17.5,699.5 C 18.525,699.897 18.6917,700.563 18,701.5C 17.5357,700.906 17.369,700.239 17.5,699.5 Z"/></g>
<g><path style="opacity:0.004" fill="#fefffe" d="M 18.5,703.5 C 19.8333,704.167 19.8333,704.167 18.5,703.5 Z"/></g>
<g><path style="opacity:0.004" fill="#fefffe" d="M 19.5,706.5 C 20.8333,707.167 20.8333,707.167 19.5,706.5 Z"/></g>
<g><path style="opacity:0.004" fill="#fefffe" d="M 20.5,709.5 C 21.8333,710.167 21.8333,710.167 20.5,709.5 Z"/></g>
<g><path style="opacity:0.004" fill="#fefffe" d="M 21.5,712.5 C 22.8333,713.167 22.8333,713.167 21.5,712.5 Z"/></g>
<g><path style="opacity:0.004" fill="#fefffe" d="M 22.5,715.5 C 23.8333,716.167 23.8333,716.167 22.5,715.5 Z"/></g>
<g><path style="opacity:0.004" fill="#fefffe" d="M 23.5,718.5 C 24.8333,719.167 24.8333,719.167 23.5,718.5 Z"/></g>
<g><path style="opacity:0.004" fill="#fefffe" d="M 24.5,720.5 C 25.8333,721.167 25.8333,721.167 24.5,720.5 Z"/></g>
<g><path style="opacity:0.004" fill="#fefffe" d="M 25.5,723.5 C 26.8333,724.167 26.8333,724.167 25.5,723.5 Z"/></g>
<g><path style="opacity:0.004" fill="#fefffe" d="M 26.5,726.5 C 27.8333,727.167 27.8333,727.167 26.5,726.5 Z"/></g>
<g><path style="opacity:0.004" fill="#fefffe" d="M 27.5,729.5 C 28.8333,730.167 28.8333,730.167 27.5,729.5 Z"/></g>
<g><path style="opacity:0.004" fill="#fefffe" d="M 28.5,731.5 C 29.8333,732.167 29.8333,732.167 28.5,731.5 Z"/></g>
<g><path style="opacity:0.004" fill="#fefffe" d="M 29.5,734.5 C 30.8333,735.167 30.8333,735.167 29.5,734.5 Z"/></g>
<g><path style="opacity:0.004" fill="#fefffe" d="M 30.5,737.5 C 31.8333,738.167 31.8333,738.167 30.5,737.5 Z"/></g>
<g><path style="opacity:0.004" fill="#fefffe" d="M 31.5,739.5 C 32.8333,740.167 32.8333,740.167 31.5,739.5 Z"/></g>
<g><path style="opacity:0.004" fill="#fefffe" d="M 32.5,742.5 C 33.8333,743.167 33.8333,743.167 32.5,742.5 Z"/></g>
<g><path style="opacity:0.004" fill="#fefffe" d="M 33.5,744.5 C 34.8333,745.167 34.8333,745.167 33.5,744.5 Z"/></g>
<g><path style="opacity:0.004" fill="#fefffe" d="M 34.5,746.5 C 35.8333,747.167 35.8333,747.167 34.5,746.5 Z"/></g>
<g><path style="opacity:0.004" fill="#d0bee5" d="M 39.5,744.5 C 40.9313,745.78 41.5979,747.447 41.5,749.5C 40.0687,748.22 39.4021,746.553 39.5,744.5 Z"/></g>
<g><path style="opacity:0.004" fill="#fefffe" d="M 35.5,749.5 C 36.8333,750.167 36.8333,750.167 35.5,749.5 Z"/></g>
<g><path style="opacity:0.004" fill="#fefffe" d="M 36.5,751.5 C 37.8333,752.167 37.8333,752.167 36.5,751.5 Z"/></g>
<g><path style="opacity:0.004" fill="#fefffe" d="M 37.5,754.5 C 38.8333,755.167 38.8333,755.167 37.5,754.5 Z"/></g>
<g><path style="opacity:0.004" fill="#fefffe" d="M 38.5,756.5 C 39.8333,757.167 39.8333,757.167 38.5,756.5 Z"/></g>
<g><path style="opacity:0.004" fill="#fefffe" d="M 39.5,758.5 C 40.8333,759.167 40.8333,759.167 39.5,758.5 Z"/></g>
<g><path style="opacity:0.004" fill="#fefffe" d="M 40.5,760.5 C 41.8333,761.167 41.8333,761.167 40.5,760.5 Z"/></g>
<g><path style="opacity:0.004" fill="#d8caf4" d="M 45.5,758.5 C 46.9313,759.78 47.5979,761.447 47.5,763.5C 46.0687,762.22 45.4021,760.553 45.5,758.5 Z"/></g>
<g><path style="opacity:0.004" fill="#fefffe" d="M 41.5,763.5 C 42.8333,764.167 42.8333,764.167 41.5,763.5 Z"/></g>
<g><path style="opacity:0.004" fill="#fefffe" d="M 42.5,765.5 C 43.8333,766.167 43.8333,766.167 42.5,765.5 Z"/></g>
<g><path style="opacity:0.004" fill="#fefffe" d="M 43.5,767.5 C 44.8333,768.167 44.8333,768.167 43.5,767.5 Z"/></g>
<g><path style="opacity:0.004" fill="#fefffe" d="M 44.5,769.5 C 45.8333,770.167 45.8333,770.167 44.5,769.5 Z"/></g>
<g><path style="opacity:0.004" fill="#fefffe" d="M 45.5,771.5 C 46.8333,772.167 46.8333,772.167 45.5,771.5 Z"/></g>
<g><path style="opacity:0.004" fill="#fefffe" d="M 46.5,774.5 C 47.8333,775.167 47.8333,775.167 46.5,774.5 Z"/></g>
<g><path style="opacity:0.004" fill="#fefffe" d="M 47.5,776.5 C 48.8333,777.167 48.8333,777.167 47.5,776.5 Z"/></g>
<g><path style="opacity:0.004" fill="#d6c7f1" d="M 51.5,771.5 C 53.6246,774.088 54.9579,777.088 55.5,780.5C 53.3754,777.912 52.0421,774.912 51.5,771.5 Z"/></g>
<g><path style="opacity:0.004" fill="#fefffe" d="M 48.5,778.5 C 49.8333,779.167 49.8333,779.167 48.5,778.5 Z"/></g>
<g><path style="opacity:0.004" fill="#fefffe" d="M 49.5,780.5 C 50.8333,781.167 50.8333,781.167 49.5,780.5 Z"/></g>
<g><path style="opacity:0.004" fill="#fefffe" d="M 50.5,782.5 C 51.8333,783.167 51.8333,783.167 50.5,782.5 Z"/></g>
<g><path style="opacity:0.004" fill="#fefffe" d="M 51.5,784.5 C 52.8333,785.167 52.8333,785.167 51.5,784.5 Z"/></g>
<g><path style="opacity:0.004" fill="#fefffe" d="M 52.5,786.5 C 53.8333,787.167 53.8333,787.167 52.5,786.5 Z"/></g>
<g><path style="opacity:0.004" fill="#fefffe" d="M 54.5,789.5 C 53.8333,788.167 53.8333,788.167 54.5,789.5 Z"/></g>
<g><path style="opacity:0.004" fill="#e1d5f7" d="M 58.5,786.5 C 59.9063,786.973 60.573,787.973 60.5,789.5C 59.0937,789.027 58.427,788.027 58.5,786.5 Z"/></g>
<g><path style="opacity:0.004" fill="#fefffe" d="M 54.5,789.5 C 55.8333,790.167 55.8333,790.167 54.5,789.5 Z"/></g>
<g><path style="opacity:0.004" fill="#fefffe" d="M 1029.5,789.5 C 1030.83,790.167 1030.83,790.167 1029.5,789.5 Z"/></g>
<g><path style="opacity:0.004" fill="#fefffe" d="M 1029.5,790.5 C 1028.96,792.593 1028.12,794.593 1027,796.5C 1026.09,793.69 1026.92,791.69 1029.5,790.5 Z"/></g>
<g><path style="opacity:0.004" fill="#fefffe" d="M 55.5,791.5 C 56.8333,792.167 56.8333,792.167 55.5,791.5 Z"/></g>
<g><path style="opacity:0.004" fill="#fefffe" d="M 56.5,793.5 C 57.8333,794.167 57.8333,794.167 56.5,793.5 Z"/></g>
<g><path style="opacity:0.004" fill="#fefffe" d="M 57.5,795.5 C 58.8333,796.167 58.8333,796.167 57.5,795.5 Z"/></g>
<g><path style="opacity:0.004" fill="#e2d7dc" d="M 1018.5,789.5 C 1017.59,792.992 1015.92,795.992 1013.5,798.5C 1014.41,795.008 1016.08,792.008 1018.5,789.5 Z"/></g>
<g><path style="opacity:0.004" fill="#fefffe" d="M 1020.5,795.5 C 1021.83,796.167 1021.83,796.167 1020.5,795.5 Z"/></g>
<g><path style="opacity:0.004" fill="#fefffe" d="M 58.5,797.5 C 59.8333,798.167 59.8333,798.167 58.5,797.5 Z"/></g>
<g><path style="opacity:0.004" fill="#fefffe" d="M 1019.5,797.5 C 1020.83,798.167 1020.83,798.167 1019.5,797.5 Z"/></g>
<g><path style="opacity:0.004" fill="#fefffe" d="M 59.5,799.5 C 60.8333,800.167 60.8333,800.167 59.5,799.5 Z"/></g>
<g><path style="opacity:0.004" fill="#fefffe" d="M 1017.5,800.5 C 1018.83,801.167 1018.83,801.167 1017.5,800.5 Z"/></g>
<g><path style="opacity:0.004" fill="#fefffe" d="M 61.5,802.5 C 60.8333,801.167 60.8333,801.167 61.5,802.5 Z"/></g>
<g><path style="opacity:0.004" fill="#e3d9f6" d="M 65.5,799.5 C 66.9063,799.973 67.573,800.973 67.5,802.5C 66.0937,802.027 65.427,801.027 65.5,799.5 Z"/></g>
<g><path style="opacity:0.004" fill="#fefffe" d="M 61.5,802.5 C 62.8333,803.167 62.8333,803.167 61.5,802.5 Z"/></g>
<g><path style="opacity:0.004" fill="#fefffe" d="M 1016.5,802.5 C 1017.83,803.167 1017.83,803.167 1016.5,802.5 Z"/></g>
<g><path style="opacity:0.004" fill="#fefffe" d="M 62.5,804.5 C 63.8333,805.167 63.8333,805.167 62.5,804.5 Z"/></g>
<g><path style="opacity:0.004" fill="#fefffe" d="M 1015.5,804.5 C 1016.83,805.167 1016.83,805.167 1015.5,804.5 Z"/></g>
<g><path style="opacity:0.004" fill="#ebe3e6" d="M 1012.5,800.5 C 1011.92,803.331 1010.59,805.664 1008.5,807.5C 1009.08,804.669 1010.41,802.336 1012.5,800.5 Z"/></g>
<g><path style="opacity:0.004" fill="#fefffe" d="M 63.5,806.5 C 64.8333,807.167 64.8333,807.167 63.5,806.5 Z"/></g>
<g><path style="opacity:0.004" fill="#fefffe" d="M 1014.5,806.5 C 1015.83,807.167 1015.83,807.167 1014.5,806.5 Z"/></g>
<g><path style="opacity:0.004" fill="#fefffe" d="M 1014.5,807.5 C 1013.83,808.167 1013.83,808.167 1014.5,807.5 Z"/></g>
<g><path style="opacity:0.004" fill="#fefffe" d="M 65.5,809.5 C 64.8333,808.167 64.8333,808.167 65.5,809.5 Z"/></g>
<g><path style="opacity:0.004" fill="#e1d5f6" d="M 69.5,806.5 C 70.9063,806.973 71.573,807.973 71.5,809.5C 70.0937,809.027 69.427,808.027 69.5,806.5 Z"/></g>
<g><path style="opacity:0.004" fill="#fefffe" d="M 65.5,809.5 C 66.8333,810.167 66.8333,810.167 65.5,809.5 Z"/></g>
<g><path style="opacity:0.004" fill="#fefffe" d="M 1012.5,809.5 C 1013.83,810.167 1013.83,810.167 1012.5,809.5 Z"/></g>
<g><path style="opacity:0.004" fill="#e7dddb" d="M 1008.5,807.5 C 1006.96,812.024 1004.62,816.024 1001.5,819.5C 1003.04,814.976 1005.38,810.976 1008.5,807.5 Z"/></g>
<g><path style="opacity:0.004" fill="#fefffe" d="M 66.5,811.5 C 67.8333,812.167 67.8333,812.167 66.5,811.5 Z"/></g>
<g><path style="opacity:0.004" fill="#fefffe" d="M 1011.5,811.5 C 1012.83,812.167 1012.83,812.167 1011.5,811.5 Z"/></g>
<g><path style="opacity:0.004" fill="#fefffe" d="M 67.5,813.5 C 68.8333,814.167 68.8333,814.167 67.5,813.5 Z"/></g>
<g><path style="opacity:0.004" fill="#fefffe" d="M 1010.5,813.5 C 1011.83,814.167 1011.83,814.167 1010.5,813.5 Z"/></g>
<g><path style="opacity:0.004" fill="#fefffe" d="M 1010.5,814.5 C 1009.83,815.167 1009.83,815.167 1010.5,814.5 Z"/></g>
<g><path style="opacity:0.004" fill="#fefffe" d="M 69.5,816.5 C 68.8333,815.167 68.8333,815.167 69.5,816.5 Z"/></g>
<g><path style="opacity:0.004" fill="#fefffe" d="M 69.5,816.5 C 70.8333,817.167 70.8333,817.167 69.5,816.5 Z"/></g>
<g><path style="opacity:0.004" fill="#fefffe" d="M 1008.5,816.5 C 1009.83,817.167 1009.83,817.167 1008.5,816.5 Z"/></g>
<g><path style="opacity:0.004" fill="#fefffe" d="M 70.5,818.5 C 71.8333,819.167 71.8333,819.167 70.5,818.5 Z"/></g>
<g><path style="opacity:0.004" fill="#fefffe" d="M 1007.5,818.5 C 1008.83,819.167 1008.83,819.167 1007.5,818.5 Z"/></g>
<g><path style="opacity:0.004" fill="#e7dff1" d="M 76.5,818.5 C 77.9063,818.973 78.573,819.973 78.5,821.5C 77.0937,821.027 76.427,820.027 76.5,818.5 Z"/></g>
<g><path style="opacity:0.004" fill="#fefffe" d="M 72.5,821.5 C 71.8333,820.167 71.8333,820.167 72.5,821.5 Z"/></g>
<g><path style="opacity:0.004" fill="#fefffe" d="M 1006.5,820.5 C 1007.83,821.167 1007.83,821.167 1006.5,820.5 Z"/></g>
<g><path style="opacity:0.004" fill="#fefffe" d="M 72.5,821.5 C 73.8333,822.167 73.8333,822.167 72.5,821.5 Z"/></g>
<g><path style="opacity:0.004" fill="#fefffe" d="M 1006.5,821.5 C 1005.83,822.167 1005.83,822.167 1006.5,821.5 Z"/></g>
<g><path style="opacity:0.004" fill="#fefffe" d="M 73.5,823.5 C 74.8333,824.167 74.8333,824.167 73.5,823.5 Z"/></g>
<g><path style="opacity:0.004" fill="#fefffe" d="M 1004.5,823.5 C 1005.83,824.167 1005.83,824.167 1004.5,823.5 Z"/></g>
<g><path style="opacity:0.004" fill="#fefffe" d="M 1004.5,824.5 C 1003.83,825.167 1003.83,825.167 1004.5,824.5 Z"/></g>
<g><path style="opacity:0.004" fill="#fefffe" d="M 75.5,826.5 C 74.8333,825.167 74.8333,825.167 75.5,826.5 Z"/></g>
<g><path style="opacity:0.004" fill="#e9e1df" d="M 1001.5,819.5 C 1000.62,822.704 998.95,825.371 996.5,827.5C 997.383,824.296 999.05,821.629 1001.5,819.5 Z"/></g>
<g><path style="opacity:0.004" fill="#fefffe" d="M 75.5,826.5 C 76.8333,827.167 76.8333,827.167 75.5,826.5 Z"/></g>
<g><path style="opacity:0.004" fill="#fefffe" d="M 1002.5,826.5 C 1003.83,827.167 1003.83,827.167 1002.5,826.5 Z"/></g>
<g><path style="opacity:0.004" fill="#fefffe" d="M 1002.5,827.5 C 1001.83,828.167 1001.83,828.167 1002.5,827.5 Z"/></g>
<g><path style="opacity:0.004" fill="#fefffe" d="M 77.5,829.5 C 76.8333,828.167 76.8333,828.167 77.5,829.5 Z"/></g>
<g><path style="opacity:0.004" fill="#e2d7e1" d="M 996.5,827.5 C 996.573,829.027 995.906,830.027 994.5,830.5C 994.427,828.973 995.094,827.973 996.5,827.5 Z"/></g>
<g><path style="opacity:0.004" fill="#fefffe" d="M 77.5,829.5 C 78.8333,830.167 78.8333,830.167 77.5,829.5 Z"/></g>
<g><path style="opacity:0.004" fill="#fefffe" d="M 1000.5,829.5 C 1001.83,830.167 1001.83,830.167 1000.5,829.5 Z"/></g>
<g><path style="opacity:0.004" fill="#fefffe" d="M 78.5,831.5 C 79.8333,832.167 79.8333,832.167 78.5,831.5 Z"/></g>
<g><path style="opacity:0.004" fill="#fefffe" d="M 999.5,831.5 C 1000.83,832.167 1000.83,832.167 999.5,831.5 Z"/></g>
<g><path style="opacity:0.004" fill="#fefffe" d="M 999.5,832.5 C 998.833,833.167 998.833,833.167 999.5,832.5 Z"/></g>
<g><path style="opacity:0.004" fill="#fefffe" d="M 80.5,834.5 C 79.8333,833.167 79.8333,833.167 80.5,834.5 Z"/></g>
<g><path style="opacity:0.004" fill="#e5dbda" d="M 994.5,830.5 C 991.489,837.197 987.489,843.197 982.5,848.5C 986.007,842.148 990.007,836.148 994.5,830.5 Z"/></g>
<g><path style="opacity:0.004" fill="#fefffe" d="M 80.5,834.5 C 81.8333,835.167 81.8333,835.167 80.5,834.5 Z"/></g>
<g><path style="opacity:0.004" fill="#fefffe" d="M 997.5,834.5 C 998.833,835.167 998.833,835.167 997.5,834.5 Z"/></g>
<g><path style="opacity:0.004" fill="#ede6f5" d="M 86.5,834.5 C 87.9063,834.973 88.573,835.973 88.5,837.5C 87.0937,837.027 86.427,836.027 86.5,834.5 Z"/></g>
<g><path style="opacity:0.004" fill="#fefffe" d="M 997.5,835.5 C 996.833,836.167 996.833,836.167 997.5,835.5 Z"/></g>
<g><path style="opacity:0.004" fill="#fefffe" d="M 82.5,837.5 C 81.8333,836.167 81.8333,836.167 82.5,837.5 Z"/></g>
<g><path style="opacity:0.004" fill="#fefffe" d="M 82.5,837.5 C 83.8333,838.167 83.8333,838.167 82.5,837.5 Z"/></g>
<g><path style="opacity:0.004" fill="#fefffe" d="M 995.5,837.5 C 996.833,838.167 996.833,838.167 995.5,837.5 Z"/></g>
<g><path style="opacity:0.004" fill="#ece6f2" d="M 88.5,837.5 C 89.9063,837.973 90.573,838.973 90.5,840.5C 89.0937,840.027 88.427,839.027 88.5,837.5 Z"/></g>
<g><path style="opacity:0.004" fill="#fefffe" d="M 995.5,838.5 C 994.833,839.167 994.833,839.167 995.5,838.5 Z"/></g>
<g><path style="opacity:0.004" fill="#fefffe" d="M 84.5,840.5 C 83.8333,839.167 83.8333,839.167 84.5,840.5 Z"/></g>
<g><path style="opacity:0.004" fill="#fefffe" d="M 84.5,840.5 C 85.8333,841.167 85.8333,841.167 84.5,840.5 Z"/></g>
<g><path style="opacity:0.004" fill="#fefffe" d="M 993.5,840.5 C 994.833,841.167 994.833,841.167 993.5,840.5 Z"/></g>
<g><path style="opacity:0.004" fill="#fefffe" d="M 993.5,841.5 C 992.833,842.167 992.833,842.167 993.5,841.5 Z"/></g>
<g><path style="opacity:0.004" fill="#fefffe" d="M 86.5,843.5 C 85.8333,842.167 85.8333,842.167 86.5,843.5 Z"/></g>
<g><path style="opacity:0.004" fill="#fefffe" d="M 86.5,843.5 C 87.8333,844.167 87.8333,844.167 86.5,843.5 Z"/></g>
<g><path style="opacity:0.004" fill="#fefffe" d="M 991.5,843.5 C 992.833,844.167 992.833,844.167 991.5,843.5 Z"/></g>
<g><path style="opacity:0.004" fill="#fefffe" d="M 991.5,844.5 C 990.833,845.167 990.833,845.167 991.5,844.5 Z"/></g>
<g><path style="opacity:0.004" fill="#fefffe" d="M 88.5,846.5 C 87.8333,845.167 87.8333,845.167 88.5,846.5 Z"/></g>
<g><path style="opacity:0.004" fill="#fefffe" d="M 88.5,846.5 C 89.8333,847.167 89.8333,847.167 88.5,846.5 Z"/></g>
<g><path style="opacity:0.004" fill="#fefffe" d="M 989.5,846.5 C 990.833,847.167 990.833,847.167 989.5,846.5 Z"/></g>
<g><path style="opacity:0.004" fill="#fefffe" d="M 989.5,847.5 C 988.833,848.167 988.833,848.167 989.5,847.5 Z"/></g>
<g><path style="opacity:0.004" fill="#fefffe" d="M 90.5,849.5 C 89.8333,848.167 89.8333,848.167 90.5,849.5 Z"/></g>
<g><path style="opacity:0.004" fill="#e0d5f3" d="M 95.5,847.5 C 96.9063,847.973 97.573,848.973 97.5,850.5C 96.0937,850.027 95.427,849.027 95.5,847.5 Z"/></g>
<g><path style="opacity:0.004" fill="#fefffe" d="M 90.5,849.5 C 91.8333,850.167 91.8333,850.167 90.5,849.5 Z"/></g>
<g><path style="opacity:0.004" fill="#e9e1de" d="M 982.5,848.5 C 982.573,850.027 981.906,851.027 980.5,851.5C 980.427,849.973 981.094,848.973 982.5,848.5 Z"/></g>
<g><path style="opacity:0.004" fill="#fefffe" d="M 987.5,849.5 C 988.833,850.167 988.833,850.167 987.5,849.5 Z"/></g>
<g><path style="opacity:0.004" fill="#fefffe" d="M 987.5,850.5 C 986.833,851.167 986.833,851.167 987.5,850.5 Z"/></g>
<g><path style="opacity:0.004" fill="#e5dcf6" d="M 97.5,850.5 C 98.9063,850.973 99.573,851.973 99.5,853.5C 98.0937,853.027 97.427,852.027 97.5,850.5 Z"/></g>
<g><path style="opacity:0.004" fill="#fefffe" d="M 93.5,853.5 C 92.8333,852.167 92.8333,852.167 93.5,853.5 Z"/></g>
<g><path style="opacity:0.004" fill="#fefffe" d="M 985.5,852.5 C 986.833,853.167 986.833,853.167 985.5,852.5 Z"/></g>
<g><path style="opacity:0.004" fill="#fefffe" d="M 93.5,853.5 C 94.8333,854.167 94.8333,854.167 93.5,853.5 Z"/></g>
<g><path style="opacity:0.004" fill="#e5dbde" d="M 980.5,851.5 C 980.262,853.404 979.262,854.738 977.5,855.5C 977.738,853.596 978.738,852.262 980.5,851.5 Z"/></g>
<g><path style="opacity:0.004" fill="#fefffe" d="M 985.5,853.5 C 984.833,854.167 984.833,854.167 985.5,853.5 Z"/></g>
<g><path style="opacity:0.004" fill="#fefffe" d="M 95.5,856.5 C 94.8333,855.167 94.8333,855.167 95.5,856.5 Z"/></g>
<g><path style="opacity:0.004" fill="#ded2f0" d="M 100.5,854.5 C 101.906,854.973 102.573,855.973 102.5,857.5C 101.094,857.027 100.427,856.027 100.5,854.5 Z"/></g>
<g><path style="opacity:0.004" fill="#fefffe" d="M 95.5,856.5 C 96.8333,857.167 96.8333,857.167 95.5,856.5 Z"/></g>
<g><path style="opacity:0.004" fill="#eae2d6" d="M 977.5,855.5 C 977.573,857.027 976.906,858.027 975.5,858.5C 975.427,856.973 976.094,855.973 977.5,855.5 Z"/></g>
<g><path style="opacity:0.004" fill="#fefffe" d="M 982.5,856.5 C 983.833,857.167 983.833,857.167 982.5,856.5 Z"/></g>
<g><path style="opacity:0.004" fill="#fefffe" d="M 982.5,857.5 C 981.833,858.167 981.833,858.167 982.5,857.5 Z"/></g>
<g><path style="opacity:0.004" fill="#fefffe" d="M 97.5,859.5 C 96.8333,858.167 96.8333,858.167 97.5,859.5 Z"/></g>
<g><path style="opacity:0.004" fill="#fefffe" d="M 97.5,859.5 C 98.8333,860.167 98.8333,860.167 97.5,859.5 Z"/></g>
<g><path style="opacity:0.004" fill="#fefffe" d="M 980.5,859.5 C 981.833,860.167 981.833,860.167 980.5,859.5 Z"/></g>
<g><path style="opacity:0.004" fill="#ece4d3" d="M 975.5,858.5 C 975.262,860.404 974.262,861.738 972.5,862.5C 972.738,860.596 973.738,859.262 975.5,858.5 Z"/></g>
<g><path style="opacity:0.004" fill="#fefffe" d="M 980.5,860.5 C 979.833,861.167 979.833,861.167 980.5,860.5 Z"/></g>
<g><path style="opacity:0.004" fill="#fefffe" d="M 100.5,863.5 C 99.8333,862.167 99.8333,862.167 100.5,863.5 Z"/></g>
<g><path style="opacity:0.004" fill="#fefffe" d="M 100.5,863.5 C 101.833,864.167 101.833,864.167 100.5,863.5 Z"/></g>
<g><path style="opacity:0.004" fill="#fefffe" d="M 977.5,863.5 C 978.833,864.167 978.833,864.167 977.5,863.5 Z"/></g>
<g><path style="opacity:0.004" fill="#ece5d8" d="M 972.5,862.5 C 972.262,864.404 971.262,865.738 969.5,866.5C 969.738,864.596 970.738,863.262 972.5,862.5 Z"/></g>
<g><path style="opacity:0.004" fill="#fefffe" d="M 977.5,864.5 C 976.833,865.167 976.833,865.167 977.5,864.5 Z"/></g>
<g><path style="opacity:0.004" fill="#fefffe" d="M 103.5,867.5 C 102.833,866.167 102.833,866.167 103.5,867.5 Z"/></g>
<g><path style="opacity:0.004" fill="#fefffe" d="M 975.5,866.5 C 976.833,867.167 976.833,867.167 975.5,866.5 Z"/></g>
<g><path style="opacity:0.004" fill="#fefffe" d="M 103.5,867.5 C 104.833,868.167 104.833,868.167 103.5,867.5 Z"/></g>
<g><path style="opacity:0.004" fill="#dbcdef" d="M 109.5,866.5 C 110.906,866.973 111.573,867.973 111.5,869.5C 110.094,869.027 109.427,868.027 109.5,866.5 Z"/></g>
<g><path style="opacity:0.004" fill="#fefffe" d="M 975.5,867.5 C 974.833,868.167 974.833,868.167 975.5,867.5 Z"/></g>
<g><path style="opacity:0.004" fill="#fefffe" d="M 974.5,868.5 C 973.833,869.167 973.833,869.167 974.5,868.5 Z"/></g>
<g><path style="opacity:0.004" fill="#e4dad4" d="M 969.5,866.5 C 968.92,868.749 967.587,870.415 965.5,871.5C 966.08,869.251 967.413,867.585 969.5,866.5 Z"/></g>
<g><path style="opacity:0.004" fill="#fefffe" d="M 106.5,871.5 C 105.833,870.167 105.833,870.167 106.5,871.5 Z"/></g>
<g><path style="opacity:0.004" fill="#fefffe" d="M 106.5,871.5 C 107.167,871.5 107.5,871.833 107.5,872.5C 107.167,872.167 106.833,871.833 106.5,871.5 Z"/></g>
<g><path style="opacity:0.004" fill="#e1d6f2" d="M 112.5,870.5 C 113.906,870.973 114.573,871.973 114.5,873.5C 113.094,873.027 112.427,872.027 112.5,870.5 Z"/></g>
<g><path style="opacity:0.004" fill="#fefffe" d="M 971.5,871.5 C 972.833,872.167 972.833,872.167 971.5,871.5 Z"/></g>
<g><path style="opacity:0.004" fill="#fefffe" d="M 107.5,872.5 C 108.833,873.167 108.833,873.167 107.5,872.5 Z"/></g>
<g><path style="opacity:0.004" fill="#fefffe" d="M 971.5,872.5 C 970.833,873.167 970.833,873.167 971.5,872.5 Z"/></g>
<g><path style="opacity:0.004" fill="#eae3de" d="M 965.5,871.5 C 965.262,873.404 964.262,874.738 962.5,875.5C 962.738,873.596 963.738,872.262 965.5,871.5 Z"/></g>
<g><path style="opacity:0.004" fill="#fefffe" d="M 970.5,873.5 C 969.833,874.167 969.833,874.167 970.5,873.5 Z"/></g>
<g><path style="opacity:0.004" fill="#fefffe" d="M 110.5,876.5 C 109.833,875.167 109.833,875.167 110.5,876.5 Z"/></g>
<g><path style="opacity:0.004" fill="#fefffe" d="M 110.5,876.5 C 111.167,876.5 111.5,876.833 111.5,877.5C 111.167,877.167 110.833,876.833 110.5,876.5 Z"/></g>
<g><path style="opacity:0.004" fill="#e1d7ef" d="M 116.5,875.5 C 117.906,875.973 118.573,876.973 118.5,878.5C 117.094,878.027 116.427,877.027 116.5,875.5 Z"/></g>
<g><path style="opacity:0.004" fill="#fefffe" d="M 967.5,876.5 C 968.833,877.167 968.833,877.167 967.5,876.5 Z"/></g>
<g><path style="opacity:0.004" fill="#fefffe" d="M 111.5,877.5 C 112.833,878.167 112.833,878.167 111.5,877.5 Z"/></g>
<g><path style="opacity:0.004" fill="#fefffe" d="M 967.5,877.5 C 966.833,878.167 966.833,878.167 967.5,877.5 Z"/></g>
<g><path style="opacity:0.004" fill="#e9dfcc" d="M 961.5,876.5 C 960.588,878.595 959.421,880.595 958,882.5C 954.945,886.624 951.445,890.291 947.5,893.5C 951.418,887.246 956.085,881.579 961.5,876.5 Z"/></g>
<g><path style="opacity:0.004" fill="#fefffe" d="M 114.5,881.5 C 113.833,880.167 113.833,880.167 114.5,881.5 Z"/></g>
<g><path style="opacity:0.004" fill="#fefffe" d="M 964.5,880.5 C 965.833,881.167 965.833,881.167 964.5,880.5 Z"/></g>
<g><path style="opacity:0.004" fill="#fefffe" d="M 114.5,881.5 C 115.167,881.5 115.5,881.833 115.5,882.5C 115.167,882.167 114.833,881.833 114.5,881.5 Z"/></g>
<g><path style="opacity:0.004" fill="#dccfe5" d="M 120.5,880.5 C 122.262,881.262 123.262,882.596 123.5,884.5C 121.738,883.738 120.738,882.404 120.5,880.5 Z"/></g>
<g><path style="opacity:0.004" fill="#fefffe" d="M 964.5,881.5 C 963.833,882.167 963.833,882.167 964.5,881.5 Z"/></g>
<g><path style="opacity:0.004" fill="#fefffe" d="M 115.5,882.5 C 116.833,883.167 116.833,883.167 115.5,882.5 Z"/></g>
<g><path style="opacity:0.004" fill="#fefffe" d="M 963.5,882.5 C 962.833,883.167 962.833,883.167 963.5,882.5 Z"/></g>
<g><path style="opacity:0.004" fill="#fefffe" d="M 118.5,886.5 C 117.833,885.167 117.833,885.167 118.5,886.5 Z"/></g>
<g><path style="opacity:0.004" fill="#fefffe" d="M 960.5,885.5 C 961.833,886.167 961.833,886.167 960.5,885.5 Z"/></g>
<g><path style="opacity:0.004" fill="#fefffe" d="M 118.5,886.5 C 119.167,886.5 119.5,886.833 119.5,887.5C 119.167,887.167 118.833,886.833 118.5,886.5 Z"/></g>
<g><path style="opacity:0.004" fill="#fefffe" d="M 960.5,886.5 C 959.833,887.167 959.833,887.167 960.5,886.5 Z"/></g>
<g><path style="opacity:0.004" fill="#fefffe" d="M 119.5,887.5 C 120.167,887.5 120.5,887.833 120.5,888.5C 120.167,888.167 119.833,887.833 119.5,887.5 Z"/></g>
<g><path style="opacity:0.004" fill="#ddd1ed" d="M 125.5,886.5 C 127.262,887.262 128.262,888.596 128.5,890.5C 126.738,889.738 125.738,888.404 125.5,886.5 Z"/></g>
<g><path style="opacity:0.004" fill="#fefffe" d="M 959.5,887.5 C 958.833,888.167 958.833,888.167 959.5,887.5 Z"/></g>
<g><path style="opacity:0.004" fill="#fefffe" d="M 120.5,888.5 C 121.833,889.167 121.833,889.167 120.5,888.5 Z"/></g>
<g><path style="opacity:0.004" fill="#fefffe" d="M 958.5,888.5 C 957.833,889.167 957.833,889.167 958.5,888.5 Z"/></g>
<g><path style="opacity:0.004" fill="#fefffe" d="M 957.5,889.5 C 956.833,890.167 956.833,890.167 957.5,889.5 Z"/></g>
<g><path style="opacity:0.004" fill="#fefffe" d="M 123.5,892.5 C 122.833,891.167 122.833,891.167 123.5,892.5 Z"/></g>
<g><path style="opacity:0.004" fill="#fefffe" d="M 123.5,892.5 C 124.167,892.5 124.5,892.833 124.5,893.5C 124.167,893.167 123.833,892.833 123.5,892.5 Z"/></g>
<g><path style="opacity:0.004" fill="#fefffe" d="M 954.5,892.5 C 955.833,893.167 955.833,893.167 954.5,892.5 Z"/></g>
<g><path style="opacity:0.004" fill="#fefffe" d="M 124.5,893.5 C 125.167,893.5 125.5,893.833 125.5,894.5C 125.167,894.167 124.833,893.833 124.5,893.5 Z"/></g>
<g><path style="opacity:0.004" fill="#ddd1f1" d="M 130.5,892.5 C 132.587,893.585 133.92,895.251 134.5,897.5C 132.413,896.415 131.08,894.749 130.5,892.5 Z"/></g>
<g><path style="opacity:0.004" fill="#fefffe" d="M 954.5,893.5 C 953.833,894.167 953.833,894.167 954.5,893.5 Z"/></g>
<g><path style="opacity:0.004" fill="#fefffe" d="M 125.5,894.5 C 126.167,894.5 126.5,894.833 126.5,895.5C 126.167,895.167 125.833,894.833 125.5,894.5 Z"/></g>
<g><path style="opacity:0.004" fill="#fefffe" d="M 953.5,894.5 C 952.833,895.167 952.833,895.167 953.5,894.5 Z"/></g>
<g><path style="opacity:0.004" fill="#fefffe" d="M 126.5,895.5 C 127.833,896.167 127.833,896.167 126.5,895.5 Z"/></g>
<g><path style="opacity:0.004" fill="#fefffe" d="M 952.5,895.5 C 951.833,896.167 951.833,896.167 952.5,895.5 Z"/></g>
<g><path style="opacity:0.004" fill="#fefffe" d="M 951.5,896.5 C 950.833,897.167 950.833,897.167 951.5,896.5 Z"/></g>
<g><path style="opacity:0.004" fill="#fefffe" d="M 129.5,899.5 C 128.833,898.167 128.833,898.167 129.5,899.5 Z"/></g>
<g><path style="opacity:0.004" fill="#fefffe" d="M 129.5,899.5 C 130.167,899.5 130.5,899.833 130.5,900.5C 130.167,900.167 129.833,899.833 129.5,899.5 Z"/></g>
<g><path style="opacity:0.004" fill="#fefffe" d="M 948.5,899.5 C 949.833,900.167 949.833,900.167 948.5,899.5 Z"/></g>
<g><path style="opacity:0.004" fill="#fefffe" d="M 130.5,900.5 C 131.167,900.5 131.5,900.833 131.5,901.5C 131.167,901.167 130.833,900.833 130.5,900.5 Z"/></g>
<g><path style="opacity:0.004" fill="#fefffe" d="M 948.5,900.5 C 947.833,901.167 947.833,901.167 948.5,900.5 Z"/></g>
<g><path style="opacity:0.004" fill="#fefffe" d="M 131.5,901.5 C 132.167,901.5 132.5,901.833 132.5,902.5C 132.167,902.167 131.833,901.833 131.5,901.5 Z"/></g>
<g><path style="opacity:0.004" fill="#dccfea" d="M 137.5,900.5 C 140.243,902.239 142.243,904.573 143.5,907.5C 140.757,905.761 138.757,903.427 137.5,900.5 Z"/></g>
<g><path style="opacity:0.004" fill="#fefffe" d="M 947.5,901.5 C 946.833,902.167 946.833,902.167 947.5,901.5 Z"/></g>
<g><path style="opacity:0.004" fill="#fefffe" d="M 132.5,902.5 C 133.167,902.5 133.5,902.833 133.5,903.5C 133.167,903.167 132.833,902.833 132.5,902.5 Z"/></g>
<g><path style="opacity:0.004" fill="#fefffe" d="M 946.5,902.5 C 945.833,903.167 945.833,903.167 946.5,902.5 Z"/></g>
<g><path style="opacity:0.004" fill="#fefffe" d="M 133.5,903.5 C 134.833,904.167 134.833,904.167 133.5,903.5 Z"/></g>
<g><path style="opacity:0.004" fill="#fefffe" d="M 945.5,903.5 C 944.833,904.167 944.833,904.167 945.5,903.5 Z"/></g>
<g><path style="opacity:0.004" fill="#fefffe" d="M 944.5,904.5 C 943.833,905.167 943.833,905.167 944.5,904.5 Z"/></g>
<g><path style="opacity:0.004" fill="#fefffe" d="M 136.5,907.5 C 135.833,906.167 135.833,906.167 136.5,907.5 Z"/></g>
<g><path style="opacity:0.004" fill="#fefffe" d="M 136.5,907.5 C 137.167,907.5 137.5,907.833 137.5,908.5C 137.167,908.167 136.833,907.833 136.5,907.5 Z"/></g>
<g><path style="opacity:0.004" fill="#fefffe" d="M 941.5,907.5 C 942.833,908.167 942.833,908.167 941.5,907.5 Z"/></g>
<g><path style="opacity:0.004" fill="#fefffe" d="M 137.5,908.5 C 138.167,908.5 138.5,908.833 138.5,909.5C 138.167,909.167 137.833,908.833 137.5,908.5 Z"/></g>
<g><path style="opacity:0.004" fill="#fefffe" d="M 941.5,908.5 C 940.833,909.167 940.833,909.167 941.5,908.5 Z"/></g>
<g><path style="opacity:0.004" fill="#fefffe" d="M 138.5,909.5 C 139.167,909.5 139.5,909.833 139.5,910.5C 139.167,910.167 138.833,909.833 138.5,909.5 Z"/></g>
<g><path style="opacity:0.004" fill="#fefffe" d="M 940.5,909.5 C 939.833,910.167 939.833,910.167 940.5,909.5 Z"/></g>
<g><path style="opacity:0.004" fill="#fefffe" d="M 139.5,910.5 C 140.167,910.5 140.5,910.833 140.5,911.5C 140.167,911.167 139.833,910.833 139.5,910.5 Z"/></g>
<g><path style="opacity:0.004" fill="#fefffe" d="M 939.5,910.5 C 938.833,911.167 938.833,911.167 939.5,910.5 Z"/></g>
<g><path style="opacity:0.004" fill="#fefffe" d="M 140.5,911.5 C 141.167,911.5 141.5,911.833 141.5,912.5C 141.167,912.167 140.833,911.833 140.5,911.5 Z"/></g>
<g><path style="opacity:0.004" fill="#fefffe" d="M 938.5,911.5 C 937.833,912.167 937.833,912.167 938.5,911.5 Z"/></g>
<g><path style="opacity:0.004" fill="#fefffe" d="M 141.5,912.5 C 142.167,912.5 142.5,912.833 142.5,913.5C 142.167,913.167 141.833,912.833 141.5,912.5 Z"/></g>
<g><path style="opacity:0.004" fill="#fefffe" d="M 937.5,912.5 C 936.833,913.167 936.833,913.167 937.5,912.5 Z"/></g>
<g><path style="opacity:0.004" fill="#fefffe" d="M 142.5,913.5 C 143.167,913.5 143.5,913.833 143.5,914.5C 143.167,914.167 142.833,913.833 142.5,913.5 Z"/></g>
<g><path style="opacity:0.004" fill="#eee8f6" d="M 148.5,912.5 C 154.5,917.833 160.167,923.5 165.5,929.5C 158.833,924.833 153.167,919.167 148.5,912.5 Z"/></g>
<g><path style="opacity:0.004" fill="#fefffe" d="M 936.5,913.5 C 935.833,914.167 935.833,914.167 936.5,913.5 Z"/></g>
<g><path style="opacity:0.004" fill="#fefffe" d="M 143.5,914.5 C 144.167,914.5 144.5,914.833 144.5,915.5C 144.167,915.167 143.833,914.833 143.5,914.5 Z"/></g>
<g><path style="opacity:0.004" fill="#fefffe" d="M 935.5,914.5 C 934.833,915.167 934.833,915.167 935.5,914.5 Z"/></g>
<g><path style="opacity:0.004" fill="#fefffe" d="M 144.5,915.5 C 145.833,916.167 145.833,916.167 144.5,915.5 Z"/></g>
<g><path style="opacity:0.004" fill="#fefffe" d="M 934.5,915.5 C 933.833,916.167 933.833,916.167 934.5,915.5 Z"/></g>
<g><path style="opacity:0.004" fill="#fefffe" d="M 933.5,916.5 C 932.833,917.167 932.833,917.167 933.5,916.5 Z"/></g>
<g><path style="opacity:0.004" fill="#fefffe" d="M 932.5,917.5 C 931.833,918.167 931.833,918.167 932.5,917.5 Z"/></g>
<g><path style="opacity:0.004" fill="#fefffe" d="M 147.5,919.5 C 146.833,918.167 146.833,918.167 147.5,919.5 Z"/></g>
<g><path style="opacity:0.004" fill="#fefffe" d="M 931.5,918.5 C 930.833,919.167 930.833,919.167 931.5,918.5 Z"/></g>
<g><path style="opacity:0.004" fill="#fefffe" d="M 147.5,919.5 C 148.167,919.5 148.5,919.833 148.5,920.5C 148.167,920.167 147.833,919.833 147.5,919.5 Z"/></g>
<g><path style="opacity:0.004" fill="#fefffe" d="M 930.5,919.5 C 929.833,920.167 929.833,920.167 930.5,919.5 Z"/></g>
<g><path style="opacity:0.004" fill="#fefffe" d="M 148.5,920.5 C 149.167,920.5 149.5,920.833 149.5,921.5C 149.167,921.167 148.833,920.833 148.5,920.5 Z"/></g>
<g><path style="opacity:0.004" fill="#fefffe" d="M 929.5,920.5 C 928.833,921.167 928.833,921.167 929.5,920.5 Z"/></g>
<g><path style="opacity:0.004" fill="#fefffe" d="M 149.5,921.5 C 150.167,921.5 150.5,921.833 150.5,922.5C 150.167,922.167 149.833,921.833 149.5,921.5 Z"/></g>
<g><path style="opacity:0.004" fill="#fefffe" d="M 928.5,921.5 C 927.833,922.167 927.833,922.167 928.5,921.5 Z"/></g>
<g><path style="opacity:0.004" fill="#fefffe" d="M 150.5,922.5 C 151.167,922.5 151.5,922.833 151.5,923.5C 151.167,923.167 150.833,922.833 150.5,922.5 Z"/></g>
<g><path style="opacity:0.004" fill="#eae1d9" d="M 947.5,893.5 C 940.606,902.57 933.106,911.237 925,919.5C 914.906,929.435 904.406,938.768 893.5,947.5C 911.833,929.833 929.833,911.833 947.5,893.5 Z"/></g>
<g><path style="opacity:0.004" fill="#fefffe" d="M 927.5,922.5 C 926.833,923.167 926.833,923.167 927.5,922.5 Z"/></g>
<g><path style="opacity:0.004" fill="#fefffe" d="M 151.5,923.5 C 152.167,923.5 152.5,923.833 152.5,924.5C 152.167,924.167 151.833,923.833 151.5,923.5 Z"/></g>
<g><path style="opacity:0.004" fill="#fefffe" d="M 926.5,923.5 C 925.833,924.167 925.833,924.167 926.5,923.5 Z"/></g>
<g><path style="opacity:0.004" fill="#fefffe" d="M 152.5,924.5 C 153.167,924.5 153.5,924.833 153.5,925.5C 153.167,925.167 152.833,924.833 152.5,924.5 Z"/></g>
<g><path style="opacity:0.004" fill="#fefffe" d="M 925.5,924.5 C 924.833,925.167 924.833,925.167 925.5,924.5 Z"/></g>
<g><path style="opacity:0.004" fill="#fefffe" d="M 153.5,925.5 C 154.167,925.5 154.5,925.833 154.5,926.5C 154.167,926.167 153.833,925.833 153.5,925.5 Z"/></g>
<g><path style="opacity:0.004" fill="#fefffe" d="M 924.5,925.5 C 923.833,926.167 923.833,926.167 924.5,925.5 Z"/></g>
<g><path style="opacity:0.004" fill="#fefffe" d="M 154.5,926.5 C 155.167,926.5 155.5,926.833 155.5,927.5C 155.167,927.167 154.833,926.833 154.5,926.5 Z"/></g>
<g><path style="opacity:0.004" fill="#fefffe" d="M 923.5,926.5 C 922.833,927.167 922.833,927.167 923.5,926.5 Z"/></g>
<g><path style="opacity:0.004" fill="#fefffe" d="M 155.5,927.5 C 156.167,927.5 156.5,927.833 156.5,928.5C 156.167,928.167 155.833,927.833 155.5,927.5 Z"/></g>
<g><path style="opacity:0.004" fill="#fefffe" d="M 922.5,927.5 C 921.833,928.167 921.833,928.167 922.5,927.5 Z"/></g>
<g><path style="opacity:0.004" fill="#fefffe" d="M 156.5,928.5 C 157.167,928.5 157.5,928.833 157.5,929.5C 157.167,929.167 156.833,928.833 156.5,928.5 Z"/></g>
<g><path style="opacity:0.004" fill="#fefffe" d="M 921.5,928.5 C 920.833,929.167 920.833,929.167 921.5,928.5 Z"/></g>
<g><path style="opacity:0.004" fill="#fefffe" d="M 157.5,929.5 C 158.167,929.5 158.5,929.833 158.5,930.5C 158.167,930.167 157.833,929.833 157.5,929.5 Z"/></g>
<g><path style="opacity:0.004" fill="#fefffe" d="M 920.5,929.5 C 919.833,930.167 919.833,930.167 920.5,929.5 Z"/></g>
<g><path style="opacity:0.004" fill="#fefffe" d="M 158.5,930.5 C 159.833,931.167 159.833,931.167 158.5,930.5 Z"/></g>
<g><path style="opacity:0.004" fill="#fefffe" d="M 919.5,930.5 C 918.833,931.167 918.833,931.167 919.5,930.5 Z"/></g>
<g><path style="opacity:0.004" fill="#fefffe" d="M 918.5,931.5 C 917.833,932.167 917.833,932.167 918.5,931.5 Z"/></g>
<g><path style="opacity:0.004" fill="#fefffe" d="M 162.5,933.5 C 161.833,932.167 161.833,932.167 162.5,933.5 Z"/></g>
<g><path style="opacity:0.004" fill="#fefffe" d="M 917.5,932.5 C 916.833,933.167 916.833,933.167 917.5,932.5 Z"/></g>
<g><path style="opacity:0.004" fill="#fefffe" d="M 162.5,933.5 C 163.167,933.5 163.5,933.833 163.5,934.5C 163.167,934.167 162.833,933.833 162.5,933.5 Z"/></g>
<g><path style="opacity:0.004" fill="#fefffe" d="M 916.5,933.5 C 915.833,934.167 915.833,934.167 916.5,933.5 Z"/></g>
<g><path style="opacity:0.004" fill="#fefffe" d="M 163.5,934.5 C 164.167,934.5 164.5,934.833 164.5,935.5C 164.167,935.167 163.833,934.833 163.5,934.5 Z"/></g>
<g><path style="opacity:0.004" fill="#fefffe" d="M 915.5,934.5 C 914.833,935.167 914.833,935.167 915.5,934.5 Z"/></g>
<g><path style="opacity:0.004" fill="#fefffe" d="M 164.5,935.5 C 165.167,935.5 165.5,935.833 165.5,936.5C 165.167,936.167 164.833,935.833 164.5,935.5 Z"/></g>
<g><path style="opacity:0.004" fill="#fefffe" d="M 914.5,935.5 C 913.833,936.167 913.833,936.167 914.5,935.5 Z"/></g>
<g><path style="opacity:0.004" fill="#fefffe" d="M 165.5,936.5 C 166.167,936.5 166.5,936.833 166.5,937.5C 166.167,937.167 165.833,936.833 165.5,936.5 Z"/></g>
<g><path style="opacity:0.004" fill="#fefffe" d="M 913.5,936.5 C 912.833,937.167 912.833,937.167 913.5,936.5 Z"/></g>
<g><path style="opacity:0.004" fill="#fefffe" d="M 166.5,937.5 C 167.167,937.5 167.5,937.833 167.5,938.5C 167.167,938.167 166.833,937.833 166.5,937.5 Z"/></g>
<g><path style="opacity:0.004" fill="#fefffe" d="M 912.5,937.5 C 911.833,938.167 911.833,938.167 912.5,937.5 Z"/></g>
<g><path style="opacity:0.004" fill="#fefffe" d="M 167.5,938.5 C 168.167,938.5 168.5,938.833 168.5,939.5C 168.167,939.167 167.833,938.833 167.5,938.5 Z"/></g>
<g><path style="opacity:0.004" fill="#fefffe" d="M 911.5,938.5 C 910.833,939.167 910.833,939.167 911.5,938.5 Z"/></g>
<g><path style="opacity:0.004" fill="#fefffe" d="M 168.5,939.5 C 169.167,939.5 169.5,939.833 169.5,940.5C 169.167,940.167 168.833,939.833 168.5,939.5 Z"/></g>
<g><path style="opacity:0.004" fill="#d5c5e6" d="M 167.5,931.5 C 171.771,934.101 175.437,937.434 178.5,941.5C 174.229,938.899 170.563,935.566 167.5,931.5 Z"/></g>
<g><path style="opacity:0.004" fill="#fefffe" d="M 910.5,939.5 C 909.833,940.167 909.833,940.167 910.5,939.5 Z"/></g>
<g><path style="opacity:0.004" fill="#fefffe" d="M 169.5,940.5 C 170.167,940.5 170.5,940.833 170.5,941.5C 170.167,941.167 169.833,940.833 169.5,940.5 Z"/></g>
<g><path style="opacity:0.004" fill="#fefffe" d="M 909.5,940.5 C 908.833,941.167 908.833,941.167 909.5,940.5 Z"/></g>
<g><path style="opacity:0.004" fill="#fefffe" d="M 170.5,941.5 C 171.167,941.5 171.5,941.833 171.5,942.5C 171.167,942.167 170.833,941.833 170.5,941.5 Z"/></g>
<g><path style="opacity:0.004" fill="#fefffe" d="M 908.5,941.5 C 907.833,942.167 907.833,942.167 908.5,941.5 Z"/></g>
<g><path style="opacity:0.004" fill="#fefffe" d="M 171.5,942.5 C 172.833,943.167 172.833,943.167 171.5,942.5 Z"/></g>
<g><path style="opacity:0.004" fill="#fefffe" d="M 904.5,943.5 C 905.833,944.167 905.833,944.167 904.5,943.5 Z"/></g>
<g><path style="opacity:0.004" fill="#fefffe" d="M 175.5,945.5 C 174.833,944.167 174.833,944.167 175.5,945.5 Z"/></g>
<g><path style="opacity:0.004" fill="#fefffe" d="M 904.5,944.5 C 903.833,945.167 903.833,945.167 904.5,944.5 Z"/></g>
<g><path style="opacity:0.004" fill="#fefffe" d="M 175.5,945.5 C 176.167,945.5 176.5,945.833 176.5,946.5C 176.167,946.167 175.833,945.833 175.5,945.5 Z"/></g>
<g><path style="opacity:0.004" fill="#fefffe" d="M 903.5,945.5 C 902.833,946.167 902.833,946.167 903.5,945.5 Z"/></g>
<g><path style="opacity:0.004" fill="#fefffe" d="M 176.5,946.5 C 177.167,946.5 177.5,946.833 177.5,947.5C 177.167,947.167 176.833,946.833 176.5,946.5 Z"/></g>
<g><path style="opacity:0.004" fill="#cfbeeb" d="M 180.5,943.5 C 183.089,944.419 185.089,946.086 186.5,948.5C 183.911,947.581 181.911,945.914 180.5,943.5 Z"/></g>
<g><path style="opacity:0.004" fill="#fefffe" d="M 902.5,946.5 C 901.833,947.167 901.833,947.167 902.5,946.5 Z"/></g>
<g><path style="opacity:0.004" fill="#fefffe" d="M 177.5,947.5 C 178.167,947.5 178.5,947.833 178.5,948.5C 178.167,948.167 177.833,947.833 177.5,947.5 Z"/></g>
<g><path style="opacity:0.004" fill="#fefffe" d="M 901.5,947.5 C 900.833,948.167 900.833,948.167 901.5,947.5 Z"/></g>
<g><path style="opacity:0.004" fill="#fefffe" d="M 178.5,948.5 C 179.167,948.5 179.5,948.833 179.5,949.5C 179.167,949.167 178.833,948.833 178.5,948.5 Z"/></g>
<g><path style="opacity:0.004" fill="#fefffe" d="M 900.5,948.5 C 899.833,949.167 899.833,949.167 900.5,948.5 Z"/></g>
<g><path style="opacity:0.004" fill="#fefffe" d="M 179.5,949.5 C 180.833,950.167 180.833,950.167 179.5,949.5 Z"/></g>
<g><path style="opacity:0.004" fill="#fefffe" d="M 896.5,950.5 C 897.833,951.167 897.833,951.167 896.5,950.5 Z"/></g>
<g><path style="opacity:0.004" fill="#fefffe" d="M 183.5,952.5 C 182.833,951.167 182.833,951.167 183.5,952.5 Z"/></g>
<g><path style="opacity:0.004" fill="#fefffe" d="M 896.5,951.5 C 895.833,952.167 895.833,952.167 896.5,951.5 Z"/></g>
<g><path style="opacity:0.004" fill="#fefffe" d="M 183.5,952.5 C 184.167,952.5 184.5,952.833 184.5,953.5C 184.167,953.167 183.833,952.833 183.5,952.5 Z"/></g>
<g><path style="opacity:0.004" fill="#fefffe" d="M 895.5,952.5 C 894.833,953.167 894.833,953.167 895.5,952.5 Z"/></g>
<g><path style="opacity:0.004" fill="#fefffe" d="M 184.5,953.5 C 185.167,953.5 185.5,953.833 185.5,954.5C 185.167,954.167 184.833,953.833 184.5,953.5 Z"/></g>
<g><path style="opacity:0.004" fill="#fefffe" d="M 894.5,953.5 C 893.833,954.167 893.833,954.167 894.5,953.5 Z"/></g>
<g><path style="opacity:0.004" fill="#fefffe" d="M 185.5,954.5 C 186.167,954.5 186.5,954.833 186.5,955.5C 186.167,955.167 185.833,954.833 185.5,954.5 Z"/></g>
<g><path style="opacity:0.004" fill="#fefffe" d="M 893.5,954.5 C 892.833,955.167 892.833,955.167 893.5,954.5 Z"/></g>
<g><path style="opacity:0.004" fill="#fefffe" d="M 186.5,955.5 C 187.833,956.167 187.833,956.167 186.5,955.5 Z"/></g>
<g><path style="opacity:0.004" fill="#fefffe" d="M 892.5,955.5 C 891.833,956.167 891.833,956.167 892.5,955.5 Z"/></g>
<g><path style="opacity:0.004" fill="#bda1d1" d="M 192.5,953.5 C 195.089,954.419 197.089,956.086 198.5,958.5C 195.911,957.581 193.911,955.914 192.5,953.5 Z"/></g>
<g><path style="opacity:0.004" fill="#fefffe" d="M 190.5,958.5 C 189.833,957.167 189.833,957.167 190.5,958.5 Z"/></g>
<g><path style="opacity:0.004" fill="#fefffe" d="M 888.5,957.5 C 889.833,958.167 889.833,958.167 888.5,957.5 Z"/></g>
<g><path style="opacity:0.004" fill="#fefffe" d="M 190.5,958.5 C 191.167,958.5 191.5,958.833 191.5,959.5C 191.167,959.167 190.833,958.833 190.5,958.5 Z"/></g>
<g><path style="opacity:0.004" fill="#ece3cb" d="M 893.5,947.5 C 887.044,954.628 879.71,960.628 871.5,965.5C 878.537,959.129 885.871,953.129 893.5,947.5 Z"/></g>
<g><path style="opacity:0.004" fill="#fefffe" d="M 888.5,958.5 C 887.833,959.167 887.833,959.167 888.5,958.5 Z"/></g>
<g><path style="opacity:0.004" fill="#fefffe" d="M 191.5,959.5 C 192.167,959.5 192.5,959.833 192.5,960.5C 192.167,960.167 191.833,959.833 191.5,959.5 Z"/></g>
<g><path style="opacity:0.004" fill="#fefffe" d="M 887.5,959.5 C 886.833,960.167 886.833,960.167 887.5,959.5 Z"/></g>
<g><path style="opacity:0.004" fill="#fefffe" d="M 192.5,960.5 C 193.833,961.167 193.833,961.167 192.5,960.5 Z"/></g>
<g><path style="opacity:0.004" fill="#fefffe" d="M 886.5,960.5 C 885.833,961.167 885.833,961.167 886.5,960.5 Z"/></g>
<g><path style="opacity:0.004" fill="#c1a8dd" d="M 198.5,958.5 C 200.749,959.08 202.415,960.413 203.5,962.5C 201.251,961.92 199.585,960.587 198.5,958.5 Z"/></g>
<g><path style="opacity:0.004" fill="#fefffe" d="M 196.5,963.5 C 195.833,962.167 195.833,962.167 196.5,963.5 Z"/></g>
<g><path style="opacity:0.004" fill="#fefffe" d="M 882.5,962.5 C 883.833,963.167 883.833,963.167 882.5,962.5 Z"/></g>
<g><path style="opacity:0.004" fill="#fefffe" d="M 196.5,963.5 C 197.167,963.5 197.5,963.833 197.5,964.5C 197.167,964.167 196.833,963.833 196.5,963.5 Z"/></g>
<g><path style="opacity:0.004" fill="#fefffe" d="M 882.5,963.5 C 881.833,964.167 881.833,964.167 882.5,963.5 Z"/></g>
<g><path style="opacity:0.004" fill="#fefffe" d="M 197.5,964.5 C 198.167,964.5 198.5,964.833 198.5,965.5C 198.167,965.167 197.833,964.833 197.5,964.5 Z"/></g>
<g><path style="opacity:0.004" fill="#fefffe" d="M 881.5,964.5 C 880.833,965.167 880.833,965.167 881.5,964.5 Z"/></g>
<g><path style="opacity:0.004" fill="#fefffe" d="M 198.5,965.5 C 199.833,966.167 199.833,966.167 198.5,965.5 Z"/></g>
<g><path style="opacity:0.004" fill="#d1c1e6" d="M 205.5,964.5 C 207.027,964.427 208.027,965.094 208.5,966.5C 206.973,966.573 205.973,965.906 205.5,964.5 Z"/></g>
<g><path style="opacity:0.004" fill="#fefffe" d="M 877.5,966.5 C 878.833,967.167 878.833,967.167 877.5,966.5 Z"/></g>
<g><path style="opacity:0.004" fill="#fefffe" d="M 202.5,968.5 C 201.833,967.167 201.833,967.167 202.5,968.5 Z"/></g>
<g><path style="opacity:0.004" fill="#fefffe" d="M 877.5,967.5 C 876.833,968.167 876.833,968.167 877.5,967.5 Z"/></g>
<g><path style="opacity:0.004" fill="#fefffe" d="M 202.5,968.5 C 203.167,968.5 203.5,968.833 203.5,969.5C 203.167,969.167 202.833,968.833 202.5,968.5 Z"/></g>
<g><path style="opacity:0.004" fill="#fefffe" d="M 876.5,968.5 C 875.833,969.167 875.833,969.167 876.5,968.5 Z"/></g>
<g><path style="opacity:0.004" fill="#fefffe" d="M 203.5,969.5 C 204.833,970.167 204.833,970.167 203.5,969.5 Z"/></g>
<g><path style="opacity:0.004" fill="#fefffe" d="M 872.5,970.5 C 873.833,971.167 873.833,971.167 872.5,970.5 Z"/></g>
<g><path style="opacity:0.004" fill="#fefffe" d="M 207.5,972.5 C 206.833,971.167 206.833,971.167 207.5,972.5 Z"/></g>
<g><path style="opacity:0.004" fill="#fefffe" d="M 872.5,971.5 C 871.833,972.167 871.833,972.167 872.5,971.5 Z"/></g>
<g><path style="opacity:0.004" fill="#fefffe" d="M 207.5,972.5 C 208.833,973.167 208.833,973.167 207.5,972.5 Z"/></g>
<g><path style="opacity:0.004" fill="#fefffe" d="M 868.5,973.5 C 869.833,974.167 869.833,974.167 868.5,973.5 Z"/></g>
<g><path style="opacity:0.004" fill="#fefffe" d="M 211.5,975.5 C 210.833,974.167 210.833,974.167 211.5,975.5 Z"/></g>
<g><path style="opacity:0.004" fill="#fefffe" d="M 868.5,974.5 C 867.833,975.167 867.833,975.167 868.5,974.5 Z"/></g>
<g><path style="opacity:0.004" fill="#fefffe" d="M 211.5,975.5 C 212.833,976.167 212.833,976.167 211.5,975.5 Z"/></g>
<g><path style="opacity:0.004" fill="#eadfc2" d="M 871.5,965.5 C 864.683,972.317 857.017,977.983 848.5,982.5C 855.88,976.455 863.546,970.788 871.5,965.5 Z"/></g>
<g><path style="opacity:0.004" fill="#fefffe" d="M 867.5,975.5 C 866.833,976.167 866.833,976.167 867.5,975.5 Z"/></g>
<g><path style="opacity:0.004" fill="#fefffe" d="M 215.5,978.5 C 214.833,977.167 214.833,977.167 215.5,978.5 Z"/></g>
<g><path style="opacity:0.004" fill="#fefffe" d="M 863.5,977.5 C 864.833,978.167 864.833,978.167 863.5,977.5 Z"/></g>
<g><path style="opacity:0.004" fill="#fefffe" d="M 215.5,978.5 C 216.833,979.167 216.833,979.167 215.5,978.5 Z"/></g>
<g><path style="opacity:0.004" fill="#fefffe" d="M 863.5,978.5 C 862.833,979.167 862.833,979.167 863.5,978.5 Z"/></g>
<g><path style="opacity:0.004" fill="#fefffe" d="M 218.5,980.5 C 217.833,979.167 217.833,979.167 218.5,980.5 Z"/></g>
<g><path style="opacity:0.004" fill="#fefffe" d="M 860.5,979.5 C 861.833,980.167 861.833,980.167 860.5,979.5 Z"/></g>
<g><path style="opacity:0.004" fill="#fefffe" d="M 218.5,980.5 C 219.833,981.167 219.833,981.167 218.5,980.5 Z"/></g>
<g><path style="opacity:0.004" fill="#fefffe" d="M 860.5,980.5 C 859.833,981.167 859.833,981.167 860.5,980.5 Z"/></g>
<g><path style="opacity:0.004" fill="#fefffe" d="M 857.5,981.5 C 858.833,982.167 858.833,982.167 857.5,981.5 Z"/></g>
<g><path style="opacity:0.004" fill="#fefffe" d="M 222.5,983.5 C 221.833,982.167 221.833,982.167 222.5,983.5 Z"/></g>
<g><path style="opacity:0.004" fill="#fefffe" d="M 857.5,982.5 C 856.833,983.167 856.833,983.167 857.5,982.5 Z"/></g>
<g><path style="opacity:0.004" fill="#fefffe" d="M 222.5,983.5 C 223.833,984.167 223.833,984.167 222.5,983.5 Z"/></g>
<g><path style="opacity:0.004" fill="#eae1d8" d="M 848.5,982.5 C 846.704,984.9 844.37,986.567 841.5,987.5C 843.296,985.1 845.63,983.433 848.5,982.5 Z"/></g>
<g><path style="opacity:0.004" fill="#fefffe" d="M 225.5,985.5 C 224.833,984.167 224.833,984.167 225.5,985.5 Z"/></g>
<g><path style="opacity:0.004" fill="#fefffe" d="M 853.5,984.5 C 854.833,985.167 854.833,985.167 853.5,984.5 Z"/></g>
<g><path style="opacity:0.004" fill="#fefffe" d="M 225.5,985.5 C 226.833,986.167 226.833,986.167 225.5,985.5 Z"/></g>
<g><path style="opacity:0.004" fill="#fefffe" d="M 853.5,985.5 C 852.833,986.167 852.833,986.167 853.5,985.5 Z"/></g>
<g><path style="opacity:0.004" fill="#fefffe" d="M 850.5,986.5 C 851.833,987.167 851.833,987.167 850.5,986.5 Z"/></g>
<g><path style="opacity:0.004" fill="#fefffe" d="M 229.5,988.5 C 228.833,987.167 228.833,987.167 229.5,988.5 Z"/></g>
<g><path style="opacity:0.004" fill="#fefffe" d="M 850.5,987.5 C 849.833,988.167 849.833,988.167 850.5,987.5 Z"/></g>
<g><path style="opacity:0.004" fill="#fefffe" d="M 229.5,988.5 C 230.833,989.167 230.833,989.167 229.5,988.5 Z"/></g>
<g><path style="opacity:0.004" fill="#ece4d7" d="M 841.5,987.5 C 838.35,990.579 834.683,992.913 830.5,994.5C 833.65,991.421 837.317,989.087 841.5,987.5 Z"/></g>
<g><path style="opacity:0.004" fill="#fefffe" d="M 847.5,988.5 C 848.833,989.167 848.833,989.167 847.5,988.5 Z"/></g>
<g><path style="opacity:0.004" fill="#fefffe" d="M 232.5,990.5 C 231.833,989.167 231.833,989.167 232.5,990.5 Z"/></g>
<g><path style="opacity:0.004" fill="#e4dbed" d="M 238.5,988.5 C 240.027,988.427 241.027,989.094 241.5,990.5C 239.973,990.573 238.973,989.906 238.5,988.5 Z"/></g>
<g><path style="opacity:0.004" fill="#fefffe" d="M 847.5,989.5 C 846.833,990.167 846.833,990.167 847.5,989.5 Z"/></g>
<g><path style="opacity:0.004" fill="#fefffe" d="M 232.5,990.5 C 233.833,991.167 233.833,991.167 232.5,990.5 Z"/></g>
<g><path style="opacity:0.004" fill="#fefffe" d="M 844.5,990.5 C 845.833,991.167 845.833,991.167 844.5,990.5 Z"/></g>
<g><path style="opacity:0.004" fill="#fefffe" d="M 235.5,992.5 C 234.833,991.167 234.833,991.167 235.5,992.5 Z"/></g>
<g><path style="opacity:0.004" fill="#fefffe" d="M 844.5,991.5 C 843.833,992.167 843.833,992.167 844.5,991.5 Z"/></g>
<g><path style="opacity:0.004" fill="#fefffe" d="M 235.5,992.5 C 236.833,993.167 236.833,993.167 235.5,992.5 Z"/></g>
<g><path style="opacity:0.004" fill="#fefffe" d="M 841.5,992.5 C 842.833,993.167 842.833,993.167 841.5,992.5 Z"/></g>
<g><path style="opacity:0.004" fill="#fefffe" d="M 238.5,994.5 C 237.833,993.167 237.833,993.167 238.5,994.5 Z"/></g>
<g><path style="opacity:0.004" fill="#fefffe" d="M 841.5,993.5 C 840.833,994.167 840.833,994.167 841.5,993.5 Z"/></g>
<g><path style="opacity:0.004" fill="#fefffe" d="M 238.5,994.5 C 239.833,995.167 239.833,995.167 238.5,994.5 Z"/></g>
<g><path style="opacity:0.004" fill="#d4c4eb" d="M 246.5,993.5 C 248.027,993.427 249.027,994.094 249.5,995.5C 247.973,995.573 246.973,994.906 246.5,993.5 Z"/></g>
<g><path style="opacity:0.004" fill="#fefffe" d="M 838.5,994.5 C 839.833,995.167 839.833,995.167 838.5,994.5 Z"/></g>
<g><path style="opacity:0.004" fill="#fefffe" d="M 241.5,996.5 C 240.833,995.167 240.833,995.167 241.5,996.5 Z"/></g>
<g><path style="opacity:0.004" fill="#ece5d8" d="M 830.5,994.5 C 830.027,995.906 829.027,996.573 827.5,996.5C 827.973,995.094 828.973,994.427 830.5,994.5 Z"/></g>
<g><path style="opacity:0.004" fill="#fefffe" d="M 838.5,995.5 C 837.833,996.167 837.833,996.167 838.5,995.5 Z"/></g>
<g><path style="opacity:0.004" fill="#fefffe" d="M 241.5,996.5 C 242.833,997.167 242.833,997.167 241.5,996.5 Z"/></g>
<g><path style="opacity:0.004" fill="#ded3f2" d="M 249.5,995.5 C 251.027,995.427 252.027,996.094 252.5,997.5C 250.973,997.573 249.973,996.906 249.5,995.5 Z"/></g>
<g><path style="opacity:0.004" fill="#fefffe" d="M 835.5,996.5 C 836.833,997.167 836.833,997.167 835.5,996.5 Z"/></g>
<g><path style="opacity:0.004" fill="#fefffe" d="M 243.5,997.5 C 244.833,998.167 244.833,998.167 243.5,997.5 Z"/></g>
<g><path style="opacity:0.004" fill="#eee8e0" d="M 827.5,996.5 C 825.371,998.95 822.704,1000.62 819.5,1001.5C 821.629,999.05 824.296,997.383 827.5,996.5 Z"/></g>
<g><path style="opacity:0.004" fill="#fefffe" d="M 835.5,997.5 C 834.833,998.167 834.833,998.167 835.5,997.5 Z"/></g>
<g><path style="opacity:0.004" fill="#fefffe" d="M 246.5,999.5 C 245.833,998.167 245.833,998.167 246.5,999.5 Z"/></g>
<g><path style="opacity:0.004" fill="#fefffe" d="M 832.5,998.5 C 833.833,999.167 833.833,999.167 832.5,998.5 Z"/></g>
<g><path style="opacity:0.004" fill="#fefffe" d="M 246.5,999.5 C 247.833,1000.17 247.833,1000.17 246.5,999.5 Z"/></g>
<g><path style="opacity:0.004" fill="#fefffe" d="M 832.5,999.5 C 831.833,1000.17 831.833,1000.17 832.5,999.5 Z"/></g>
<g><path style="opacity:0.004" fill="#fefffe" d="M 249.5,1001.5 C 248.833,1000.17 248.833,1000.17 249.5,1001.5 Z"/></g>
<g><path style="opacity:0.004" fill="#fefffe" d="M 829.5,1000.5 C 830.833,1001.17 830.833,1001.17 829.5,1000.5 Z"/></g>
<g><path style="opacity:0.004" fill="#fefffe" d="M 249.5,1001.5 C 250.833,1002.17 250.833,1002.17 249.5,1001.5 Z"/></g>
<g><path style="opacity:0.004" fill="#d9cbed" d="M 257.5,1000.5 C 259.027,1000.43 260.027,1001.09 260.5,1002.5C 258.973,1002.57 257.973,1001.91 257.5,1000.5 Z"/></g>
<g><path style="opacity:0.004" fill="#fefffe" d="M 827.5,1001.5 C 828.833,1002.17 828.833,1002.17 827.5,1001.5 Z"/></g>
<g><path style="opacity:0.004" fill="#fefffe" d="M 252.5,1003.5 C 251.833,1002.17 251.833,1002.17 252.5,1003.5 Z"/></g>
<g><path style="opacity:0.004" fill="#fefffe" d="M 827.5,1002.5 C 826.833,1003.17 826.833,1003.17 827.5,1002.5 Z"/></g>
<g><path style="opacity:0.004" fill="#fefffe" d="M 252.5,1003.5 C 253.833,1004.17 253.833,1004.17 252.5,1003.5 Z"/></g>
<g><path style="opacity:0.004" fill="#fefffe" d="M 824.5,1003.5 C 825.833,1004.17 825.833,1004.17 824.5,1003.5 Z"/></g>
<g><path style="opacity:0.004" fill="#fefffe" d="M 254.5,1004.5 C 255.833,1005.17 255.833,1005.17 254.5,1004.5 Z"/></g>
<g><path style="opacity:0.004" fill="#e2d9ef" d="M 262.5,1003.5 C 264.027,1003.43 265.027,1004.09 265.5,1005.5C 263.973,1005.57 262.973,1004.91 262.5,1003.5 Z"/></g>
<g><path style="opacity:0.004" fill="#fefffe" d="M 824.5,1004.5 C 823.833,1005.17 823.833,1005.17 824.5,1004.5 Z"/></g>
<g><path style="opacity:0.004" fill="#fefffe" d="M 257.5,1006.5 C 256.833,1005.17 256.833,1005.17 257.5,1006.5 Z"/></g>
<g><path style="opacity:0.004" fill="#eee6da" d="M 819.5,1001.5 C 816.024,1004.62 812.024,1006.96 807.5,1008.5C 810.976,1005.38 814.976,1003.04 819.5,1001.5 Z"/></g>
<g><path style="opacity:0.004" fill="#fefffe" d="M 821.5,1005.5 C 822.833,1006.17 822.833,1006.17 821.5,1005.5 Z"/></g>
<g><path style="opacity:0.004" fill="#fefffe" d="M 257.5,1006.5 C 258.833,1007.17 258.833,1007.17 257.5,1006.5 Z"/></g>
<g><path style="opacity:0.004" fill="#fefffe" d="M 819.5,1006.5 C 820.833,1007.17 820.833,1007.17 819.5,1006.5 Z"/></g>
<g><path style="opacity:0.004" fill="#fefffe" d="M 259.5,1007.5 C 260.833,1008.17 260.833,1008.17 259.5,1007.5 Z"/></g>
<g><path style="opacity:0.004" fill="#fefffe" d="M 819.5,1007.5 C 818.833,1008.17 818.833,1008.17 819.5,1007.5 Z"/></g>
<g><path style="opacity:0.004" fill="#fefffe" d="M 262.5,1009.5 C 261.833,1008.17 261.833,1008.17 262.5,1009.5 Z"/></g>
<g><path style="opacity:0.004" fill="#ddd1f2" d="M 269.5,1007.5 C 271.027,1007.43 272.027,1008.09 272.5,1009.5C 270.973,1009.57 269.973,1008.91 269.5,1007.5 Z"/></g>
<g><path style="opacity:0.004" fill="#fefffe" d="M 816.5,1008.5 C 817.833,1009.17 817.833,1009.17 816.5,1008.5 Z"/></g>
<g><path style="opacity:0.004" fill="#fefffe" d="M 262.5,1009.5 C 263.833,1010.17 263.833,1010.17 262.5,1009.5 Z"/></g>
<g><path style="opacity:0.004" fill="#ebe4da" d="M 807.5,1008.5 C 805.664,1010.59 803.331,1011.92 800.5,1012.5C 802.336,1010.41 804.669,1009.08 807.5,1008.5 Z"/></g>
<g><path style="opacity:0.004" fill="#fefffe" d="M 814.5,1009.5 C 815.833,1010.17 815.833,1010.17 814.5,1009.5 Z"/></g>
<g><path style="opacity:0.004" fill="#fefffe" d="M 264.5,1010.5 C 265.833,1011.17 265.833,1011.17 264.5,1010.5 Z"/></g>
<g><path style="opacity:0.004" fill="#fefffe" d="M 814.5,1010.5 C 813.833,1011.17 813.833,1011.17 814.5,1010.5 Z"/></g>
<g><path style="opacity:0.004" fill="#fefffe" d="M 266.5,1011.5 C 267.833,1012.17 267.833,1012.17 266.5,1011.5 Z"/></g>
<g><path style="opacity:0.004" fill="#fefffe" d="M 811.5,1011.5 C 812.833,1012.17 812.833,1012.17 811.5,1011.5 Z"/></g>
<g><path style="opacity:0.004" fill="#fefffe" d="M 269.5,1013.5 C 268.833,1012.17 268.833,1012.17 269.5,1013.5 Z"/></g>
<g><path style="opacity:0.004" fill="#ded3f2" d="M 276.5,1011.5 C 278.027,1011.43 279.027,1012.09 279.5,1013.5C 277.973,1013.57 276.973,1012.91 276.5,1011.5 Z"/></g>
<g><path style="opacity:0.004" fill="#fefffe" d="M 809.5,1012.5 C 810.833,1013.17 810.833,1013.17 809.5,1012.5 Z"/></g>
<g><path style="opacity:0.004" fill="#fefffe" d="M 269.5,1013.5 C 270.833,1014.17 270.833,1014.17 269.5,1013.5 Z"/></g>
<g><path style="opacity:0.004" fill="#fefffe" d="M 807.5,1013.5 C 808.833,1014.17 808.833,1014.17 807.5,1013.5 Z"/></g>
<g><path style="opacity:0.004" fill="#fefffe" d="M 271.5,1014.5 C 272.833,1015.17 272.833,1015.17 271.5,1014.5 Z"/></g>
<g><path style="opacity:0.004" fill="#fefffe" d="M 807.5,1014.5 C 806.833,1015.17 806.833,1015.17 807.5,1014.5 Z"/></g>
<g><path style="opacity:0.004" fill="#fefffe" d="M 273.5,1015.5 C 274.833,1016.17 274.833,1016.17 273.5,1015.5 Z"/></g>
<g><path style="opacity:0.004" fill="#fefffe" d="M 804.5,1015.5 C 805.833,1016.17 805.833,1016.17 804.5,1015.5 Z"/></g>
<g><path style="opacity:0.004" fill="#fefffe" d="M 276.5,1017.5 C 275.833,1016.17 275.833,1016.17 276.5,1017.5 Z"/></g>
<g><path style="opacity:0.004" fill="#fefffe" d="M 802.5,1016.5 C 803.833,1017.17 803.833,1017.17 802.5,1016.5 Z"/></g>
<g><path style="opacity:0.004" fill="#fefffe" d="M 276.5,1017.5 C 277.833,1018.17 277.833,1018.17 276.5,1017.5 Z"/></g>
<g><path style="opacity:0.004" fill="#fefffe" d="M 278.5,1018.5 C 279.833,1019.17 279.833,1019.17 278.5,1018.5 Z"/></g>
<g><path style="opacity:0.004" fill="#fefffe" d="M 799.5,1018.5 C 800.833,1019.17 800.833,1019.17 799.5,1018.5 Z"/></g>
<g><path style="opacity:0.004" fill="#fefffe" d="M 280.5,1019.5 C 281.833,1020.17 281.833,1020.17 280.5,1019.5 Z"/></g>
<g><path style="opacity:0.004" fill="#fefffe" d="M 797.5,1019.5 C 798.833,1020.17 798.833,1020.17 797.5,1019.5 Z"/></g>
<g><path style="opacity:0.004" fill="#fefffe" d="M 282.5,1020.5 C 283.833,1021.17 283.833,1021.17 282.5,1020.5 Z"/></g>
<g><path style="opacity:0.004" fill="#e0d4d7" d="M 798.5,1013.5 C 793.984,1016.93 788.984,1019.59 783.5,1021.5C 788.016,1018.07 793.016,1015.41 798.5,1013.5 Z"/></g>
<g><path style="opacity:0.004" fill="#fefffe" d="M 795.5,1020.5 C 796.833,1021.17 796.833,1021.17 795.5,1020.5 Z"/></g>
<g><path style="opacity:0.004" fill="#fefffe" d="M 284.5,1021.5 C 285.833,1022.17 285.833,1022.17 284.5,1021.5 Z"/></g>
<g><path style="opacity:0.004" fill="#d8caf3" d="M 293.5,1020.5 C 295.674,1020.75 297.341,1021.75 298.5,1023.5C 296.326,1023.25 294.659,1022.25 293.5,1020.5 Z"/></g>
<g><path style="opacity:0.004" fill="#fefffe" d="M 793.5,1021.5 C 794.833,1022.17 794.833,1022.17 793.5,1021.5 Z"/></g>
<g><path style="opacity:0.004" fill="#fefffe" d="M 286.5,1022.5 C 287.833,1023.17 287.833,1023.17 286.5,1022.5 Z"/></g>
<g><path style="opacity:0.004" fill="#fefffe" d="M 791.5,1022.5 C 792.833,1023.17 792.833,1023.17 791.5,1022.5 Z"/></g>
<g><path style="opacity:0.004" fill="#fefffe" d="M 288.5,1023.5 C 289.833,1024.17 289.833,1024.17 288.5,1023.5 Z"/></g>
<g><path style="opacity:0.004" fill="#fefffe" d="M 789.5,1023.5 C 790.833,1024.17 790.833,1024.17 789.5,1023.5 Z"/></g>
<g><path style="opacity:0.004" fill="#fefffe" d="M 290.5,1024.5 C 291.833,1025.17 291.833,1025.17 290.5,1024.5 Z"/></g>
<g><path style="opacity:0.004" fill="#fefffe" d="M 787.5,1024.5 C 788.833,1025.17 788.833,1025.17 787.5,1024.5 Z"/></g>
<g><path style="opacity:0.004" fill="#fefffe" d="M 293.5,1026.5 C 292.833,1025.17 292.833,1025.17 293.5,1026.5 Z"/></g>
<g><path style="opacity:0.004" fill="#fefffe" d="M 785.5,1025.5 C 786.833,1026.17 786.833,1026.17 785.5,1025.5 Z"/></g>
<g><path style="opacity:0.004" fill="#fefffe" d="M 293.5,1026.5 C 294.833,1027.17 294.833,1027.17 293.5,1026.5 Z"/></g>
<g><path style="opacity:0.004" fill="#fefffe" d="M 783.5,1026.5 C 784.833,1027.17 784.833,1027.17 783.5,1026.5 Z"/></g>
<g><path style="opacity:0.004" fill="#fefffe" d="M 295.5,1027.5 C 296.833,1028.17 296.833,1028.17 295.5,1027.5 Z"/></g>
<g><path style="opacity:0.004" fill="#fefffe" d="M 781.5,1027.5 C 782.833,1028.17 782.833,1028.17 781.5,1027.5 Z"/></g>
<g><path style="opacity:0.004" fill="#fefffe" d="M 297.5,1028.5 C 298.833,1029.17 298.833,1029.17 297.5,1028.5 Z"/></g>
<g><path style="opacity:0.004" fill="#fefffe" d="M 779.5,1028.5 C 780.833,1029.17 780.833,1029.17 779.5,1028.5 Z"/></g>
<g><path style="opacity:0.004" fill="#fefffe" d="M 299.5,1029.5 C 300.833,1030.17 300.833,1030.17 299.5,1029.5 Z"/></g>
<g><path style="opacity:0.004" fill="#dfd3dd" d="M 771.5,1027.5 C 769.574,1029.29 767.241,1030.29 764.5,1030.5C 766.426,1028.71 768.759,1027.71 771.5,1027.5 Z"/></g>
<g><path style="opacity:0.004" fill="#fefffe" d="M 777.5,1029.5 C 778.833,1030.17 778.833,1030.17 777.5,1029.5 Z"/></g>
<g><path style="opacity:0.004" fill="#fefffe" d="M 301.5,1030.5 C 302.833,1031.17 302.833,1031.17 301.5,1030.5 Z"/></g>
<g><path style="opacity:0.004" fill="#fefffe" d="M 775.5,1030.5 C 776.833,1031.17 776.833,1031.17 775.5,1030.5 Z"/></g>
<g><path style="opacity:0.004" fill="#fefffe" d="M 303.5,1031.5 C 304.833,1032.17 304.833,1032.17 303.5,1031.5 Z"/></g>
<g><path style="opacity:0.004" fill="#fefffe" d="M 773.5,1031.5 C 774.833,1032.17 774.833,1032.17 773.5,1031.5 Z"/></g>
<g><path style="opacity:0.004" fill="#fefffe" d="M 306.5,1032.5 C 307.833,1033.17 307.833,1033.17 306.5,1032.5 Z"/></g>
<g><path style="opacity:0.004" fill="#fefffe" d="M 771.5,1032.5 C 772.833,1033.17 772.833,1033.17 771.5,1032.5 Z"/></g>
<g><path style="opacity:0.004" fill="#fefffe" d="M 308.5,1033.5 C 309.833,1034.17 309.833,1034.17 308.5,1033.5 Z"/></g>
<g><path style="opacity:0.004" fill="#dfd3da" d="M 760.5,1032.5 C 758.574,1034.29 756.241,1035.29 753.5,1035.5C 755.426,1033.71 757.759,1032.71 760.5,1032.5 Z"/></g>
<g><path style="opacity:0.004" fill="#fefffe" d="M 769.5,1033.5 C 770.833,1034.17 770.833,1034.17 769.5,1033.5 Z"/></g>
<g><path style="opacity:0.004" fill="#fefffe" d="M 310.5,1034.5 C 311.833,1035.17 311.833,1035.17 310.5,1034.5 Z"/></g>
<g><path style="opacity:0.004" fill="#fefffe" d="M 767.5,1034.5 C 768.833,1035.17 768.833,1035.17 767.5,1034.5 Z"/></g>
<g><path style="opacity:0.004" fill="#fefffe" d="M 312.5,1035.5 C 313.833,1036.17 313.833,1036.17 312.5,1035.5 Z"/></g>
<g><path style="opacity:0.004" fill="#fefffe" d="M 764.5,1035.5 C 765.833,1036.17 765.833,1036.17 764.5,1035.5 Z"/></g>
<g><path style="opacity:0.004" fill="#fefffe" d="M 314.5,1036.5 C 315.833,1037.17 315.833,1037.17 314.5,1036.5 Z"/></g>
<g><path style="opacity:0.004" fill="#fefffe" d="M 762.5,1036.5 C 763.833,1037.17 763.833,1037.17 762.5,1036.5 Z"/></g>
<g><path style="opacity:0.004" fill="#fefffe" d="M 316.5,1037.5 C 317.833,1038.17 317.833,1038.17 316.5,1037.5 Z"/></g>
<g><path style="opacity:0.004" fill="#fefffe" d="M 760.5,1037.5 C 761.833,1038.17 761.833,1038.17 760.5,1037.5 Z"/></g>
<g><path style="opacity:0.004" fill="#fefffe" d="M 319.5,1038.5 C 320.833,1039.17 320.833,1039.17 319.5,1038.5 Z"/></g>
<g><path style="opacity:0.004" fill="#e9e0d7" d="M 753.5,1035.5 C 750.017,1038.24 746.017,1039.9 741.5,1040.5C 745.213,1038.31 749.213,1036.65 753.5,1035.5 Z"/></g>
<g><path style="opacity:0.004" fill="#fefffe" d="M 758.5,1038.5 C 759.833,1039.17 759.833,1039.17 758.5,1038.5 Z"/></g>
<g><path style="opacity:0.004" fill="#fefffe" d="M 321.5,1039.5 C 322.833,1040.17 322.833,1040.17 321.5,1039.5 Z"/></g>
<g><path style="opacity:0.004" fill="#fefffe" d="M 755.5,1039.5 C 756.833,1040.17 756.833,1040.17 755.5,1039.5 Z"/></g>
<g><path style="opacity:0.004" fill="#fefffe" d="M 323.5,1040.5 C 324.833,1041.17 324.833,1041.17 323.5,1040.5 Z"/></g>
<g><path style="opacity:0.004" fill="#fefffe" d="M 753.5,1040.5 C 754.833,1041.17 754.833,1041.17 753.5,1040.5 Z"/></g>
<g><path style="opacity:0.004" fill="#fefffe" d="M 326.5,1041.5 C 327.833,1042.17 327.833,1042.17 326.5,1041.5 Z"/></g>
<g><path style="opacity:0.004" fill="#daccd3" d="M 741.5,1040.5 C 740.22,1041.93 738.553,1042.6 736.5,1042.5C 737.78,1041.07 739.447,1040.4 741.5,1040.5 Z"/></g>
<g><path style="opacity:0.004" fill="#fefffe" d="M 751.5,1041.5 C 752.833,1042.17 752.833,1042.17 751.5,1041.5 Z"/></g>
<g><path style="opacity:0.004" fill="#fefffe" d="M 328.5,1042.5 C 329.833,1043.17 329.833,1043.17 328.5,1042.5 Z"/></g>
<g><path style="opacity:0.004" fill="#fefffe" d="M 749.5,1042.5 C 750.833,1043.17 750.833,1043.17 749.5,1042.5 Z"/></g>
<g><path style="opacity:0.004" fill="#fefffe" d="M 330.5,1043.5 C 331.833,1044.17 331.833,1044.17 330.5,1043.5 Z"/></g>
<g><path style="opacity:0.004" fill="#ddd1db" d="M 736.5,1042.5 C 735.22,1043.93 733.553,1044.6 731.5,1044.5C 732.78,1043.07 734.447,1042.4 736.5,1042.5 Z"/></g>
<g><path style="opacity:0.004" fill="#fefffe" d="M 746.5,1043.5 C 747.833,1044.17 747.833,1044.17 746.5,1043.5 Z"/></g>
<g><path style="opacity:0.004" fill="#fefffe" d="M 333.5,1044.5 C 334.833,1045.17 334.833,1045.17 333.5,1044.5 Z"/></g>
<g><path style="opacity:0.004" fill="#fefffe" d="M 744.5,1044.5 C 745.833,1045.17 745.833,1045.17 744.5,1044.5 Z"/></g>
<g><path style="opacity:0.004" fill="#fefffe" d="M 335.5,1045.5 C 336.833,1046.17 336.833,1046.17 335.5,1045.5 Z"/></g>
<g><path style="opacity:0.004" fill="#fefffe" d="M 741.5,1045.5 C 742.833,1046.17 742.833,1046.17 741.5,1045.5 Z"/></g>
<g><path style="opacity:0.004" fill="#fefffe" d="M 338.5,1046.5 C 339.833,1047.17 339.833,1047.17 338.5,1046.5 Z"/></g>
<g><path style="opacity:0.004" fill="#fefffe" d="M 739.5,1046.5 C 740.833,1047.17 740.833,1047.17 739.5,1046.5 Z"/></g>
<g><path style="opacity:0.004" fill="#fefffe" d="M 340.5,1047.5 C 341.833,1048.17 341.833,1048.17 340.5,1047.5 Z"/></g>
<g><path style="opacity:0.004" fill="#fefffe" d="M 736.5,1047.5 C 737.833,1048.17 737.833,1048.17 736.5,1047.5 Z"/></g>
<g><path style="opacity:0.004" fill="#fefffe" d="M 343.5,1048.5 C 344.833,1049.17 344.833,1049.17 343.5,1048.5 Z"/></g>
<g><path style="opacity:0.004" fill="#fefffe" d="M 734.5,1048.5 C 735.833,1049.17 735.833,1049.17 734.5,1048.5 Z"/></g>
<g><path style="opacity:0.004" fill="#fefffe" d="M 345.5,1049.5 C 346.833,1050.17 346.833,1050.17 345.5,1049.5 Z"/></g>
<g><path style="opacity:0.004" fill="#e3d8d6" d="M 723.5,1047.5 C 720.916,1049.47 717.916,1050.47 714.5,1050.5C 717.215,1048.93 720.215,1047.93 723.5,1047.5 Z"/></g>
<g><path style="opacity:0.004" fill="#fefffe" d="M 731.5,1049.5 C 732.833,1050.17 732.833,1050.17 731.5,1049.5 Z"/></g>
<g><path style="opacity:0.004" fill="#fefffe" d="M 348.5,1050.5 C 349.833,1051.17 349.833,1051.17 348.5,1050.5 Z"/></g>
<g><path style="opacity:0.004" fill="#fefffe" d="M 728.5,1050.5 C 729.833,1051.17 729.833,1051.17 728.5,1050.5 Z"/></g>
<g><path style="opacity:0.004" fill="#fefffe" d="M 351.5,1051.5 C 352.833,1052.17 352.833,1052.17 351.5,1051.5 Z"/></g>
<g><path style="opacity:0.004" fill="#fefffe" d="M 725.5,1052.5 C 725.897,1051.47 726.563,1051.31 727.5,1052C 726.906,1052.46 726.239,1052.63 725.5,1052.5 Z"/></g>
<g><path style="opacity:0.004" fill="#fefffe" d="M 354.5,1052.5 C 355.833,1053.17 355.833,1053.17 354.5,1052.5 Z"/></g>
<g><path style="opacity:0.004" fill="#fefffe" d="M 723.5,1052.5 C 724.833,1053.17 724.833,1053.17 723.5,1052.5 Z"/></g>
<g><path style="opacity:0.004" fill="#fefffe" d="M 356.5,1054.5 C 356.897,1053.47 357.563,1053.31 358.5,1054C 357.906,1054.46 357.239,1054.63 356.5,1054.5 Z"/></g>
<g><path style="opacity:0.004" fill="#fefffe" d="M 720.5,1053.5 C 721.833,1054.17 721.833,1054.17 720.5,1053.5 Z"/></g>
<g><path style="opacity:0.004" fill="#fefffe" d="M 359.5,1054.5 C 360.833,1055.17 360.833,1055.17 359.5,1054.5 Z"/></g>
<g><path style="opacity:0.004" fill="#fefffe" d="M 717.5,1054.5 C 718.833,1055.17 718.833,1055.17 717.5,1054.5 Z"/></g>
<g><path style="opacity:0.004" fill="#fefffe" d="M 362.5,1055.5 C 363.833,1056.17 363.833,1056.17 362.5,1055.5 Z"/></g>
<g><path style="opacity:0.004" fill="#fefffe" d="M 714.5,1055.5 C 715.833,1056.17 715.833,1056.17 714.5,1055.5 Z"/></g>
<g><path style="opacity:0.004" fill="#fefffe" d="M 365.5,1056.5 C 366.833,1057.17 366.833,1057.17 365.5,1056.5 Z"/></g>
<g><path style="opacity:0.004" fill="#fefffe" d="M 711.5,1056.5 C 712.833,1057.17 712.833,1057.17 711.5,1056.5 Z"/></g>
<g><path style="opacity:0.004" fill="#fefffe" d="M 368.5,1057.5 C 369.833,1058.17 369.833,1058.17 368.5,1057.5 Z"/></g>
<g><path style="opacity:0.004" fill="#e4daeb" d="M 696.5,1056.5 C 694.485,1057.92 692.152,1058.59 689.5,1058.5C 691.515,1057.08 693.848,1056.41 696.5,1056.5 Z"/></g>
<g><path style="opacity:0.004" fill="#fefffe" d="M 708.5,1057.5 C 709.833,1058.17 709.833,1058.17 708.5,1057.5 Z"/></g>
<g><path style="opacity:0.004" fill="#fefffe" d="M 371.5,1058.5 C 372.833,1059.17 372.833,1059.17 371.5,1058.5 Z"/></g>
<g><path style="opacity:0.004" fill="#fefffe" d="M 705.5,1058.5 C 706.833,1059.17 706.833,1059.17 705.5,1058.5 Z"/></g>
<g><path style="opacity:0.004" fill="#fefffe" d="M 374.5,1059.5 C 375.833,1060.17 375.833,1060.17 374.5,1059.5 Z"/></g>
<g><path style="opacity:0.004" fill="#e3d9f1" d="M 689.5,1058.5 C 687.485,1059.92 685.152,1060.59 682.5,1060.5C 684.515,1059.08 686.848,1058.41 689.5,1058.5 Z"/></g>
<g><path style="opacity:0.004" fill="#fefffe" d="M 702.5,1059.5 C 703.833,1060.17 703.833,1060.17 702.5,1059.5 Z"/></g>
<g><path style="opacity:0.004" fill="#fefffe" d="M 377.5,1061.5 C 377.897,1060.47 378.563,1060.31 379.5,1061C 378.906,1061.46 378.239,1061.63 377.5,1061.5 Z"/></g>
<g><path style="opacity:0.004" fill="#fefffe" d="M 699.5,1060.5 C 700.833,1061.17 700.833,1061.17 699.5,1060.5 Z"/></g>
<g><path style="opacity:0.004" fill="#fefffe" d="M 381.5,1061.5 C 382.833,1062.17 382.833,1062.17 381.5,1061.5 Z"/></g>
<g><path style="opacity:0.004" fill="#c6aef2" d="M 399.5,1061.5 C 406.427,1062.57 413.094,1064.23 419.5,1066.5C 412.497,1065.75 405.83,1064.08 399.5,1061.5 Z"/></g>
<g><path style="opacity:0.004" fill="#fefffe" d="M 695.5,1062.5 C 695.897,1061.47 696.563,1061.31 697.5,1062C 696.906,1062.46 696.239,1062.63 695.5,1062.5 Z"/></g>
<g><path style="opacity:0.004" fill="#fefffe" d="M 384.5,1062.5 C 385.833,1063.17 385.833,1063.17 384.5,1062.5 Z"/></g>
<g><path style="opacity:0.004" fill="#fefffe" d="M 692.5,1062.5 C 693.833,1063.17 693.833,1063.17 692.5,1062.5 Z"/></g>
<g><path style="opacity:0.004" fill="#fefffe" d="M 387.5,1064.5 C 387.897,1063.47 388.563,1063.31 389.5,1064C 388.906,1064.46 388.239,1064.63 387.5,1064.5 Z"/></g>
<g><path style="opacity:0.004" fill="#fefffe" d="M 688.5,1064.5 C 688.897,1063.47 689.563,1063.31 690.5,1064C 689.906,1064.46 689.239,1064.63 688.5,1064.5 Z"/></g>
<g><path style="opacity:0.004" fill="#fefffe" d="M 391.5,1065.5 C 391.897,1064.47 392.563,1064.31 393.5,1065C 392.906,1065.46 392.239,1065.63 391.5,1065.5 Z"/></g>
<g><path style="opacity:0.004" fill="#d5c5ea" d="M 678.5,1061.5 C 672.17,1064.08 665.503,1065.75 658.5,1066.5C 664.906,1064.23 671.573,1062.57 678.5,1061.5 Z"/></g>
<g><path style="opacity:0.004" fill="#fefffe" d="M 684.5,1065.5 C 684.897,1064.47 685.563,1064.31 686.5,1065C 685.906,1065.46 685.239,1065.63 684.5,1065.5 Z"/></g>
<g><path style="opacity:0.004" fill="#fefffe" d="M 395.5,1065.5 C 396.833,1066.17 396.833,1066.17 395.5,1065.5 Z"/></g>
<g><path style="opacity:0.004" fill="#fefffe" d="M 681.5,1065.5 C 682.833,1066.17 682.833,1066.17 681.5,1065.5 Z"/></g>
<g><path style="opacity:0.004" fill="#fefffe" d="M 398.5,1067.5 C 398.897,1066.47 399.563,1066.31 400.5,1067C 399.906,1067.46 399.239,1067.63 398.5,1067.5 Z"/></g>
<g><path style="opacity:0.004" fill="#fefffe" d="M 677.5,1067.5 C 677.897,1066.47 678.563,1066.31 679.5,1067C 678.906,1067.46 678.239,1067.63 677.5,1067.5 Z"/></g>
<g><path style="opacity:0.004" fill="#fefffe" d="M 402.5,1068.5 C 402.897,1067.47 403.563,1067.31 404.5,1068C 403.906,1068.46 403.239,1068.63 402.5,1068.5 Z"/></g>
<g><path style="opacity:0.004" fill="#fefffe" d="M 673.5,1068.5 C 673.897,1067.47 674.563,1067.31 675.5,1068C 674.906,1068.46 674.239,1068.63 673.5,1068.5 Z"/></g>
<g><path style="opacity:0.004" fill="#fefffe" d="M 406.5,1069.5 C 406.897,1068.47 407.563,1068.31 408.5,1069C 407.906,1069.46 407.239,1069.63 406.5,1069.5 Z"/></g>
<g><path style="opacity:0.004" fill="#d2c2eb" d="M 658.5,1066.5 C 652.127,1068.71 645.46,1070.04 638.5,1070.5C 644.923,1068.55 651.589,1067.22 658.5,1066.5 Z"/></g>
<g><path style="opacity:0.004" fill="#fefffe" d="M 669.5,1069.5 C 669.897,1068.47 670.563,1068.31 671.5,1069C 670.906,1069.46 670.239,1069.63 669.5,1069.5 Z"/></g>
<g><path style="opacity:0.004" fill="#fefffe" d="M 410.5,1070.5 C 410.897,1069.47 411.563,1069.31 412.5,1070C 411.906,1070.46 411.239,1070.63 410.5,1070.5 Z"/></g>
<g><path style="opacity:0.004" fill="#fefffe" d="M 665.5,1070.5 C 665.897,1069.47 666.563,1069.31 667.5,1070C 666.906,1070.46 666.239,1070.63 665.5,1070.5 Z"/></g>
<g><path style="opacity:0.004" fill="#fefffe" d="M 414.5,1071.5 C 414.897,1070.47 415.563,1070.31 416.5,1071C 415.906,1071.46 415.239,1071.63 414.5,1071.5 Z"/></g>
<g><path style="opacity:0.004" fill="#fefffe" d="M 661.5,1071.5 C 661.897,1070.47 662.563,1070.31 663.5,1071C 662.906,1071.46 662.239,1071.63 661.5,1071.5 Z"/></g>
<g><path style="opacity:0.004" fill="#fefffe" d="M 419.5,1072.5 C 419.897,1071.47 420.563,1071.31 421.5,1072C 420.906,1072.46 420.239,1072.63 419.5,1072.5 Z"/></g>
<g><path style="opacity:0.004" fill="#fefffe" d="M 656.5,1072.5 C 656.897,1071.47 657.563,1071.31 658.5,1072C 657.906,1072.46 657.239,1072.63 656.5,1072.5 Z"/></g>
<g><path style="opacity:0.004" fill="#fefffe" d="M 423.5,1073.5 C 423.897,1072.47 424.563,1072.31 425.5,1073C 424.906,1073.46 424.239,1073.63 423.5,1073.5 Z"/></g>
<g><path style="opacity:0.004" fill="#fefffe" d="M 652.5,1073.5 C 652.897,1072.47 653.563,1072.31 654.5,1073C 653.906,1073.46 653.239,1073.63 652.5,1073.5 Z"/></g>
<g><path style="opacity:0.004" fill="#fefffe" d="M 428.5,1074.5 C 428.897,1073.47 429.563,1073.31 430.5,1074C 429.906,1074.46 429.239,1074.63 428.5,1074.5 Z"/></g>
<g><path style="opacity:0.004" fill="#fefffe" d="M 647.5,1074.5 C 647.897,1073.47 648.563,1073.31 649.5,1074C 648.906,1074.46 648.239,1074.63 647.5,1074.5 Z"/></g>
<g><path style="opacity:0.004" fill="#fefffe" d="M 433.5,1074.5 C 434.833,1075.17 434.833,1075.17 433.5,1074.5 Z"/></g>
<g><path style="opacity:0.004" fill="#fefffe" d="M 643.5,1074.5 C 644.833,1075.17 644.833,1075.17 643.5,1074.5 Z"/></g>
<g><path style="opacity:0.004" fill="#a07cea" d="M 464.5,1074.5 C 469.731,1074.44 474.731,1075.11 479.5,1076.5C 479.167,1076.5 478.833,1076.5 478.5,1076.5C 473.609,1076.47 468.943,1075.8 464.5,1074.5 Z"/></g>
<g><path style="opacity:0.004" fill="#e9e1ea" d="M 478.5,1076.5 C 478.833,1076.5 479.167,1076.5 479.5,1076.5C 491.631,1077.69 503.631,1078.69 515.5,1079.5C 508.167,1079.5 500.833,1079.5 493.5,1079.5C 488.486,1078.58 483.486,1077.58 478.5,1076.5 Z"/></g>
<g><path style="opacity:0.004" fill="#dacbde" d="M 606.5,1075.5 C 599.181,1076.93 591.848,1078.26 584.5,1079.5C 572.833,1079.5 561.167,1079.5 549.5,1079.5C 568.37,1078.49 587.37,1077.15 606.5,1075.5 Z"/></g>
</svg>
