<?xml version="1.0" encoding="UTF-8"?>
<!DOCTYPE svg PUBLIC "-//W3C//DTD SVG 1.1//EN" "http://www.w3.org/Graphics/SVG/1.1/DTD/svg11.dtd">
<svg xmlns="http://www.w3.org/2000/svg" version="1.1" width="1080px" height="1080px" style="shape-rendering:geometricPrecision; text-rendering:geometricPrecision; image-rendering:optimizeQuality; fill-rule:evenodd; clip-rule:evenodd" xmlns:xlink="http://www.w3.org/1999/xlink">
<g><path style="opacity:0.93" fill="#000065" d="M 683.5,127.5 C 683.333,241.167 683.5,354.834 684,468.5C 684.671,469.252 685.504,469.586 686.5,469.5C 709.416,486.5 720.416,509.334 719.5,538C 719.666,560.502 712.5,580.335 698,597.5C 694.895,600.293 691.728,602.96 688.5,605.5C 686.629,605.859 685.129,606.859 684,608.5C 683.502,611.482 683.335,614.482 683.5,617.5C 683.167,617.5 682.833,617.5 682.5,617.5C 681.048,616.698 679.382,616.198 677.5,616C 669.224,607.555 660.891,599.388 652.5,591.5C 644.425,581.921 635.758,572.754 626.5,564C 625.906,563.536 625.239,563.369 624.5,563.5C 610.476,547.81 595.81,532.81 580.5,518.5C 572.091,508.587 563.091,499.087 553.5,490C 552.906,489.536 552.239,489.369 551.5,489.5C 551.631,488.761 551.464,488.094 551,487.5C 535.891,472.223 520.724,457.223 505.5,442.5C 495.09,430.586 484.09,419.086 472.5,408C 471.906,407.536 471.239,407.369 470.5,407.5C 460.554,395.886 449.887,384.886 438.5,374.5C 437.985,372.106 437.319,369.772 436.5,367.5C 439.897,365.105 442.564,362.105 444.5,358.5C 447.789,357.211 450.122,354.878 451.5,351.5C 454.5,347.833 457.833,344.5 461.5,341.5C 465.5,339.5 468.5,336.5 470.5,332.5C 473.789,331.211 476.122,328.878 477.5,325.5C 478.306,324.272 479.306,323.272 480.5,322.5C 488.111,316.557 495.111,309.891 501.5,302.5C 501.856,300.81 502.856,299.81 504.5,299.5C 511.167,293.5 517.5,287.167 523.5,280.5C 524.478,278.188 526.145,276.522 528.5,275.5C 532.833,271.833 536.833,267.833 540.5,263.5C 568.092,235.242 596.092,207.242 624.5,179.5C 628.833,177.167 632.167,173.833 634.5,169.5C 636.5,166.833 638.833,164.5 641.5,162.5C 645.5,160.5 648.5,157.5 650.5,153.5C 654.833,151.167 658.167,147.833 660.5,143.5C 662.5,140.833 664.833,138.5 667.5,136.5C 671.5,134.5 674.5,131.5 676.5,127.5C 678.176,125.166 680.509,124.166 683.5,124.5C 683.5,125.5 683.5,126.5 683.5,127.5 Z"/></g>
<g><path style="opacity:0.004" fill="#000000" d="M 683.5,127.5 C 684.333,240.333 684.833,353.333 685,466.5C 685.513,467.527 686.013,468.527 686.5,469.5C 685.504,469.586 684.671,469.252 684,468.5C 683.5,354.834 683.333,241.167 683.5,127.5 Z"/></g>
<g><path style="opacity:0.004" fill="#020144" d="M 676.5,127.5 C 674.5,131.5 671.5,134.5 667.5,136.5C 670.167,133.167 673.167,130.167 676.5,127.5 Z"/></g>
<g><path style="opacity:0.004" fill="#020143" d="M 660.5,143.5 C 658.167,147.833 654.833,151.167 650.5,153.5C 653.5,149.833 656.833,146.5 660.5,143.5 Z"/></g>
<g><path style="opacity:0.952" fill="#a30a0b" d="M 435.5,366.5 C 435.5,366.833 435.5,367.167 435.5,367.5C 435.337,369.857 435.503,372.19 436,374.5C 436.708,375.381 437.542,376.047 438.5,376.5C 461.449,401.117 485.116,425.117 509.5,448.5C 533.116,473.783 557.449,498.45 582.5,522.5C 606.116,547.783 630.449,572.45 655.5,596.5C 661.572,604.078 668.239,611.244 675.5,618C 678.227,619.636 680.893,619.802 683.5,618.5C 683.833,618.5 684.167,618.5 684.5,618.5C 765.361,701.197 846.528,783.864 928,866.5C 928.667,868.167 928.667,869.833 928,871.5C 905.186,893.311 882.02,914.811 858.5,936C 856.541,936.931 854.541,937.764 852.5,938.5C 796.398,882.065 740.398,825.732 684.5,769.5C 683.308,767.887 682.308,766.22 681.5,764.5C 679.781,762.089 678.448,759.423 677.5,756.5C 676.817,756.137 676.15,755.804 675.5,755.5C 674.585,753.246 673.252,751.246 671.5,749.5C 663.229,740.057 654.729,730.724 646,721.5C 643.894,718.882 641.394,716.882 638.5,715.5C 633.833,708.833 628.167,703.167 621.5,698.5C 619.833,694.833 617.167,692.167 613.5,690.5C 611.167,686.167 607.833,682.833 603.5,680.5C 596.426,671.922 588.76,663.755 580.5,656C 579.906,655.536 579.239,655.369 578.5,655.5C 575.167,651.833 571.833,648.167 568.5,644.5C 563.5,634.833 556.167,627.5 546.5,622.5C 544.167,618.167 540.833,614.833 536.5,612.5C 536.631,611.761 536.464,611.094 536,610.5C 528.911,602.906 521.411,595.906 513.5,589.5C 507.5,583.167 501.5,576.833 495.5,570.5C 491.5,564.5 486.5,559.5 480.5,555.5C 477.833,550.833 474.167,547.167 469.5,544.5C 465.167,538.167 459.833,532.833 453.5,528.5C 441.167,515.833 428.833,503.167 416.5,490.5C 413.5,485.5 409.5,481.5 404.5,478.5C 402.167,476.833 400.167,474.833 398.5,472.5C 398.631,471.761 398.464,471.094 398,470.5C 391.91,463.904 385.41,457.904 378.5,452.5C 378.631,451.761 378.464,451.094 378,450.5C 370.911,442.906 363.411,435.906 355.5,429.5C 344.089,416.586 332.089,404.086 319.5,392C 318.906,391.536 318.239,391.369 317.5,391.5C 316.341,389.75 314.674,388.75 312.5,388.5C 310.938,388.267 309.605,387.6 308.5,386.5C 308.027,385.094 307.027,384.427 305.5,384.5C 304.833,384.167 304.167,383.833 303.5,383.5C 254.505,332.005 204.672,281.338 154,231.5C 151.64,228.64 149.473,225.64 147.5,222.5C 153.903,215.595 160.57,208.761 167.5,202C 182.774,188.731 197.774,175.064 212.5,161C 215.732,158.097 219.232,155.597 223,153.5C 224.225,153.862 225.391,154.362 226.5,155C 236.721,165.221 246.887,175.387 257,185.5C 315.951,246.285 375.451,306.619 435.5,366.5 Z"/></g>
<g><path style="opacity:0.004" fill="#020144" d="M 650.5,153.5 C 648.5,157.5 645.5,160.5 641.5,162.5C 644.167,159.167 647.167,156.167 650.5,153.5 Z"/></g>
<g><path style="opacity:0.004" fill="#010144" d="M 634.5,169.5 C 632.167,173.833 628.833,177.167 624.5,179.5C 627.5,175.833 630.833,172.5 634.5,169.5 Z"/></g>
<g><path style="opacity:0.004" fill="#050028" d="M 540.5,263.5 C 536.833,267.833 532.833,271.833 528.5,275.5C 531.5,270.5 535.5,266.5 540.5,263.5 Z"/></g>
<g><path style="opacity:0.004" fill="#060030" d="M 523.5,280.5 C 517.5,287.167 511.167,293.5 504.5,299.5C 509.833,292.167 516.167,285.833 523.5,280.5 Z"/></g>
<g><path style="opacity:0.004" fill="#070031" d="M 501.5,302.5 C 495.111,309.891 488.111,316.557 480.5,322.5C 486.889,315.109 493.889,308.443 501.5,302.5 Z"/></g>
<g><path style="opacity:0.004" fill="#04003c" d="M 477.5,325.5 C 476.122,328.878 473.789,331.211 470.5,332.5C 472.5,329.833 474.833,327.5 477.5,325.5 Z"/></g>
<g><path style="opacity:0.004" fill="#04013f" d="M 470.5,332.5 C 468.5,336.5 465.5,339.5 461.5,341.5C 464.167,338.167 467.167,335.167 470.5,332.5 Z"/></g>
<g><path style="opacity:0.004" fill="#04003c" d="M 451.5,351.5 C 450.122,354.878 447.789,357.211 444.5,358.5C 446.5,355.833 448.833,353.5 451.5,351.5 Z"/></g>
<g><path style="opacity:0.004" fill="#020143" d="M 444.5,358.5 C 442.564,362.105 439.897,365.105 436.5,367.5C 436.167,367.5 435.833,367.5 435.5,367.5C 435.5,367.167 435.5,366.833 435.5,366.5C 438.5,363.833 441.5,361.167 444.5,358.5 Z"/></g>
<g><path style="opacity:0.004" fill="#000000" d="M 808.5,364.5 C 807.833,363.167 807.833,363.167 808.5,364.5 Z"/></g>
<g><path style="opacity:0.035" fill="#01025b" d="M 808.5,364.5 C 812.653,365.971 815.987,368.637 818.5,372.5C 817.109,374.89 815.109,376.557 812.5,377.5C 809.794,373.698 808.461,369.365 808.5,364.5 Z"/></g>
<g><path style="opacity:0.413" fill="#94072c" d="M 435.5,367.5 C 435.833,367.5 436.167,367.5 436.5,367.5C 437.319,369.772 437.985,372.106 438.5,374.5C 438.5,375.167 438.5,375.833 438.5,376.5C 437.542,376.047 436.708,375.381 436,374.5C 435.503,372.19 435.337,369.857 435.5,367.5 Z"/></g>
<g><path style="opacity:0.894" fill="#6c034f" d="M 438.5,374.5 C 449.887,384.886 460.554,395.886 470.5,407.5C 459.833,397.167 449.167,386.833 438.5,376.5C 438.5,375.833 438.5,375.167 438.5,374.5 Z"/></g>
<g><path style="opacity:0.988" fill="#8f0733" d="M 438.5,376.5 C 449.167,386.833 459.833,397.167 470.5,407.5C 481.833,419.5 493.5,431.167 505.5,442.5C 507.252,444.246 508.585,446.246 509.5,448.5C 485.116,425.117 461.449,401.117 438.5,376.5 Z"/></g>
<g><path style="opacity:0.948" fill="#000065" d="M 303.5,383.5 C 304.167,383.833 304.833,384.167 305.5,384.5C 305.973,385.906 306.973,386.573 308.5,386.5C 309.605,387.6 310.938,388.267 312.5,388.5C 338.123,414.457 363.79,440.457 389.5,466.5C 410.116,488.783 431.449,510.45 453.5,531.5C 457.167,534.5 460.5,537.833 463.5,541.5C 479.448,559.116 496.115,576.116 513.5,592.5C 521.5,599.833 529.167,607.5 536.5,615.5C 549.781,630.449 563.781,644.782 578.5,658.5C 589.167,668.5 599.5,678.833 609.5,689.5C 620.447,702.114 632.113,714.114 644.5,725.5C 653.5,733.833 662.167,742.5 670.5,751.5C 672.372,754.483 674.372,757.483 676.5,760.5C 678.186,761.857 679.852,763.19 681.5,764.5C 682.308,766.22 683.308,767.887 684.5,769.5C 684.667,836.167 684.5,902.834 684,969.5C 682.332,972.6 680.165,973.1 677.5,971C 590.965,884.632 504.632,798.132 418.5,711.5C 417.365,709.787 415.698,709.12 413.5,709.5C 413.167,709.5 412.833,709.5 412.5,709.5C 413.609,708.71 414.942,708.21 416.5,708C 330.501,707.5 244.501,707.333 158.5,707.5C 157.542,707.047 156.708,706.381 156,705.5C 155.826,674.762 155.326,644.095 154.5,613.5C 154.5,612.167 154.5,610.833 154.5,609.5C 144.167,609.5 133.833,609.5 123.5,609.5C 122.542,609.047 121.708,608.381 121,607.5C 120.333,562.5 120.333,517.5 121,472.5C 121.708,471.619 122.542,470.953 123.5,470.5C 132.506,470.666 141.506,470.5 150.5,470C 151.416,469.626 152.25,469.126 153,468.5C 153.5,441.502 153.667,414.502 153.5,387.5C 154.29,386.206 155.29,385.039 156.5,384C 205.499,383.5 254.499,383.333 303.5,383.5 Z"/></g>
<g><path style="opacity:0.024" fill="#760348" d="M 305.5,384.5 C 307.027,384.427 308.027,385.094 308.5,386.5C 306.973,386.573 305.973,385.906 305.5,384.5 Z"/></g>
<g><path style="opacity:0.004" fill="#000011" d="M 153.5,387.5 C 153.667,414.502 153.5,441.502 153,468.5C 152.25,469.126 151.416,469.626 150.5,470C 141.506,470.5 132.506,470.666 123.5,470.5C 131.99,469.67 140.657,469.17 149.5,469C 150.333,468.167 151.167,467.333 152,466.5C 152.168,439.997 152.668,413.663 153.5,387.5 Z"/></g>
<g><path style="opacity:0.937" fill="#87063c" d="M 317.5,391.5 C 318.239,391.369 318.906,391.536 319.5,392C 332.089,404.086 344.089,416.586 355.5,429.5C 342.5,417.167 329.833,404.5 317.5,391.5 Z"/></g>
<g><path style="opacity:0.863" fill="#5c0256" d="M 312.5,388.5 C 314.674,388.75 316.341,389.75 317.5,391.5C 329.833,404.5 342.5,417.167 355.5,429.5C 362.833,437.5 370.5,445.167 378.5,452.5C 383.5,457.833 388.5,463.167 393.5,468.5C 393.5,468.833 393.5,469.167 393.5,469.5C 392.167,468.5 390.833,467.5 389.5,466.5C 363.79,440.457 338.123,414.457 312.5,388.5 Z"/></g>
<g><path style="opacity:1" fill="#5f0255" d="M 470.5,407.5 C 471.239,407.369 471.906,407.536 472.5,408C 484.09,419.086 495.09,430.586 505.5,442.5C 493.5,431.167 481.833,419.5 470.5,407.5 Z"/></g>
<g><path style="opacity:1" fill="#8e0735" d="M 355.5,429.5 C 363.411,435.906 370.911,442.906 378,450.5C 378.464,451.094 378.631,451.761 378.5,452.5C 370.5,445.167 362.833,437.5 355.5,429.5 Z"/></g>
<g><path style="opacity:1" fill="#680351" d="M 505.5,442.5 C 520.724,457.223 535.891,472.223 551,487.5C 551.464,488.094 551.631,488.761 551.5,489.5C 537.5,475.833 523.5,462.167 509.5,448.5C 508.585,446.246 507.252,444.246 505.5,442.5 Z"/></g>
<g><path style="opacity:1" fill="#8f0733" d="M 509.5,448.5 C 523.5,462.167 537.5,475.833 551.5,489.5C 560.833,499.5 570.5,509.167 580.5,518.5C 581.6,519.605 582.267,520.938 582.5,522.5C 557.449,498.45 533.116,473.783 509.5,448.5 Z"/></g>
<g><path style="opacity:1" fill="#93082f" d="M 378.5,452.5 C 385.41,457.904 391.91,463.904 398,470.5C 398.464,471.094 398.631,471.761 398.5,472.5C 396.833,471.167 395.167,469.833 393.5,468.5C 388.5,463.167 383.5,457.833 378.5,452.5 Z"/></g>
<g><path style="opacity:1" fill="#3e015f" d="M 389.5,466.5 C 390.833,467.5 392.167,468.5 393.5,469.5C 413.167,489.833 433.167,509.833 453.5,529.5C 453.5,530.167 453.5,530.833 453.5,531.5C 431.449,510.45 410.116,488.783 389.5,466.5 Z"/></g>
<g><path style="opacity:1" fill="#74044a" d="M 393.5,468.5 C 395.167,469.833 396.833,471.167 398.5,472.5C 400.167,474.833 402.167,476.833 404.5,478.5C 408.167,482.833 412.167,486.833 416.5,490.5C 428.833,503.167 441.167,515.833 453.5,528.5C 453.5,528.833 453.5,529.167 453.5,529.5C 433.167,509.833 413.167,489.833 393.5,469.5C 393.5,469.167 393.5,468.833 393.5,468.5 Z"/></g>
<g><path style="opacity:1" fill="#97082a" d="M 404.5,478.5 C 409.5,481.5 413.5,485.5 416.5,490.5C 412.167,486.833 408.167,482.833 404.5,478.5 Z"/></g>
<g><path style="opacity:1" fill="#5d0255" d="M 551.5,489.5 C 552.239,489.369 552.906,489.536 553.5,490C 563.091,499.087 572.091,508.587 580.5,518.5C 570.5,509.167 560.833,499.5 551.5,489.5 Z"/></g>
<g><path style="opacity:1" fill="#690350" d="M 580.5,518.5 C 595.81,532.81 610.476,547.81 624.5,563.5C 610.5,549.833 596.5,536.167 582.5,522.5C 582.267,520.938 581.6,519.605 580.5,518.5 Z"/></g>
<g><path style="opacity:1" fill="#8f0733" d="M 582.5,522.5 C 596.5,536.167 610.5,549.833 624.5,563.5C 633.5,573.167 642.833,582.5 652.5,591.5C 653.925,592.922 654.925,594.589 655.5,596.5C 630.449,572.45 606.116,547.783 582.5,522.5 Z"/></g>
<g><path style="opacity:1" fill="#93082f" d="M 453.5,529.5 C 453.5,529.167 453.5,528.833 453.5,528.5C 459.833,532.833 465.167,538.167 469.5,544.5C 464.167,539.5 458.833,534.5 453.5,529.5 Z"/></g>
<g><path style="opacity:1" fill="#70044c" d="M 453.5,529.5 C 458.833,534.5 464.167,539.5 469.5,544.5C 472.833,548.5 476.5,552.167 480.5,555.5C 485.167,560.833 490.167,565.833 495.5,570.5C 501.5,576.833 507.5,583.167 513.5,589.5C 513.5,589.833 513.5,590.167 513.5,590.5C 496.833,574.167 480.167,557.833 463.5,541.5C 460.5,537.833 457.167,534.5 453.5,531.5C 453.5,530.833 453.5,530.167 453.5,529.5 Z"/></g>
<g><path style="opacity:1" fill="#3c015f" d="M 463.5,541.5 C 480.167,557.833 496.833,574.167 513.5,590.5C 513.5,591.167 513.5,591.833 513.5,592.5C 496.115,576.116 479.448,559.116 463.5,541.5 Z"/></g>
<g><path style="opacity:1" fill="#95082c" d="M 469.5,544.5 C 474.167,547.167 477.833,550.833 480.5,555.5C 476.5,552.167 472.833,548.5 469.5,544.5 Z"/></g>
<g><path style="opacity:1" fill="#980929" d="M 480.5,555.5 C 486.5,559.5 491.5,564.5 495.5,570.5C 490.167,565.833 485.167,560.833 480.5,555.5 Z"/></g>
<g><path style="opacity:1" fill="#5d0255" d="M 624.5,563.5 C 625.239,563.369 625.906,563.536 626.5,564C 635.758,572.754 644.425,581.921 652.5,591.5C 642.833,582.5 633.5,573.167 624.5,563.5 Z"/></g>
<g><path style="opacity:1" fill="#910832" d="M 513.5,590.5 C 513.5,590.167 513.5,589.833 513.5,589.5C 521.411,595.906 528.911,602.906 536,610.5C 536.464,611.094 536.631,611.761 536.5,612.5C 528.833,605.167 521.167,597.833 513.5,590.5 Z"/></g>
<g><path style="opacity:1" fill="#6d034e" d="M 513.5,590.5 C 521.167,597.833 528.833,605.167 536.5,612.5C 539.5,616.167 542.833,619.5 546.5,622.5C 553.5,630.167 560.833,637.5 568.5,644.5C 571.833,648.167 575.167,651.833 578.5,655.5C 578.5,655.833 578.5,656.167 578.5,656.5C 564.5,642.833 550.5,629.167 536.5,615.5C 529.167,607.5 521.5,599.833 513.5,592.5C 513.5,591.833 513.5,591.167 513.5,590.5 Z"/></g>
<g><path style="opacity:1" fill="#6b034f" d="M 652.5,591.5 C 660.891,599.388 669.224,607.555 677.5,616C 679.382,616.198 681.048,616.698 682.5,617.5C 680.473,617.662 678.473,617.495 676.5,617C 669.632,609.964 662.632,603.131 655.5,596.5C 654.925,594.589 653.925,592.922 652.5,591.5 Z"/></g>
<g><path style="opacity:1" fill="#94082e" d="M 655.5,596.5 C 662.632,603.131 669.632,609.964 676.5,617C 678.473,617.495 680.473,617.662 682.5,617.5C 682.833,617.5 683.167,617.5 683.5,617.5C 683.5,617.833 683.5,618.167 683.5,618.5C 680.893,619.802 678.227,619.636 675.5,618C 668.239,611.244 661.572,604.078 655.5,596.5 Z"/></g>
<g><path style="opacity:0.004" fill="#000004" d="M 688.5,605.5 C 684.998,609.073 683.664,613.406 684.5,618.5C 684.167,618.5 683.833,618.5 683.5,618.5C 683.5,618.167 683.5,617.833 683.5,617.5C 683.335,614.482 683.502,611.482 684,608.5C 685.129,606.859 686.629,605.859 688.5,605.5 Z"/></g>
<g><path style="opacity:0.004" fill="#010022" d="M 123.5,609.5 C 133.833,609.5 144.167,609.5 154.5,609.5C 154.5,610.833 154.5,612.167 154.5,613.5C 153.373,612.878 152.373,612.045 151.5,611C 141.991,610.83 132.658,610.33 123.5,609.5 Z"/></g>
<g><path style="opacity:1" fill="#94082d" d="M 536.5,612.5 C 540.833,614.833 544.167,618.167 546.5,622.5C 542.833,619.5 539.5,616.167 536.5,612.5 Z"/></g>
<g><path style="opacity:1" fill="#3b0160" d="M 536.5,615.5 C 550.5,629.167 564.5,642.833 578.5,656.5C 578.5,657.167 578.5,657.833 578.5,658.5C 563.781,644.782 549.781,630.449 536.5,615.5 Z"/></g>
<g><path style="opacity:1" fill="#9d091e" d="M 546.5,622.5 C 556.167,627.5 563.5,634.833 568.5,644.5C 560.833,637.5 553.5,630.167 546.5,622.5 Z"/></g>
<g><path style="opacity:1" fill="#900733" d="M 578.5,656.5 C 578.5,656.167 578.5,655.833 578.5,655.5C 579.239,655.369 579.906,655.536 580.5,656C 588.76,663.755 596.426,671.922 603.5,680.5C 595.167,672.5 586.833,664.5 578.5,656.5 Z"/></g>
<g><path style="opacity:1" fill="#6a0350" d="M 578.5,656.5 C 586.833,664.5 595.167,672.5 603.5,680.5C 606.5,684.167 609.833,687.5 613.5,690.5C 615.833,693.5 618.5,696.167 621.5,698.5C 626.833,704.5 632.5,710.167 638.5,715.5C 640.909,717.902 642.909,720.569 644.5,723.5C 632.833,712.167 621.167,700.833 609.5,689.5C 599.5,678.833 589.167,668.5 578.5,658.5C 578.5,657.833 578.5,657.167 578.5,656.5 Z"/></g>
<g><path style="opacity:1" fill="#94082f" d="M 603.5,680.5 C 607.833,682.833 611.167,686.167 613.5,690.5C 609.833,687.5 606.5,684.167 603.5,680.5 Z"/></g>
<g><path style="opacity:1" fill="#3a0160" d="M 609.5,689.5 C 621.167,700.833 632.833,712.167 644.5,723.5C 644.5,724.167 644.5,724.833 644.5,725.5C 632.113,714.114 620.447,702.114 609.5,689.5 Z"/></g>
<g><path style="opacity:1" fill="#95082c" d="M 613.5,690.5 C 617.167,692.167 619.833,694.833 621.5,698.5C 618.5,696.167 615.833,693.5 613.5,690.5 Z"/></g>
<g><path style="opacity:1" fill="#970929" d="M 621.5,698.5 C 628.167,703.167 633.833,708.833 638.5,715.5C 632.5,710.167 626.833,704.5 621.5,698.5 Z"/></g>
<g><path style="opacity:0.004" fill="#00007f" d="M 158.5,707.5 C 244.501,707.333 330.501,707.5 416.5,708C 414.942,708.21 413.609,708.71 412.5,709.5C 328.166,709.667 243.833,709.5 159.5,709C 158.944,708.617 158.611,708.117 158.5,707.5 Z"/></g>
<g><path style="opacity:0.004" fill="#00000a" d="M 413.5,709.5 C 415.698,709.12 417.365,709.787 418.5,711.5C 416.597,711.204 414.93,710.537 413.5,709.5 Z"/></g>
<g><path style="opacity:1" fill="#900732" d="M 638.5,715.5 C 641.394,716.882 643.894,718.882 646,721.5C 654.729,730.724 663.229,740.057 671.5,749.5C 662.5,740.833 653.5,732.167 644.5,723.5C 642.909,720.569 640.909,717.902 638.5,715.5 Z"/></g>
<g><path style="opacity:1" fill="#620254" d="M 644.5,723.5 C 653.5,732.167 662.5,740.833 671.5,749.5C 673.252,751.246 674.585,753.246 675.5,755.5C 673.833,754.167 672.167,752.833 670.5,751.5C 662.167,742.5 653.5,733.833 644.5,725.5C 644.5,724.833 644.5,724.167 644.5,723.5 Z"/></g>
<g><path style="opacity:0.608" fill="#3e005e" d="M 670.5,751.5 C 672.167,752.833 673.833,754.167 675.5,755.5C 676.15,755.804 676.817,756.137 677.5,756.5C 678.448,759.423 679.781,762.089 681.5,764.5C 679.852,763.19 678.186,761.857 676.5,760.5C 674.372,757.483 672.372,754.483 670.5,751.5 Z"/></g>
</svg>
