<?xml version="1.0" encoding="UTF-8"?>
<!DOCTYPE svg PUBLIC "-//W3C//DTD SVG 1.1//EN" "http://www.w3.org/Graphics/SVG/1.1/DTD/svg11.dtd">
<svg xmlns="http://www.w3.org/2000/svg" version="1.1" width="1080px" height="1080px" style="shape-rendering:geometricPrecision; text-rendering:geometricPrecision; image-rendering:optimizeQuality; fill-rule:evenodd; clip-rule:evenodd" xmlns:xlink="http://www.w3.org/1999/xlink">
<g><path style="opacity:0.932" fill="#3c02f9" d="M 516.5,-0.5 C 528.5,-0.5 540.5,-0.5 552.5,-0.5C 591.148,1.01948 629.482,6.01948 667.5,14.5C 670.428,14.5651 673.095,15.2318 675.5,16.5C 678.854,18.2576 682.521,19.2576 686.5,19.5C 688.515,20.9238 690.848,21.5905 693.5,21.5C 695.214,22.7384 697.214,23.405 699.5,23.5C 730.039,32.7765 759.372,44.7765 787.5,59.5C 791.347,62.5926 795.68,64.9259 800.5,66.5C 802.336,68.588 804.669,69.9213 807.5,70.5C 809.336,72.588 811.669,73.9213 814.5,74.5C 818.323,77.9157 822.657,80.5824 827.5,82.5C 835.148,88.3266 843.148,93.6599 851.5,98.5C 996.173,206.823 1072.17,351.823 1079.5,533.5C 1079.5,543.167 1079.5,552.833 1079.5,562.5C 1068.63,727.418 999.298,861.585 871.5,965C 778.809,1036.29 673.809,1074.46 556.5,1079.5C 542.833,1079.5 529.167,1079.5 515.5,1079.5C 368.562,1070.27 244.396,1012.61 143,906.5C 98.706,858.003 63.8727,803.337 38.5,742.5C 38.5979,740.447 37.9313,738.78 36.5,737.5C 36.2671,734.458 35.2671,731.792 33.5,729.5C 33.2671,726.458 32.2671,723.792 30.5,721.5C 29.596,720.791 29.2627,719.791 29.5,718.5C 26.8705,708.948 23.8705,699.615 20.5,690.5C 20.2576,686.521 19.2576,682.854 17.5,679.5C 7.37457,638.288 1.37457,596.621 -0.5,554.5C -0.5,534.167 -0.5,513.833 -0.5,493.5C -0.166667,493.5 0.166667,493.5 0.5,493.5C 3.00057,476.322 5.33391,458.988 7.5,441.5C 7.54877,437.922 8.21543,434.589 9.5,431.5C 10.913,428.781 11.5797,425.781 11.5,422.5C 14.4372,413.418 16.7705,404.085 18.5,394.5C 18.5,394.167 18.5,393.833 18.5,393.5C 20.68,390.619 21.68,387.286 21.5,383.5C 23.8061,379.915 25.1394,375.915 25.5,371.5C 25.5,371.167 25.5,370.833 25.5,370.5C 27.2798,369.01 27.9465,367.01 27.5,364.5C 27.7959,362.597 28.4625,360.93 29.5,359.5C 31.9897,356.374 33.323,352.708 33.5,348.5C 34.2635,344.863 35.5968,341.53 37.5,338.5C 38.9313,337.22 39.5979,335.553 39.5,333.5C 40.9313,332.22 41.5979,330.553 41.5,328.5C 43.0502,323.07 45.3836,318.07 48.5,313.5C 49.9313,312.22 50.5979,310.553 50.5,308.5C 55.0714,297.688 60.4047,287.355 66.5,277.5C 68.4077,276.514 69.4077,274.848 69.5,272.5C 69.3284,271.508 69.6618,270.842 70.5,270.5C 71.9063,270.027 72.573,269.027 72.5,267.5C 72.3284,266.508 72.6618,265.842 73.5,265.5C 74.9063,265.027 75.573,264.027 75.5,262.5C 75.3284,261.508 75.6618,260.842 76.5,260.5C 77.9063,260.027 78.573,259.027 78.5,257.5C 78.3284,256.508 78.6618,255.842 79.5,255.5C 80.9063,255.027 81.573,254.027 81.5,252.5C 82.9063,252.027 83.573,251.027 83.5,249.5C 83.3284,248.508 83.6618,247.842 84.5,247.5C 85.9063,247.027 86.573,246.027 86.5,244.5C 87.9063,244.027 88.573,243.027 88.5,241.5C 89.9063,241.027 90.573,240.027 90.5,238.5C 91.9063,238.027 92.573,237.027 92.5,235.5C 94.2624,234.738 95.2624,233.404 95.5,231.5C 96.9063,231.027 97.573,230.027 97.5,228.5C 97.7376,226.596 98.7376,225.262 100.5,224.5C 101.906,224.027 102.573,223.027 102.5,221.5C 104.262,220.738 105.262,219.404 105.5,217.5C 107.262,216.738 108.262,215.404 108.5,213.5C 110.262,212.738 111.262,211.404 111.5,209.5C 113.587,208.415 114.92,206.749 115.5,204.5C 117.587,203.415 118.92,201.749 119.5,199.5C 121.914,198.089 123.581,196.089 124.5,193.5C 126.914,192.089 128.581,190.089 129.5,187.5C 132.903,185.1 135.57,182.1 137.5,178.5C 143.559,173.443 148.893,167.776 153.5,161.5C 157.5,158.167 161.167,154.5 164.5,150.5C 164.5,149.833 164.833,149.5 165.5,149.5C 264.263,57.6385 381.263,7.63853 516.5,-0.5 Z"/></g>
<g><path style="opacity:0.007" fill="#e6ddf1" d="M 552.5,-0.5 C 563.5,-0.5 574.5,-0.5 585.5,-0.5C 602.763,1.46635 620.096,3.96635 637.5,7C 647.877,8.56865 657.877,11.0687 667.5,14.5C 629.482,6.01948 591.148,1.01948 552.5,-0.5 Z"/></g>
<g><path style="opacity:0.004" fill="#ddcff7" d="M 675.5,16.5 C 679.479,16.7424 683.146,17.7424 686.5,19.5C 682.521,19.2576 678.854,18.2576 675.5,16.5 Z"/></g>
<g><path style="opacity:0.004" fill="#e1d6f6" d="M 686.5,19.5 C 689.152,19.4095 691.485,20.0762 693.5,21.5C 690.848,21.5905 688.515,20.9238 686.5,19.5 Z"/></g>
<g><path style="opacity:0.004" fill="#e2d8eb" d="M 693.5,21.5 C 695.898,21.2594 697.898,21.9261 699.5,23.5C 697.214,23.405 695.214,22.7384 693.5,21.5 Z"/></g>
<g><path style="opacity:0.005" fill="#ede7f3" d="M 493.5,-0.5 C 501.167,-0.5 508.833,-0.5 516.5,-0.5C 381.263,7.63853 264.263,57.6385 165.5,149.5C 199.167,115.998 236.833,87.8317 278.5,65C 345.814,28.5033 417.481,6.66999 493.5,-0.5 Z"/></g>
<g><path style="opacity:1" fill="#fdf50b" d="M 520.5,41.5 C 672.941,39.004 801.441,92.6707 906,202.5C 1009.51,319.742 1051.51,456.409 1032,612.5C 1007.05,759.345 933.215,874.179 810.5,957C 695.247,1029.64 570.58,1052.97 436.5,1027C 300.809,995.797 194.976,922.297 119,806.5C 46.6907,688.315 25.024,561.315 54,425.5C 87.6021,293.346 161.435,190.513 275.5,117C 350.695,70.7678 432.362,45.6011 520.5,41.5 Z"/></g>
<g><path style="opacity:0.004" fill="#e3d8dd" d="M 787.5,59.5 C 792.32,61.0741 796.653,63.4074 800.5,66.5C 795.68,64.9259 791.347,62.5926 787.5,59.5 Z"/></g>
<g><path style="opacity:0.004" fill="#ebe4e3" d="M 800.5,66.5 C 803.331,67.0787 805.664,68.412 807.5,70.5C 804.669,69.9213 802.336,68.588 800.5,66.5 Z"/></g>
<g><path style="opacity:1" fill="#3a00f9" d="M 500.5,70.5 C 654.381,62.3777 783.881,114.044 889,225.5C 992.492,346.116 1028.83,484.782 998,641.5C 964.291,779.511 885.791,883.345 762.5,953C 665.704,1003.73 563.371,1020.06 455.5,1002C 329.987,976.702 229.82,912.535 155,809.5C 81.05,700.433 55.3834,580.766 78,450.5C 109.216,307.46 188.049,199.627 314.5,127C 372.845,95.7527 434.845,76.9193 500.5,70.5 Z"/></g>
<g><path style="opacity:0.004" fill="#ece5dd" d="M 807.5,70.5 C 810.331,71.0787 812.664,72.412 814.5,74.5C 811.669,73.9213 809.336,72.588 807.5,70.5 Z"/></g>
<g><path style="opacity:0.004" fill="#e7dddb" d="M 814.5,74.5 C 819.368,76.3815 823.701,79.0482 827.5,82.5C 822.657,80.5824 818.323,77.9157 814.5,74.5 Z"/></g>
<g><path style="opacity:0.004" fill="#e8decb" d="M 827.5,82.5 C 836.196,86.844 844.196,92.1773 851.5,98.5C 843.148,93.6599 835.148,88.3266 827.5,82.5 Z"/></g>
<g><path style="opacity:0.012" fill="#f5f1ed" d="M 164.5,150.5 C 161.167,154.5 157.5,158.167 153.5,161.5C 156.167,156.833 159.833,153.167 164.5,150.5 Z"/></g>
<g><path style="opacity:0.016" fill="#d0bddf" d="M 153.5,161.5 C 148.893,167.776 143.559,173.443 137.5,178.5C 142.107,172.224 147.441,166.557 153.5,161.5 Z"/></g>
<g><path style="opacity:0.016" fill="#cfbdec" d="M 137.5,178.5 C 135.57,182.1 132.903,185.1 129.5,187.5C 131.43,183.9 134.097,180.9 137.5,178.5 Z"/></g>
<g><path style="opacity:0.012" fill="#cebae9" d="M 129.5,187.5 C 128.581,190.089 126.914,192.089 124.5,193.5C 125.419,190.911 127.086,188.911 129.5,187.5 Z"/></g>
<g><path style="opacity:0.012" fill="#cebae1" d="M 124.5,193.5 C 123.581,196.089 121.914,198.089 119.5,199.5C 120.419,196.911 122.086,194.911 124.5,193.5 Z"/></g>
<g><path style="opacity:1" fill="#fdf50b" d="M 520.5,200.5 C 575.662,198.081 628.329,208.248 678.5,231C 687.673,242.286 686.006,251.62 673.5,259C 669.833,259.667 666.167,259.667 662.5,259C 601.524,233.048 538.524,226.715 473.5,240C 388.755,260.257 323.255,307.091 277,380.5C 231.647,458.326 221.313,540.659 246,627.5C 252.186,648.392 260.52,668.392 271,687.5C 279.429,701.369 288.096,715.035 297,728.5C 297.496,743.334 290.33,749.834 275.5,748C 272.898,747.117 270.731,745.617 269,743.5C 216.644,671.77 194.311,591.436 202,502.5C 218.147,387.104 276.314,300.27 376.5,242C 421.599,217.684 469.599,203.851 520.5,200.5 Z"/></g>
<g><path style="opacity:0.012" fill="#d3c3ed" d="M 119.5,199.5 C 118.92,201.749 117.587,203.415 115.5,204.5C 116.08,202.251 117.413,200.585 119.5,199.5 Z"/></g>
<g><path style="opacity:0.021" fill="#f1ebdf" d="M 851.5,98.5 C 877.523,116.001 901.69,136.001 924,158.5C 940.362,176.859 956.695,195.192 973,213.5C 1017.69,272.883 1049.02,338.883 1067,411.5C 1071.4,432.589 1075.57,453.589 1079.5,474.5C 1079.5,494.167 1079.5,513.833 1079.5,533.5C 1072.17,351.823 996.173,206.823 851.5,98.5 Z"/></g>
<g><path style="opacity:0.012" fill="#d7c7f4" d="M 115.5,204.5 C 114.92,206.749 113.587,208.415 111.5,209.5C 112.08,207.251 113.413,205.585 115.5,204.5 Z"/></g>
<g><path style="opacity:0.012" fill="#d5c6ec" d="M 111.5,209.5 C 111.262,211.404 110.262,212.738 108.5,213.5C 108.738,211.596 109.738,210.262 111.5,209.5 Z"/></g>
<g><path style="opacity:0.012" fill="#d4c6e2" d="M 108.5,213.5 C 108.262,215.404 107.262,216.738 105.5,217.5C 105.738,215.596 106.738,214.262 108.5,213.5 Z"/></g>
<g><path style="opacity:0.012" fill="#d9cce5" d="M 105.5,217.5 C 105.262,219.404 104.262,220.738 102.5,221.5C 102.738,219.596 103.738,218.262 105.5,217.5 Z"/></g>
<g><path style="opacity:0.012" fill="#daceeb" d="M 102.5,221.5 C 102.573,223.027 101.906,224.027 100.5,224.5C 100.427,222.973 101.094,221.973 102.5,221.5 Z"/></g>
<g><path style="opacity:0.012" fill="#d6c8f1" d="M 97.5,228.5 C 97.573,230.027 96.9063,231.027 95.5,231.5C 95.427,229.973 96.0937,228.973 97.5,228.5 Z"/></g>
<g><path style="opacity:0.012" fill="#d4c4ef" d="M 95.5,231.5 C 95.2624,233.404 94.2624,234.738 92.5,235.5C 92.7376,233.596 93.7376,232.262 95.5,231.5 Z"/></g>
<g><path style="opacity:0.012" fill="#ddd1f1" d="M 92.5,235.5 C 92.573,237.027 91.9063,238.027 90.5,238.5C 90.427,236.973 91.0937,235.973 92.5,235.5 Z"/></g>
<g><path style="opacity:0.012" fill="#e0d6f0" d="M 90.5,238.5 C 90.573,240.027 89.9063,241.027 88.5,241.5C 88.427,239.973 89.0937,238.973 90.5,238.5 Z"/></g>
<g><path style="opacity:0.012" fill="#e4dbf5" d="M 88.5,241.5 C 88.573,243.027 87.9063,244.027 86.5,244.5C 86.427,242.973 87.0937,241.973 88.5,241.5 Z"/></g>
<g><path style="opacity:0.008" fill="#e9e1f9" d="M 86.5,244.5 C 86.573,246.027 85.9063,247.027 84.5,247.5C 84.427,245.973 85.0937,244.973 86.5,244.5 Z"/></g>
<g><path style="opacity:0.012" fill="#d5c6f2" d="M 83.5,249.5 C 83.573,251.027 82.9063,252.027 81.5,252.5C 81.427,250.973 82.0937,249.973 83.5,249.5 Z"/></g>
<g><path style="opacity:0.012" fill="#e2d8f7" d="M 81.5,252.5 C 81.573,254.027 80.9063,255.027 79.5,255.5C 79.427,253.973 80.0937,252.973 81.5,252.5 Z"/></g>
<g><path style="opacity:0.012" fill="#d3c2ef" d="M 78.5,257.5 C 78.573,259.027 77.9063,260.027 76.5,260.5C 76.427,258.973 77.0937,257.973 78.5,257.5 Z"/></g>
<g><path style="opacity:0.012" fill="#d8caf3" d="M 75.5,262.5 C 75.573,264.027 74.9063,265.027 73.5,265.5C 73.427,263.973 74.0937,262.973 75.5,262.5 Z"/></g>
<g><path style="opacity:0.012" fill="#ddd0f9" d="M 72.5,267.5 C 72.573,269.027 71.9063,270.027 70.5,270.5C 70.427,268.973 71.0937,267.973 72.5,267.5 Z"/></g>
<g><path style="opacity:0.035" fill="#bb99f9" d="M 69.5,272.5 C 69.4077,274.848 68.4077,276.514 66.5,277.5C 66.7497,275.326 67.7497,273.659 69.5,272.5 Z"/></g>
<g><path style="opacity:1" fill="#fdf509" d="M 765.5,297.5 C 770.08,297.113 774.414,297.947 778.5,300C 848.556,372.014 881.389,458.514 877,559.5C 866.528,678.68 810.694,769.513 709.5,832C 617.225,882.765 521.225,891.098 421.5,857C 400.213,848.856 379.879,838.856 360.5,827C 351.965,818.973 351.298,810.307 358.5,801C 363.324,797.676 368.657,796.676 374.5,798C 470.054,854.692 568.72,860.692 670.5,816C 770.97,764.645 828.803,682.811 844,570.5C 850.723,495.388 833.056,426.721 791,364.5C 779.756,349.252 767.756,334.586 755,320.5C 751.487,309.532 754.987,301.865 765.5,297.5 Z"/></g>
<g><path style="opacity:0.004" fill="#e3d8fa" d="M 50.5,308.5 C 50.5979,310.553 49.9313,312.22 48.5,313.5C 48.4021,311.447 49.0687,309.78 50.5,308.5 Z"/></g>
<g><path style="opacity:0.004" fill="#eae2fb" d="M 41.5,328.5 C 41.5979,330.553 40.9313,332.22 39.5,333.5C 39.4021,331.447 40.0687,329.78 41.5,328.5 Z"/></g>
<g><path style="opacity:0.004" fill="#e7defc" d="M 39.5,333.5 C 39.5979,335.553 38.9313,337.22 37.5,338.5C 37.4021,336.447 38.0687,334.78 39.5,333.5 Z"/></g>
<g><path style="opacity:0.031" fill="#aa83f7" d="M 33.5,348.5 C 33.323,352.708 31.9897,356.374 29.5,359.5C 30.0653,355.463 31.3987,351.797 33.5,348.5 Z"/></g>
<g><path style="opacity:0.031" fill="#c8abfb" d="M 27.5,364.5 C 27.9465,367.01 27.2798,369.01 25.5,370.5C 25.595,368.214 26.2616,366.214 27.5,364.5 Z"/></g>
<g><path style="opacity:0.02" fill="#c4aaf9" d="M 25.5,371.5 C 25.1394,375.915 23.8061,379.915 21.5,383.5C 22.2613,379.216 23.5947,375.216 25.5,371.5 Z"/></g>
<g><path style="opacity:0.02" fill="#bfa3fb" d="M 21.5,383.5 C 21.68,387.286 20.68,390.619 18.5,393.5C 19.1301,389.952 20.1301,386.619 21.5,383.5 Z"/></g>
<g><path style="opacity:1" fill="#fdf604" d="M 469.5,394.5 C 478.939,392.798 485.772,396.131 490,404.5C 490.667,494.167 490.667,583.833 490,673.5C 483.533,685.323 474.699,687.489 463.5,680C 461.623,677.749 460.123,675.249 459,672.5C 458.333,583.833 458.333,495.167 459,406.5C 460.936,401.068 464.436,397.068 469.5,394.5 Z"/></g>
<g><path style="opacity:1" fill="#fdf603" d="M 598.5,394.5 C 607.718,393.193 614.551,396.526 619,404.5C 619.667,494.167 619.667,583.833 619,673.5C 612.533,685.323 603.699,687.489 592.5,680C 590.623,677.749 589.123,675.249 588,672.5C 587.333,583.833 587.333,495.167 588,406.5C 589.936,401.068 593.436,397.068 598.5,394.5 Z"/></g>
<g><path style="opacity:0.024" fill="#c0a4fa" d="M 18.5,394.5 C 16.7705,404.085 14.4372,413.418 11.5,422.5C 12.9173,412.831 15.2506,403.497 18.5,394.5 Z"/></g>
<g><path style="opacity:0.02" fill="#cab3fe" d="M 11.5,422.5 C 11.5797,425.781 10.913,428.781 9.5,431.5C 9.42032,428.219 10.087,425.219 11.5,422.5 Z"/></g>
<g><path style="opacity:0.024" fill="#bea2fa" d="M 7.5,441.5 C 5.33391,458.988 3.00057,476.322 0.5,493.5C 1.37316,475.838 3.70649,458.505 7.5,441.5 Z"/></g>
<g><path style="opacity:0.014" fill="#f0eaee" d="M 1079.5,562.5 C 1079.5,575.167 1079.5,587.833 1079.5,600.5C 1057.34,764.424 979.004,893.59 844.5,988C 770.325,1037.34 688.991,1067.84 600.5,1079.5C 585.833,1079.5 571.167,1079.5 556.5,1079.5C 673.809,1074.46 778.809,1036.29 871.5,965C 999.298,861.585 1068.63,727.418 1079.5,562.5 Z"/></g>
<g><path style="opacity:0.004" fill="#d6c7ef" d="M -0.5,554.5 C 1.37457,596.621 7.37457,638.288 17.5,679.5C 13.987,668.803 11.1537,657.803 9,646.5C 4.92607,624.481 1.75941,602.481 -0.5,580.5C -0.5,571.833 -0.5,563.167 -0.5,554.5 Z"/></g>
<g><path style="opacity:0.004" fill="#daccf7" d="M 17.5,679.5 C 19.2576,682.854 20.2576,686.521 20.5,690.5C 18.7424,687.146 17.7424,683.479 17.5,679.5 Z"/></g>
<g><path style="opacity:0.004" fill="#e2d7f8" d="M 20.5,690.5 C 23.8705,699.615 26.8705,708.948 29.5,718.5C 25.3245,709.637 22.3245,700.304 20.5,690.5 Z"/></g>
<g><path style="opacity:0.012" fill="#d7c8f3" d="M 30.5,721.5 C 32.2671,723.792 33.2671,726.458 33.5,729.5C 31.7329,727.208 30.7329,724.542 30.5,721.5 Z"/></g>
<g><path style="opacity:0.012" fill="#ddd0f6" d="M 33.5,729.5 C 35.2671,731.792 36.2671,734.458 36.5,737.5C 34.7329,735.208 33.7329,732.542 33.5,729.5 Z"/></g>
<g><path style="opacity:0.012" fill="#e3d9f5" d="M 36.5,737.5 C 37.9313,738.78 38.5979,740.447 38.5,742.5C 37.0687,741.22 36.4021,739.553 36.5,737.5 Z"/></g>
<g><path style="opacity:0.004" fill="#fefffe" d="M 78.5,841.5 C 79.8333,842.167 79.8333,842.167 78.5,841.5 Z"/></g>
<g><path style="opacity:0.01" fill="#f0eaf7" d="M 38.5,742.5 C 63.8727,803.337 98.706,858.003 143,906.5C 244.396,1012.61 368.562,1070.27 515.5,1079.5C 504.833,1079.5 494.167,1079.5 483.5,1079.5C 401.651,1069.16 325.318,1043 254.5,1001C 164.789,943.627 96.6228,867.127 50,771.5C 45.5932,762.026 41.7599,752.359 38.5,742.5 Z"/></g>
<g><path style="opacity:0.004" fill="#fefffe" d="M 233.5,997.5 C 234.833,998.167 234.833,998.167 233.5,997.5 Z"/></g>
</svg>
