<?xml version="1.0" encoding="UTF-8"?>
<!DOCTYPE svg PUBLIC "-//W3C//DTD SVG 1.1//EN" "http://www.w3.org/Graphics/SVG/1.1/DTD/svg11.dtd">
<svg xmlns="http://www.w3.org/2000/svg" version="1.1" width="1080px" height="1080px" style="shape-rendering:geometricPrecision; text-rendering:geometricPrecision; image-rendering:optimizeQuality; fill-rule:evenodd; clip-rule:evenodd" xmlns:xlink="http://www.w3.org/1999/xlink">
<g><path style="opacity:0.913" fill="#3c03f9" d="M 516.5,-0.5 C 535.5,-0.5 554.5,-0.5 573.5,-0.5C 581.702,0.552281 590.036,1.55228 598.5,2.5C 701.651,14.9299 793.984,52.9299 875.5,116.5C 900.072,137.403 923.406,159.736 945.5,183.5C 950.088,190.425 955.422,196.758 961.5,202.5C 962.08,204.749 963.413,206.415 965.5,207.5C 965.738,209.404 966.738,210.738 968.5,211.5C 973.347,219.196 978.68,226.529 984.5,233.5C 992.836,246.841 1001.17,260.175 1009.5,273.5C 1010.08,276.331 1011.41,278.664 1013.5,280.5C 1018.66,292.151 1024.33,303.484 1030.5,314.5C 1031.04,317.912 1032.38,320.912 1034.5,323.5C 1036.98,331.118 1039.98,338.451 1043.5,345.5C 1048.66,361.647 1053.99,377.647 1059.5,393.5C 1063.04,409.313 1066.71,424.98 1070.5,440.5C 1070.44,445.076 1071.1,449.409 1072.5,453.5C 1073.9,457.591 1074.56,461.924 1074.5,466.5C 1076.75,488.94 1078.42,511.274 1079.5,533.5C 1079.5,543.167 1079.5,552.833 1079.5,562.5C 1077.89,576.996 1076.56,591.663 1075.5,606.5C 1074.71,615.711 1073.38,624.711 1071.5,633.5C 1070.1,636.909 1069.43,640.575 1069.5,644.5C 1069.78,646.415 1069.45,648.081 1068.5,649.5C 1067.09,652.219 1066.42,655.219 1066.5,658.5C 1063.9,666.24 1061.9,674.24 1060.5,682.5C 1060.59,685.152 1059.92,687.485 1058.5,689.5C 1057.08,691.515 1056.41,693.848 1056.5,696.5C 1052.33,712.018 1047,727.018 1040.5,741.5C 1039.07,742.78 1038.4,744.447 1038.5,746.5C 1037.07,747.78 1036.4,749.447 1036.5,751.5C 1036.67,752.492 1036.34,753.158 1035.5,753.5C 1033.71,755.426 1032.71,757.759 1032.5,760.5C 1032.67,761.492 1032.34,762.158 1031.5,762.5C 1029.38,765.088 1028.04,768.088 1027.5,771.5C 1025.01,777.818 1022.01,783.818 1018.5,789.5C 1016.08,792.008 1014.41,795.008 1013.5,798.5C 1013.67,799.492 1013.34,800.158 1012.5,800.5C 1010.75,801.659 1009.75,803.326 1009.5,805.5C 1009.67,806.492 1009.34,807.158 1008.5,807.5C 1006.75,808.659 1005.75,810.326 1005.5,812.5C 1003.41,814.336 1002.08,816.669 1001.5,819.5C 999.05,821.629 997.383,824.296 996.5,827.5C 995.094,827.973 994.427,828.973 994.5,830.5C 990.007,836.148 986.007,842.148 982.5,848.5C 981.094,848.973 980.427,849.973 980.5,851.5C 978.738,852.262 977.738,853.596 977.5,855.5C 976.094,855.973 975.427,856.973 975.5,858.5C 973.738,859.262 972.738,860.596 972.5,862.5C 970.738,863.262 969.738,864.596 969.5,866.5C 967.413,867.585 966.08,869.251 965.5,871.5C 963.738,872.262 962.738,873.596 962.5,875.5C 962.5,876.167 962.167,876.5 961.5,876.5C 958.129,879.871 955.129,883.537 952.5,887.5C 950.086,888.911 948.419,890.911 947.5,893.5C 947.5,894.167 947.167,894.5 946.5,894.5C 855.843,995.172 743.176,1055.51 608.5,1075.5C 607.833,1075.5 607.167,1075.5 606.5,1075.5C 589.681,1076.79 573.014,1078.13 556.5,1079.5C 542.833,1079.5 529.167,1079.5 515.5,1079.5C 491.53,1077.77 467.53,1075.1 443.5,1071.5C 441.585,1071.78 439.919,1071.45 438.5,1070.5C 433.744,1068.88 428.744,1067.88 423.5,1067.5C 414.124,1064.41 404.457,1062.07 394.5,1060.5C 391.619,1058.32 388.286,1057.32 384.5,1057.5C 382.562,1055.84 380.228,1055.17 377.5,1055.5C 376.01,1053.72 374.01,1053.05 371.5,1053.5C 367.201,1051.06 362.534,1049.4 357.5,1048.5C 355.214,1048.41 353.214,1047.74 351.5,1046.5C 350.22,1045.07 348.553,1044.4 346.5,1044.5C 344.447,1044.6 342.78,1043.93 341.5,1042.5C 340.22,1041.07 338.553,1040.4 336.5,1040.5C 335.22,1039.07 333.553,1038.4 331.5,1038.5C 330.22,1037.07 328.553,1036.4 326.5,1036.5C 325.508,1036.67 324.842,1036.34 324.5,1035.5C 323.22,1034.07 321.553,1033.4 319.5,1033.5C 317.181,1033.01 315.181,1032.01 313.5,1030.5C 311.574,1028.71 309.241,1027.71 306.5,1027.5C 303.515,1026.67 300.849,1025.34 298.5,1023.5C 295.992,1021.08 292.992,1019.41 289.5,1018.5C 285.849,1017.34 282.515,1015.67 279.5,1013.5C 278.341,1011.75 276.674,1010.75 274.5,1010.5C 273.508,1010.67 272.842,1010.34 272.5,1009.5C 271.341,1007.75 269.674,1006.75 267.5,1006.5C 266.508,1006.67 265.842,1006.34 265.5,1005.5C 264.341,1003.75 262.674,1002.75 260.5,1002.5C 260.027,1001.09 259.027,1000.43 257.5,1000.5C 256.508,1000.67 255.842,1000.34 255.5,999.5C 255.027,998.094 254.027,997.427 252.5,997.5C 252.027,996.094 251.027,995.427 249.5,995.5C 249.027,994.094 248.027,993.427 246.5,993.5C 245.508,993.672 244.842,993.338 244.5,992.5C 244.027,991.094 243.027,990.427 241.5,990.5C 241.027,989.094 240.027,988.427 238.5,988.5C 238.027,987.094 237.027,986.427 235.5,986.5C 234.738,984.738 233.404,983.738 231.5,983.5C 231.027,982.094 230.027,981.427 228.5,981.5C 228.027,980.094 227.027,979.427 225.5,979.5C 224.738,977.738 223.404,976.738 221.5,976.5C 220.738,974.738 219.404,973.738 217.5,973.5C 216.738,971.738 215.404,970.738 213.5,970.5C 212.738,968.738 211.404,967.738 209.5,967.5C 208.415,965.413 206.749,964.08 204.5,963.5C 203.415,961.413 201.749,960.08 199.5,959.5C 198.089,957.086 196.089,955.419 193.5,954.5C 192.089,952.086 190.089,950.419 187.5,949.5C 185.431,946.427 182.764,944.094 179.5,942.5C 176.437,938.434 172.771,935.101 168.5,932.5C 167.5,932.167 166.833,931.5 166.5,930.5C 160.5,923.833 154.167,917.5 147.5,911.5C 145.833,910.5 144.5,909.167 143.5,907.5C 141.906,904.236 139.573,901.569 136.5,899.5C 135.5,899.167 134.833,898.5 134.5,897.5C 133.581,894.911 131.914,892.911 129.5,891.5C 128.833,891.5 128.5,891.167 128.5,890.5C 127.92,888.251 126.587,886.585 124.5,885.5C 123.833,885.5 123.5,885.167 123.5,884.5C 122.92,882.251 121.587,880.585 119.5,879.5C 118.833,879.5 118.5,879.167 118.5,878.5C 118.262,876.596 117.262,875.262 115.5,874.5C 114.833,874.5 114.5,874.167 114.5,873.5C 114.262,871.596 113.262,870.262 111.5,869.5C 111.262,867.596 110.262,866.262 108.5,865.5C 107.833,865.5 107.5,865.167 107.5,864.5C 107.573,862.973 106.906,861.973 105.5,861.5C 104.833,861.5 104.5,861.167 104.5,860.5C 104.573,858.973 103.906,857.973 102.5,857.5C 102.262,855.596 101.262,854.262 99.5,853.5C 99.573,851.973 98.9063,850.973 97.5,850.5C 97.573,848.973 96.9063,847.973 95.5,847.5C 94.8333,847.5 94.5,847.167 94.5,846.5C 94.573,844.973 93.9063,843.973 92.5,843.5C 92.573,841.973 91.9063,840.973 90.5,840.5C 90.573,838.973 89.9063,837.973 88.5,837.5C 88.573,835.973 87.9063,834.973 86.5,834.5C 86.573,832.973 85.9063,831.973 84.5,831.5C 84.573,829.973 83.9063,828.973 82.5,828.5C 81.6618,828.158 81.3284,827.492 81.5,826.5C 81.573,824.973 80.9063,823.973 79.5,823.5C 78.6618,823.158 78.3284,822.492 78.5,821.5C 78.573,819.973 77.9063,818.973 76.5,818.5C 75.6618,818.158 75.3284,817.492 75.5,816.5C 75.573,814.973 74.9063,813.973 73.5,813.5C 72.6618,813.158 72.3284,812.492 72.5,811.5C 72.2503,809.326 71.2503,807.659 69.5,806.5C 68.6618,806.158 68.3284,805.492 68.5,804.5C 68.2503,802.326 67.2503,800.659 65.5,799.5C 63.659,797.151 62.3257,794.485 61.5,791.5C 61.2503,789.326 60.2503,787.659 58.5,786.5C 56.9925,784.819 55.9925,782.819 55.5,780.5C 54.2895,775.749 52.2895,771.416 49.5,767.5C 48.3263,766.486 47.6596,765.153 47.5,763.5C 47.2927,760.759 46.2927,758.426 44.5,756.5C 43.6618,756.158 43.3284,755.492 43.5,754.5C 43.5979,752.447 42.9313,750.78 41.5,749.5C 41.2927,746.759 40.2927,744.426 38.5,742.5C 38.5979,740.447 37.9313,738.78 36.5,737.5C 36.2671,734.458 35.2671,731.792 33.5,729.5C 33.2671,726.458 32.2671,723.792 30.5,721.5C 29.596,720.791 29.2627,719.791 29.5,718.5C 26.8705,708.948 23.8705,699.615 20.5,690.5C 8.45076,645.811 1.45076,600.478 -0.5,554.5C -0.5,537.167 -0.5,519.833 -0.5,502.5C 0.983341,495.721 1.65001,488.721 1.5,481.5C 1.19,478.287 1.52333,475.287 2.5,472.5C 5.45164,460.453 7.45164,448.12 8.5,435.5C 8.5,435.167 8.5,434.833 8.5,434.5C 9.11742,434.389 9.61742,434.056 10,433.5C 10.4974,430.854 10.6641,428.187 10.5,425.5C 11.1174,425.389 11.6174,425.056 12,424.5C 12.4974,421.854 12.6641,419.187 12.5,416.5C 13.2317,410.906 14.565,405.573 16.5,400.5C 18.1628,398.562 18.8294,396.228 18.5,393.5C 20.68,390.619 21.68,387.286 21.5,383.5C 24.6789,377.626 26.6789,371.293 27.5,364.5C 29.3969,362.302 30.3969,359.636 30.5,356.5C 32.8846,353.347 34.2179,349.68 34.5,345.5C 35.9313,344.22 36.5979,342.553 36.5,340.5C 37.9313,339.22 38.5979,337.553 38.5,335.5C 39.9313,334.22 40.5979,332.553 40.5,330.5C 42.6246,327.912 43.9579,324.912 44.5,321.5C 47.2895,317.584 49.2895,313.251 50.5,308.5C 56.4182,297.664 62.0849,286.664 67.5,275.5C 73.6658,266.508 79.3325,257.174 84.5,247.5C 88.5746,243.024 91.9079,238.024 94.5,232.5C 96.9,230.704 98.5667,228.37 99.5,225.5C 105.262,219.404 110.262,212.738 114.5,205.5C 116.587,204.415 117.92,202.749 118.5,200.5C 120.914,199.089 122.581,197.089 123.5,194.5C 125.914,193.089 127.581,191.089 128.5,188.5C 131.903,186.1 134.57,183.1 136.5,179.5C 147.284,169.26 157.618,158.593 167.5,147.5C 180.172,136.493 192.839,125.493 205.5,114.5C 207.404,114.262 208.738,113.262 209.5,111.5C 211.404,111.262 212.738,110.262 213.5,108.5C 226.683,99.7438 239.683,90.7438 252.5,81.5C 282.757,63.7049 314.09,48.0383 346.5,34.5C 349.542,34.2671 352.208,33.2671 354.5,31.5C 358.081,31.8624 361.081,30.8624 363.5,28.5C 368.534,27.6018 373.201,25.9351 377.5,23.5C 380.152,23.5905 382.485,22.9238 384.5,21.5C 388.286,21.68 391.619,20.68 394.5,18.5C 395.568,17.5655 396.901,17.2322 398.5,17.5C 403.899,17.2353 408.899,15.902 413.5,13.5C 416.187,13.6641 418.854,13.4974 421.5,13C 422.056,12.6174 422.389,12.1174 422.5,11.5C 438.152,9.00252 453.819,6.50252 469.5,4C 485.301,2.30364 500.967,0.803636 516.5,-0.5 Z"/></g>
<g><path style="opacity:0.004" fill="#f5f1f5" d="M 875.5,116.5 C 793.984,52.9299 701.651,14.9299 598.5,2.5C 603.814,2.88735 608.98,2.22068 614,0.5C 708.584,14.2267 793.751,49.7267 869.5,107C 868.483,108.049 868.316,109.216 869,110.5C 871.664,111.998 873.83,113.998 875.5,116.5 Z"/></g>
<g><path style="opacity:0.008" fill="#e6ddef" d="M 492.5,-0.5 C 500.5,-0.5 508.5,-0.5 516.5,-0.5C 500.967,0.803636 485.301,2.30364 469.5,4C 453.819,6.50252 438.152,9.00252 422.5,11.5C 445.62,6.20225 468.953,2.20225 492.5,-0.5 Z"/></g>
<g><path style="opacity:0.059" fill="#c1a1fa" d="M 422.5,11.5 C 422.389,12.1174 422.056,12.6174 421.5,13C 418.854,13.4974 416.187,13.6641 413.5,13.5C 416.219,12.087 419.219,11.4203 422.5,11.5 Z"/></g>
<g><path style="opacity:0.009" fill="#e2d6f9" d="M 413.5,13.5 C 408.899,15.902 403.899,17.2353 398.5,17.5C 403.191,15.409 408.191,14.0756 413.5,13.5 Z"/></g>
<g><path style="opacity:0.031" fill="#cfbbf3" d="M 394.5,18.5 C 391.619,20.68 388.286,21.68 384.5,21.5C 387.505,19.7234 390.838,18.7234 394.5,18.5 Z"/></g>
<g><path style="opacity:0.008" fill="#f0ebf6" d="M 384.5,21.5 C 382.485,22.9238 380.152,23.5905 377.5,23.5C 379.515,22.0762 381.848,21.4095 384.5,21.5 Z"/></g>
<g><path style="opacity:0.006" fill="#eee8f8" d="M 377.5,23.5 C 373.201,25.9351 368.534,27.6018 363.5,28.5C 367.799,26.0649 372.466,24.3982 377.5,23.5 Z"/></g>
<g><path style="opacity:0.051" fill="#b089ed" d="M 363.5,28.5 C 361.081,30.8624 358.081,31.8624 354.5,31.5C 357.215,29.9281 360.215,28.9281 363.5,28.5 Z"/></g>
<g><path style="opacity:0.008" fill="#eae3f6" d="M 354.5,31.5 C 352.208,33.2671 349.542,34.2671 346.5,34.5C 348.792,32.7329 351.458,31.7329 354.5,31.5 Z"/></g>
<g><path style="opacity:1" fill="#fdf50b" d="M 520.5,41.5 C 672.941,39.004 801.441,92.6707 906,202.5C 1009.51,319.742 1051.51,456.409 1032,612.5C 1007.05,759.345 933.215,874.179 810.5,957C 695.247,1029.64 570.58,1052.97 436.5,1027C 300.809,995.797 194.976,922.297 119,806.5C 46.6907,688.315 25.024,561.315 54,425.5C 87.6021,293.346 161.435,190.513 275.5,117C 350.695,70.7678 432.362,45.6011 520.5,41.5 Z"/></g>
<g><path style="opacity:0.006" fill="#eae2ef" d="M 346.5,34.5 C 314.09,48.0383 282.757,63.7049 252.5,81.5C 281.853,62.1566 313.187,46.49 346.5,34.5 Z"/></g>
<g><path style="opacity:1" fill="#3a00f9" d="M 500.5,70.5 C 654.381,62.3777 783.881,114.044 889,225.5C 992.492,346.116 1028.83,484.782 998,641.5C 964.291,779.511 885.791,883.345 762.5,953C 665.704,1003.73 563.371,1020.06 455.5,1002C 329.987,976.702 229.82,912.535 155,809.5C 81.05,700.433 55.3834,580.766 78,450.5C 109.216,307.46 188.049,199.627 314.5,127C 372.845,95.7527 434.845,76.9193 500.5,70.5 Z"/></g>
<g><path style="opacity:0.008" fill="#ebe3e8" d="M 252.5,81.5 C 239.683,90.7438 226.683,99.7438 213.5,108.5C 217.686,104.153 222.353,100.32 227.5,97C 235.554,91.3102 243.887,86.1436 252.5,81.5 Z"/></g>
<g><path style="opacity:0.004" fill="#fefffe" d="M 873.5,108.5 C 872.244,108.539 871.244,108.039 870.5,107C 871.998,106.415 872.998,106.915 873.5,108.5 Z"/></g>
<g><path style="opacity:0.004" fill="#fefffe" d="M 873.5,108.5 C 874.833,109.167 874.833,109.167 873.5,108.5 Z"/></g>
<g><path style="opacity:0.02" fill="#dfd4e3" d="M 213.5,108.5 C 212.738,110.262 211.404,111.262 209.5,111.5C 210.262,109.738 211.596,108.738 213.5,108.5 Z"/></g>
<g><path style="opacity:0.004" fill="#fefffe" d="M 876.5,110.5 C 875.833,109.167 875.833,109.167 876.5,110.5 Z"/></g>
<g><path style="opacity:0.004" fill="#fefffe" d="M 876.5,110.5 C 877.167,110.5 877.5,110.833 877.5,111.5C 877.167,111.167 876.833,110.833 876.5,110.5 Z"/></g>
<g><path style="opacity:0.004" fill="#fefffe" d="M 877.5,111.5 C 878.833,112.167 878.833,112.167 877.5,111.5 Z"/></g>
<g><path style="opacity:0.02" fill="#e0d6eb" d="M 209.5,111.5 C 208.738,113.262 207.404,114.262 205.5,114.5C 206.262,112.738 207.596,111.738 209.5,111.5 Z"/></g>
<g><path style="opacity:0.004" fill="#fefffe" d="M 881.5,114.5 C 880.833,113.167 880.833,113.167 881.5,114.5 Z"/></g>
<g><path style="opacity:0.004" fill="#fefffe" d="M 881.5,114.5 C 882.167,114.5 882.5,114.833 882.5,115.5C 882.167,115.167 881.833,114.833 881.5,114.5 Z"/></g>
<g><path style="opacity:0.004" fill="#fefffe" d="M 882.5,115.5 C 883.833,116.167 883.833,116.167 882.5,115.5 Z"/></g>
<g><path style="opacity:0.004" fill="#eadfbd" d="M 875.5,116.5 C 879.617,119.068 883.617,121.902 887.5,125C 905.66,141.16 923.16,157.994 940,175.5C 942.08,178.065 943.913,180.732 945.5,183.5C 923.406,159.736 900.072,137.403 875.5,116.5 Z"/></g>
<g><path style="opacity:0.004" fill="#fefffe" d="M 886.5,118.5 C 885.833,117.167 885.833,117.167 886.5,118.5 Z"/></g>
<g><path style="opacity:0.004" fill="#fefffe" d="M 886.5,118.5 C 887.167,118.5 887.5,118.833 887.5,119.5C 887.167,119.167 886.833,118.833 886.5,118.5 Z"/></g>
<g><path style="opacity:0.004" fill="#fefffe" d="M 887.5,119.5 C 888.167,119.5 888.5,119.833 888.5,120.5C 888.167,120.167 887.833,119.833 887.5,119.5 Z"/></g>
<g><path style="opacity:0.004" fill="#fefffe" d="M 888.5,120.5 C 889.833,121.167 889.833,121.167 888.5,120.5 Z"/></g>
<g><path style="opacity:0.004" fill="#fefffe" d="M 892.5,123.5 C 891.833,122.167 891.833,122.167 892.5,123.5 Z"/></g>
<g><path style="opacity:0.004" fill="#fefffe" d="M 892.5,123.5 C 893.167,123.5 893.5,123.833 893.5,124.5C 893.167,124.167 892.833,123.833 892.5,123.5 Z"/></g>
<g><path style="opacity:0.004" fill="#fefffe" d="M 893.5,124.5 C 894.167,124.5 894.5,124.833 894.5,125.5C 894.167,125.167 893.833,124.833 893.5,124.5 Z"/></g>
<g><path style="opacity:0.004" fill="#fefffe" d="M 894.5,125.5 C 895.167,125.5 895.5,125.833 895.5,126.5C 895.167,126.167 894.833,125.833 894.5,125.5 Z"/></g>
<g><path style="opacity:0.004" fill="#fefffe" d="M 895.5,126.5 C 896.833,127.167 896.833,127.167 895.5,126.5 Z"/></g>
<g><path style="opacity:0.004" fill="#fefffe" d="M 899.5,129.5 C 898.833,128.167 898.833,128.167 899.5,129.5 Z"/></g>
<g><path style="opacity:0.004" fill="#fefffe" d="M 899.5,129.5 C 900.167,129.5 900.5,129.833 900.5,130.5C 900.167,130.167 899.833,129.833 899.5,129.5 Z"/></g>
<g><path style="opacity:0.004" fill="#fefffe" d="M 900.5,130.5 C 901.167,130.5 901.5,130.833 901.5,131.5C 901.167,131.167 900.833,130.833 900.5,130.5 Z"/></g>
<g><path style="opacity:0.004" fill="#fefffe" d="M 901.5,131.5 C 902.167,131.5 902.5,131.833 902.5,132.5C 902.167,132.167 901.833,131.833 901.5,131.5 Z"/></g>
<g><path style="opacity:0.004" fill="#fefffe" d="M 902.5,132.5 C 903.167,132.5 903.5,132.833 903.5,133.5C 903.167,133.167 902.833,132.833 902.5,132.5 Z"/></g>
<g><path style="opacity:0.004" fill="#fefffe" d="M 903.5,133.5 C 904.833,134.167 904.833,134.167 903.5,133.5 Z"/></g>
<g><path style="opacity:0.004" fill="#fefffe" d="M 907.5,136.5 C 906.833,135.167 906.833,135.167 907.5,136.5 Z"/></g>
<g><path style="opacity:0.004" fill="#fefffe" d="M 907.5,136.5 C 908.167,136.5 908.5,136.833 908.5,137.5C 908.167,137.167 907.833,136.833 907.5,136.5 Z"/></g>
<g><path style="opacity:0.004" fill="#fefffe" d="M 908.5,137.5 C 909.167,137.5 909.5,137.833 909.5,138.5C 909.167,138.167 908.833,137.833 908.5,137.5 Z"/></g>
<g><path style="opacity:0.004" fill="#fefffe" d="M 909.5,138.5 C 910.167,138.5 910.5,138.833 910.5,139.5C 910.167,139.167 909.833,138.833 909.5,138.5 Z"/></g>
<g><path style="opacity:0.004" fill="#fefffe" d="M 910.5,139.5 C 911.167,139.5 911.5,139.833 911.5,140.5C 911.167,140.167 910.833,139.833 910.5,139.5 Z"/></g>
<g><path style="opacity:0.027" fill="#dccfd7" d="M 205.5,114.5 C 192.839,125.493 180.172,136.493 167.5,147.5C 178.979,135.013 191.646,124.013 205.5,114.5 Z"/></g>
<g><path style="opacity:0.004" fill="#fefffe" d="M 911.5,140.5 C 912.167,140.5 912.5,140.833 912.5,141.5C 912.167,141.167 911.833,140.833 911.5,140.5 Z"/></g>
<g><path style="opacity:0.004" fill="#fefffe" d="M 912.5,141.5 C 913.167,141.5 913.5,141.833 913.5,142.5C 913.167,142.167 912.833,141.833 912.5,141.5 Z"/></g>
<g><path style="opacity:0.004" fill="#fefffe" d="M 913.5,142.5 C 914.167,142.5 914.5,142.833 914.5,143.5C 914.167,143.167 913.833,142.833 913.5,142.5 Z"/></g>
<g><path style="opacity:0.004" fill="#fefffe" d="M 914.5,143.5 C 915.167,143.5 915.5,143.833 915.5,144.5C 915.167,144.167 914.833,143.833 914.5,143.5 Z"/></g>
<g><path style="opacity:0.004" fill="#fefffe" d="M 915.5,144.5 C 916.167,144.5 916.5,144.833 916.5,145.5C 916.167,145.167 915.833,144.833 915.5,144.5 Z"/></g>
<g><path style="opacity:0.004" fill="#fefffe" d="M 916.5,145.5 C 917.167,145.5 917.5,145.833 917.5,146.5C 917.167,146.167 916.833,145.833 916.5,145.5 Z"/></g>
<g><path style="opacity:0.004" fill="#fefffe" d="M 917.5,146.5 C 918.167,146.5 918.5,146.833 918.5,147.5C 918.167,147.167 917.833,146.833 917.5,146.5 Z"/></g>
<g><path style="opacity:0.004" fill="#fefffe" d="M 918.5,147.5 C 919.167,147.5 919.5,147.833 919.5,148.5C 919.167,148.167 918.833,147.833 918.5,147.5 Z"/></g>
<g><path style="opacity:0.004" fill="#fefffe" d="M 919.5,148.5 C 920.167,148.5 920.5,148.833 920.5,149.5C 920.167,149.167 919.833,148.833 919.5,148.5 Z"/></g>
<g><path style="opacity:0.004" fill="#fefffe" d="M 920.5,149.5 C 921.833,150.167 921.833,150.167 920.5,149.5 Z"/></g>
<g><path style="opacity:0.004" fill="#fefffe" d="M 924.5,152.5 C 923.833,151.167 923.833,151.167 924.5,152.5 Z"/></g>
<g><path style="opacity:0.004" fill="#fefffe" d="M 924.5,152.5 C 925.833,153.167 925.833,153.167 924.5,152.5 Z"/></g>
<g><path style="opacity:0.004" fill="#fefffe" d="M 927.5,156.5 C 926.833,155.167 926.833,155.167 927.5,156.5 Z"/></g>
<g><path style="opacity:0.004" fill="#fefffe" d="M 927.5,156.5 C 928.167,156.5 928.5,156.833 928.5,157.5C 928.167,157.167 927.833,156.833 927.5,156.5 Z"/></g>
<g><path style="opacity:0.004" fill="#fefffe" d="M 928.5,157.5 C 929.167,157.5 929.5,157.833 929.5,158.5C 929.167,158.167 928.833,157.833 928.5,157.5 Z"/></g>
<g><path style="opacity:0.004" fill="#fefffe" d="M 929.5,158.5 C 930.167,158.5 930.5,158.833 930.5,159.5C 930.167,159.167 929.833,158.833 929.5,158.5 Z"/></g>
<g><path style="opacity:0.004" fill="#fefffe" d="M 930.5,159.5 C 931.167,159.5 931.5,159.833 931.5,160.5C 931.167,160.167 930.833,159.833 930.5,159.5 Z"/></g>
<g><path style="opacity:0.004" fill="#fefffe" d="M 931.5,160.5 C 932.167,160.5 932.5,160.833 932.5,161.5C 932.167,161.167 931.833,160.833 931.5,160.5 Z"/></g>
<g><path style="opacity:0.004" fill="#fefffe" d="M 932.5,161.5 C 933.167,161.5 933.5,161.833 933.5,162.5C 933.167,162.167 932.833,161.833 932.5,161.5 Z"/></g>
<g><path style="opacity:0.004" fill="#fefffe" d="M 933.5,162.5 C 934.167,162.5 934.5,162.833 934.5,163.5C 934.167,163.167 933.833,162.833 933.5,162.5 Z"/></g>
<g><path style="opacity:0.004" fill="#fefffe" d="M 934.5,163.5 C 935.167,163.5 935.5,163.833 935.5,164.5C 935.167,164.167 934.833,163.833 934.5,163.5 Z"/></g>
<g><path style="opacity:0.004" fill="#fefffe" d="M 935.5,164.5 C 936.167,164.5 936.5,164.833 936.5,165.5C 936.167,165.167 935.833,164.833 935.5,164.5 Z"/></g>
<g><path style="opacity:0.004" fill="#fefffe" d="M 936.5,165.5 C 937.167,165.5 937.5,165.833 937.5,166.5C 937.167,166.167 936.833,165.833 936.5,165.5 Z"/></g>
<g><path style="opacity:0.004" fill="#fefffe" d="M 937.5,166.5 C 938.167,166.5 938.5,166.833 938.5,167.5C 938.167,167.167 937.833,166.833 937.5,166.5 Z"/></g>
<g><path style="opacity:0.004" fill="#fefffe" d="M 938.5,167.5 C 939.167,167.5 939.5,167.833 939.5,168.5C 939.167,168.167 938.833,167.833 938.5,167.5 Z"/></g>
<g><path style="opacity:0.004" fill="#fefffe" d="M 939.5,168.5 C 940.167,168.5 940.5,168.833 940.5,169.5C 940.167,169.167 939.833,168.833 939.5,168.5 Z"/></g>
<g><path style="opacity:0.004" fill="#fefffe" d="M 940.5,169.5 C 941.167,169.5 941.5,169.833 941.5,170.5C 941.167,170.167 940.833,169.833 940.5,169.5 Z"/></g>
<g><path style="opacity:0.004" fill="#fefffe" d="M 941.5,170.5 C 942.833,171.167 942.833,171.167 941.5,170.5 Z"/></g>
<g><path style="opacity:0.027" fill="#dccde4" d="M 167.5,147.5 C 157.618,158.593 147.284,169.26 136.5,179.5C 141.434,173.392 146.601,167.392 152,161.5C 156.759,156.234 161.925,151.567 167.5,147.5 Z"/></g>
<g><path style="opacity:0.004" fill="#fefffe" d="M 944.5,174.5 C 943.833,173.167 943.833,173.167 944.5,174.5 Z"/></g>
<g><path style="opacity:0.004" fill="#fefffe" d="M 944.5,174.5 C 945.167,174.5 945.5,174.833 945.5,175.5C 945.167,175.167 944.833,174.833 944.5,174.5 Z"/></g>
<g><path style="opacity:0.004" fill="#fefffe" d="M 945.5,175.5 C 946.167,175.5 946.5,175.833 946.5,176.5C 946.167,176.167 945.833,175.833 945.5,175.5 Z"/></g>
<g><path style="opacity:0.004" fill="#fefffe" d="M 946.5,176.5 C 947.167,176.5 947.5,176.833 947.5,177.5C 947.167,177.167 946.833,176.833 946.5,176.5 Z"/></g>
<g><path style="opacity:0.004" fill="#fefffe" d="M 947.5,177.5 C 948.167,177.5 948.5,177.833 948.5,178.5C 948.167,178.167 947.833,177.833 947.5,177.5 Z"/></g>
<g><path style="opacity:0.004" fill="#fefffe" d="M 948.5,178.5 C 949.833,179.167 949.833,179.167 948.5,178.5 Z"/></g>
<g><path style="opacity:0.004" fill="#fefffe" d="M 952.5,183.5 C 951.833,182.167 951.833,182.167 952.5,183.5 Z"/></g>
<g><path style="opacity:0.004" fill="#fefffe" d="M 952.5,183.5 C 953.167,183.5 953.5,183.833 953.5,184.5C 953.167,184.167 952.833,183.833 952.5,183.5 Z"/></g>
<g><path style="opacity:0.004" fill="#fefffe" d="M 953.5,184.5 C 954.167,184.5 954.5,184.833 954.5,185.5C 954.167,185.167 953.833,184.833 953.5,184.5 Z"/></g>
<g><path style="opacity:0.004" fill="#fefffe" d="M 954.5,185.5 C 955.833,186.167 955.833,186.167 954.5,185.5 Z"/></g>
<g><path style="opacity:0.004" fill="#ddcdc0" d="M 945.5,183.5 C 950.111,187.375 954.278,191.708 958,196.5C 959.421,198.405 960.588,200.405 961.5,202.5C 955.422,196.758 950.088,190.425 945.5,183.5 Z"/></g>
<g><path style="opacity:0.012" fill="#ded2f3" d="M 136.5,179.5 C 134.57,183.1 131.903,186.1 128.5,188.5C 130.43,184.9 133.097,181.9 136.5,179.5 Z"/></g>
<g><path style="opacity:0.004" fill="#fefffe" d="M 957.5,189.5 C 956.833,188.167 956.833,188.167 957.5,189.5 Z"/></g>
<g><path style="opacity:0.004" fill="#fefffe" d="M 957.5,189.5 C 958.167,189.5 958.5,189.833 958.5,190.5C 958.167,190.167 957.833,189.833 957.5,189.5 Z"/></g>
<g><path style="opacity:0.004" fill="#fefffe" d="M 958.5,190.5 C 959.167,190.5 959.5,190.833 959.5,191.5C 959.167,191.167 958.833,190.833 958.5,190.5 Z"/></g>
<g><path style="opacity:0.004" fill="#fefffe" d="M 959.5,191.5 C 960.167,191.5 960.5,191.833 960.5,192.5C 960.167,192.167 959.833,191.833 959.5,191.5 Z"/></g>
<g><path style="opacity:0.02" fill="#ddd1ed" d="M 128.5,188.5 C 127.581,191.089 125.914,193.089 123.5,194.5C 124.419,191.911 126.086,189.911 128.5,188.5 Z"/></g>
<g><path style="opacity:0.004" fill="#fefffe" d="M 960.5,192.5 C 961.833,193.167 961.833,193.167 960.5,192.5 Z"/></g>
<g><path style="opacity:0.004" fill="#fefffe" d="M 963.5,196.5 C 962.833,195.167 962.833,195.167 963.5,196.5 Z"/></g>
<g><path style="opacity:0.004" fill="#fefffe" d="M 963.5,196.5 C 964.167,196.5 964.5,196.833 964.5,197.5C 964.167,197.167 963.833,196.833 963.5,196.5 Z"/></g>
<g><path style="opacity:0.004" fill="#fefffe" d="M 964.5,197.5 C 965.833,198.167 965.833,198.167 964.5,197.5 Z"/></g>
<g><path style="opacity:0.016" fill="#ded3e8" d="M 123.5,194.5 C 122.581,197.089 120.914,199.089 118.5,200.5C 119.419,197.911 121.086,195.911 123.5,194.5 Z"/></g>
<g><path style="opacity:0.004" fill="#fefffe" d="M 967.5,201.5 C 966.833,200.167 966.833,200.167 967.5,201.5 Z"/></g>
<g><path style="opacity:1" fill="#fdf509" d="M 524.5,200.5 C 632.171,198.605 722.004,237.272 794,316.5C 866.275,403.599 891.275,502.932 869,614.5C 854.95,673.782 827.45,725.616 786.5,770C 779.973,775.522 772.639,776.856 764.5,774C 753.431,765.959 751.598,756.126 759,744.5C 827.369,668.017 852.369,579.017 834,477.5C 809.915,377.093 751.082,305.259 657.5,262C 574.908,228.31 492.908,229.644 411.5,266C 317.544,313.322 260.71,388.822 241,492.5C 228.176,599.046 260.342,689.212 337.5,763C 422.281,834.963 518.615,856.296 626.5,827C 648.764,820.136 670.097,811.136 690.5,800C 705.525,799.359 713.025,806.526 713,821.5C 712.296,825.625 710.463,829.125 707.5,832C 643.844,868.165 575.511,882.665 502.5,875.5C 387.003,859.745 300.169,801.745 242,701.5C 198.367,617.736 189.367,530.402 215,439.5C 249.836,335.664 318.003,263.164 419.5,222C 453.566,209.487 488.566,202.321 524.5,200.5 Z"/></g>
<g><path style="opacity:0.004" fill="#fefffe" d="M 967.5,201.5 C 968.833,202.167 968.833,202.167 967.5,201.5 Z"/></g>
<g><path style="opacity:0.016" fill="#e6ddf5" d="M 118.5,200.5 C 117.92,202.749 116.587,204.415 114.5,205.5C 115.08,203.251 116.413,201.585 118.5,200.5 Z"/></g>
<g><path style="opacity:0.004" fill="#dccfc1" d="M 961.5,202.5 C 963.587,203.585 964.92,205.251 965.5,207.5C 963.413,206.415 962.08,204.749 961.5,202.5 Z"/></g>
<g><path style="opacity:0.004" fill="#fefffe" d="M 970.5,205.5 C 969.833,204.167 969.833,204.167 970.5,205.5 Z"/></g>
<g><path style="opacity:0.004" fill="#fefffe" d="M 970.5,205.5 C 971.167,205.5 971.5,205.833 971.5,206.5C 971.167,206.167 970.833,205.833 970.5,205.5 Z"/></g>
<g><path style="opacity:0.004" fill="#fefffe" d="M 971.5,206.5 C 972.833,207.167 972.833,207.167 971.5,206.5 Z"/></g>
<g><path style="opacity:0.004" fill="#e1d4bc" d="M 965.5,207.5 C 967.262,208.262 968.262,209.596 968.5,211.5C 966.738,210.738 965.738,209.404 965.5,207.5 Z"/></g>
<g><path style="opacity:0.004" fill="#fefffe" d="M 974.5,210.5 C 973.833,209.167 973.833,209.167 974.5,210.5 Z"/></g>
<g><path style="opacity:0.004" fill="#fefffe" d="M 974.5,210.5 C 975.833,211.167 975.833,211.167 974.5,210.5 Z"/></g>
<g><path style="opacity:0.004" fill="#e6dab9" d="M 968.5,211.5 C 974.809,218.116 980.143,225.45 984.5,233.5C 978.68,226.529 973.347,219.196 968.5,211.5 Z"/></g>
<g><path style="opacity:0.004" fill="#fefffe" d="M 977.5,214.5 C 976.833,213.167 976.833,213.167 977.5,214.5 Z"/></g>
<g><path style="opacity:0.004" fill="#fefffe" d="M 977.5,214.5 C 978.833,215.167 978.833,215.167 977.5,214.5 Z"/></g>
<g><path style="opacity:0.004" fill="#fefffe" d="M 980.5,218.5 C 979.833,217.167 979.833,217.167 980.5,218.5 Z"/></g>
<g><path style="opacity:0.004" fill="#fefffe" d="M 980.5,218.5 C 981.833,219.167 981.833,219.167 980.5,218.5 Z"/></g>
<g><path style="opacity:0.016" fill="#e8dff1" d="M 114.5,205.5 C 110.262,212.738 105.262,219.404 99.5,225.5C 103.738,218.262 108.738,211.596 114.5,205.5 Z"/></g>
<g><path style="opacity:0.004" fill="#fefffe" d="M 982.5,221.5 C 981.833,220.167 981.833,220.167 982.5,221.5 Z"/></g>
<g><path style="opacity:0.004" fill="#fefffe" d="M 982.5,221.5 C 983.833,222.167 983.833,222.167 982.5,221.5 Z"/></g>
<g><path style="opacity:0.004" fill="#fefffe" d="M 985.5,225.5 C 984.833,224.167 984.833,224.167 985.5,225.5 Z"/></g>
<g><path style="opacity:0.004" fill="#fefffe" d="M 985.5,225.5 C 986.833,226.167 986.833,226.167 985.5,225.5 Z"/></g>
<g><path style="opacity:0.016" fill="#e7dff7" d="M 99.5,225.5 C 98.5667,228.37 96.9,230.704 94.5,232.5C 95.4333,229.63 97.1,227.296 99.5,225.5 Z"/></g>
<g><path style="opacity:0.004" fill="#fefffe" d="M 987.5,228.5 C 986.833,227.167 986.833,227.167 987.5,228.5 Z"/></g>
<g><path style="opacity:0.004" fill="#fefffe" d="M 987.5,228.5 C 988.833,229.167 988.833,229.167 987.5,228.5 Z"/></g>
<g><path style="opacity:0.004" fill="#fefffe" d="M 989.5,231.5 C 988.833,230.167 988.833,230.167 989.5,231.5 Z"/></g>
<g><path style="opacity:0.004" fill="#fefffe" d="M 989.5,231.5 C 990.833,232.167 990.833,232.167 989.5,231.5 Z"/></g>
<g><path style="opacity:0.004" fill="#fefffe" d="M 991.5,234.5 C 990.833,233.167 990.833,233.167 991.5,234.5 Z"/></g>
<g><path style="opacity:0.004" fill="#fefffe" d="M 991.5,234.5 C 992.833,235.167 992.833,235.167 991.5,234.5 Z"/></g>
<g><path style="opacity:0.004" fill="#fefffe" d="M 993.5,237.5 C 992.833,236.167 992.833,236.167 993.5,237.5 Z"/></g>
<g><path style="opacity:0.004" fill="#fefffe" d="M 993.5,237.5 C 994.833,238.167 994.833,238.167 993.5,237.5 Z"/></g>
<g><path style="opacity:0.004" fill="#fefffe" d="M 995.5,240.5 C 994.833,239.167 994.833,239.167 995.5,240.5 Z"/></g>
<g><path style="opacity:0.02" fill="#e9e1f6" d="M 94.5,232.5 C 91.9079,238.024 88.5746,243.024 84.5,247.5C 87.0563,241.951 90.3897,236.951 94.5,232.5 Z"/></g>
<g><path style="opacity:0.004" fill="#fefffe" d="M 995.5,240.5 C 996.833,241.167 996.833,241.167 995.5,240.5 Z"/></g>
<g><path style="opacity:0.004" fill="#fefffe" d="M 997.5,243.5 C 996.833,242.167 996.833,242.167 997.5,243.5 Z"/></g>
<g><path style="opacity:0.004" fill="#fefffe" d="M 997.5,243.5 C 998.833,244.167 998.833,244.167 997.5,243.5 Z"/></g>
<g><path style="opacity:0.004" fill="#fefffe" d="M 999.5,246.5 C 998.833,245.167 998.833,245.167 999.5,246.5 Z"/></g>
<g><path style="opacity:0.004" fill="#fefffe" d="M 999.5,246.5 C 1000.83,247.167 1000.83,247.167 999.5,246.5 Z"/></g>
<g><path style="opacity:0.004" fill="#fefffe" d="M 1000.5,248.5 C 1001.83,249.167 1001.83,249.167 1000.5,248.5 Z"/></g>
<g><path style="opacity:0.004" fill="#fefffe" d="M 1002.5,251.5 C 1001.83,250.167 1001.83,250.167 1002.5,251.5 Z"/></g>
<g><path style="opacity:0.004" fill="#fefffe" d="M 1002.5,251.5 C 1003.83,252.167 1003.83,252.167 1002.5,251.5 Z"/></g>
<g><path style="opacity:0.004" fill="#fefffe" d="M 1004.5,254.5 C 1003.83,253.167 1003.83,253.167 1004.5,254.5 Z"/></g>
<g><path style="opacity:0.004" fill="#fefffe" d="M 1004.5,254.5 C 1005.83,255.167 1005.83,255.167 1004.5,254.5 Z"/></g>
<g><path style="opacity:0.004" fill="#e5d9bf" d="M 984.5,233.5 C 994.332,245.816 1002.67,259.149 1009.5,273.5C 1001.17,260.175 992.836,246.841 984.5,233.5 Z"/></g>
<g><path style="opacity:0.004" fill="#fefffe" d="M 1006.5,257.5 C 1005.83,256.167 1005.83,256.167 1006.5,257.5 Z"/></g>
<g><path style="opacity:0.004" fill="#fefffe" d="M 1006.5,257.5 C 1007.83,258.167 1007.83,258.167 1006.5,257.5 Z"/></g>
<g><path style="opacity:0.004" fill="#fefffe" d="M 1007.5,259.5 C 1008.83,260.167 1008.83,260.167 1007.5,259.5 Z"/></g>
<g><path style="opacity:0.004" fill="#fefffe" d="M 1008.5,261.5 C 1009.83,262.167 1009.83,262.167 1008.5,261.5 Z"/></g>
<g><path style="opacity:0.012" fill="#e4daf7" d="M 84.5,247.5 C 79.3325,257.174 73.6658,266.508 67.5,275.5C 72.1652,265.493 77.8318,256.159 84.5,247.5 Z"/></g>
<g><path style="opacity:0.004" fill="#fefffe" d="M 1010.5,264.5 C 1009.83,263.167 1009.83,263.167 1010.5,264.5 Z"/></g>
<g><path style="opacity:0.004" fill="#fefffe" d="M 1010.5,264.5 C 1011.83,265.167 1011.83,265.167 1010.5,264.5 Z"/></g>
<g><path style="opacity:0.004" fill="#fefffe" d="M 1011.5,266.5 C 1012.83,267.167 1012.83,267.167 1011.5,266.5 Z"/></g>
<g><path style="opacity:0.004" fill="#fefffe" d="M 1012.5,268.5 C 1013.83,269.167 1013.83,269.167 1012.5,268.5 Z"/></g>
<g><path style="opacity:0.004" fill="#fefffe" d="M 1013.5,270.5 C 1014.83,271.167 1014.83,271.167 1013.5,270.5 Z"/></g>
<g><path style="opacity:0.004" fill="#fefffe" d="M 1015.5,273.5 C 1014.83,272.167 1014.83,272.167 1015.5,273.5 Z"/></g>
<g><path style="opacity:0.004" fill="#fefffe" d="M 1015.5,273.5 C 1016.83,274.167 1016.83,274.167 1015.5,273.5 Z"/></g>
<g><path style="opacity:0.004" fill="#e5dbc6" d="M 1009.5,273.5 C 1011.59,275.336 1012.92,277.669 1013.5,280.5C 1011.41,278.664 1010.08,276.331 1009.5,273.5 Z"/></g>
<g><path style="opacity:0.004" fill="#fefffe" d="M 1016.5,275.5 C 1017.83,276.167 1017.83,276.167 1016.5,275.5 Z"/></g>
<g><path style="opacity:0.004" fill="#fefffe" d="M 1017.5,277.5 C 1018.83,278.167 1018.83,278.167 1017.5,277.5 Z"/></g>
<g><path style="opacity:0.004" fill="#fefffe" d="M 1019.5,280.5 C 1018.83,279.167 1018.83,279.167 1019.5,280.5 Z"/></g>
<g><path style="opacity:0.004" fill="#fefffe" d="M 1019.5,280.5 C 1020.83,281.167 1020.83,281.167 1019.5,280.5 Z"/></g>
<g><path style="opacity:0.004" fill="#e6dcc2" d="M 1013.5,280.5 C 1020.21,291.248 1025.87,302.581 1030.5,314.5C 1024.33,303.484 1018.66,292.151 1013.5,280.5 Z"/></g>
<g><path style="opacity:0.004" fill="#fefffe" d="M 1020.5,282.5 C 1021.83,283.167 1021.83,283.167 1020.5,282.5 Z"/></g>
<g><path style="opacity:0.004" fill="#fefffe" d="M 1021.5,284.5 C 1022.83,285.167 1022.83,285.167 1021.5,284.5 Z"/></g>
<g><path style="opacity:0.004" fill="#fefffe" d="M 1022.5,286.5 C 1023.83,287.167 1023.83,287.167 1022.5,286.5 Z"/></g>
<g><path style="opacity:0.004" fill="#fefffe" d="M 1023.5,288.5 C 1024.83,289.167 1024.83,289.167 1023.5,288.5 Z"/></g>
<g><path style="opacity:0.004" fill="#fefffe" d="M 1024.5,290.5 C 1025.83,291.167 1025.83,291.167 1024.5,290.5 Z"/></g>
<g><path style="opacity:0.004" fill="#fefffe" d="M 1025.5,292.5 C 1026.83,293.167 1026.83,293.167 1025.5,292.5 Z"/></g>
<g><path style="opacity:0.004" fill="#fefffe" d="M 1026.5,294.5 C 1027.83,295.167 1027.83,295.167 1026.5,294.5 Z"/></g>
<g><path style="opacity:0.004" fill="#fefffe" d="M 1027.5,296.5 C 1028.83,297.167 1028.83,297.167 1027.5,296.5 Z"/></g>
<g><path style="opacity:0.01" fill="#f2eefd" d="M 67.5,275.5 C 62.0849,286.664 56.4182,297.664 50.5,308.5C 54.8735,296.751 60.5402,285.751 67.5,275.5 Z"/></g>
<g><path style="opacity:0.004" fill="#fefffe" d="M 1028.5,298.5 C 1029.83,299.167 1029.83,299.167 1028.5,298.5 Z"/></g>
<g><path style="opacity:0.004" fill="#fefffe" d="M 1029.5,300.5 C 1030.83,301.167 1030.83,301.167 1029.5,300.5 Z"/></g>
<g><path style="opacity:0.004" fill="#fefffe" d="M 1030.5,302.5 C 1031.83,303.167 1031.83,303.167 1030.5,302.5 Z"/></g>
<g><path style="opacity:0.004" fill="#fefffe" d="M 1031.5,304.5 C 1032.83,305.167 1032.83,305.167 1031.5,304.5 Z"/></g>
<g><path style="opacity:0.004" fill="#fefffe" d="M 1032.5,306.5 C 1033.83,307.167 1033.83,307.167 1032.5,306.5 Z"/></g>
<g><path style="opacity:0.004" fill="#fefffe" d="M 1033.5,308.5 C 1034.83,309.167 1034.83,309.167 1033.5,308.5 Z"/></g>
<g><path style="opacity:0.004" fill="#fefffe" d="M 1034.5,310.5 C 1035.83,311.167 1035.83,311.167 1034.5,310.5 Z"/></g>
<g><path style="opacity:0.004" fill="#fefffe" d="M 1035.5,313.5 C 1036.83,314.167 1036.83,314.167 1035.5,313.5 Z"/></g>
<g><path style="opacity:0.008" fill="#ece5fd" d="M 50.5,308.5 C 49.2895,313.251 47.2895,317.584 44.5,321.5C 45.7105,316.749 47.7105,312.416 50.5,308.5 Z"/></g>
<g><path style="opacity:0.004" fill="#fefffe" d="M 1036.5,315.5 C 1037.83,316.167 1037.83,316.167 1036.5,315.5 Z"/></g>
<g><path style="opacity:0.004" fill="#e1d5ca" d="M 1030.5,314.5 C 1032.62,317.088 1033.96,320.088 1034.5,323.5C 1032.38,320.912 1031.04,317.912 1030.5,314.5 Z"/></g>
<g><path style="opacity:0.004" fill="#fefffe" d="M 1037.5,317.5 C 1038.83,318.167 1038.83,318.167 1037.5,317.5 Z"/></g>
<g><path style="opacity:0.004" fill="#fefffe" d="M 1038.5,319.5 C 1039.83,320.167 1039.83,320.167 1038.5,319.5 Z"/></g>
<g><path style="opacity:0.004" fill="#fefffe" d="M 1039.5,322.5 C 1040.83,323.167 1040.83,323.167 1039.5,322.5 Z"/></g>
<g><path style="opacity:0.004" fill="#fefffe" d="M 1040.5,324.5 C 1041.83,325.167 1041.83,325.167 1040.5,324.5 Z"/></g>
<g><path style="opacity:0.004" fill="#e2d7c3" d="M 1034.5,323.5 C 1038.66,330.286 1041.66,337.619 1043.5,345.5C 1039.98,338.451 1036.98,331.118 1034.5,323.5 Z"/></g>
<g><path style="opacity:0.004" fill="#fefffe" d="M 1041.5,326.5 C 1042.83,327.167 1042.83,327.167 1041.5,326.5 Z"/></g>
<g><path style="opacity:0.006" fill="#f4f0fe" d="M 44.5,321.5 C 43.9579,324.912 42.6246,327.912 40.5,330.5C 41.0421,327.088 42.3754,324.088 44.5,321.5 Z"/></g>
<g><path style="opacity:0.004" fill="#fefffe" d="M 1042.5,328.5 C 1043.83,329.167 1043.83,329.167 1042.5,328.5 Z"/></g>
<g><path style="opacity:0.004" fill="#fefffe" d="M 1043.5,331.5 C 1044.83,332.167 1044.83,332.167 1043.5,331.5 Z"/></g>
<g><path style="opacity:0.008" fill="#f5f2fd" d="M 40.5,330.5 C 40.5979,332.553 39.9313,334.22 38.5,335.5C 38.4021,333.447 39.0687,331.78 40.5,330.5 Z"/></g>
<g><path style="opacity:0.004" fill="#fefffe" d="M 1044.5,333.5 C 1045.83,334.167 1045.83,334.167 1044.5,333.5 Z"/></g>
<g><path style="opacity:0.004" fill="#fefffe" d="M 1045.5,336.5 C 1046.83,337.167 1046.83,337.167 1045.5,336.5 Z"/></g>
<g><path style="opacity:0.008" fill="#f4f1fe" d="M 38.5,335.5 C 38.5979,337.553 37.9313,339.22 36.5,340.5C 36.4021,338.447 37.0687,336.78 38.5,335.5 Z"/></g>
<g><path style="opacity:0.004" fill="#fefffe" d="M 1046.5,338.5 C 1047.83,339.167 1047.83,339.167 1046.5,338.5 Z"/></g>
<g><path style="opacity:0.004" fill="#fefffe" d="M 1047.5,341.5 C 1048.83,342.167 1048.83,342.167 1047.5,341.5 Z"/></g>
<g><path style="opacity:0.008" fill="#f5f2fe" d="M 36.5,340.5 C 36.5979,342.553 35.9313,344.22 34.5,345.5C 34.4021,343.447 35.0687,341.78 36.5,340.5 Z"/></g>
<g><path style="opacity:0.004" fill="#fefffe" d="M 1048.5,344.5 C 1049.83,345.167 1049.83,345.167 1048.5,344.5 Z"/></g>
<g><path style="opacity:0.004" fill="#fefffe" d="M 1049.5,346.5 C 1050.83,347.167 1050.83,347.167 1049.5,346.5 Z"/></g>
<g><path style="opacity:0.004" fill="#fefffe" d="M 1050.5,349.5 C 1051.83,350.167 1051.83,350.167 1050.5,349.5 Z"/></g>
<g><path style="opacity:0.043" fill="#c3a5fa" d="M 34.5,345.5 C 34.2179,349.68 32.8846,353.347 30.5,356.5C 31.0653,352.463 32.3987,348.797 34.5,345.5 Z"/></g>
<g><path style="opacity:0.004" fill="#fefffe" d="M 1051.5,352.5 C 1052.83,353.167 1052.83,353.167 1051.5,352.5 Z"/></g>
<g><path style="opacity:0.004" fill="#fefffe" d="M 1052.5,354.5 C 1053.53,354.897 1053.69,355.563 1053,356.5C 1052.54,355.906 1052.37,355.239 1052.5,354.5 Z"/></g>
<g><path style="opacity:0.004" fill="#fefffe" d="M 1053.5,357.5 C 1054.83,358.167 1054.83,358.167 1053.5,357.5 Z"/></g>
<g><path style="opacity:0.004" fill="#fefffe" d="M 1054.5,360.5 C 1055.83,361.167 1055.83,361.167 1054.5,360.5 Z"/></g>
<g><path style="opacity:0.043" fill="#cfb7fa" d="M 30.5,356.5 C 30.3969,359.636 29.3969,362.302 27.5,364.5C 27.7329,361.458 28.7329,358.792 30.5,356.5 Z"/></g>
<g><path style="opacity:0.004" fill="#fefffe" d="M 1055.5,363.5 C 1056.83,364.167 1056.83,364.167 1055.5,363.5 Z"/></g>
<g><path style="opacity:0.004" fill="#ddcfc4" d="M 1043.5,345.5 C 1050.21,360.949 1055.54,376.949 1059.5,393.5C 1053.99,377.647 1048.66,361.647 1043.5,345.5 Z"/></g>
<g><path style="opacity:0.004" fill="#fefffe" d="M 1056.5,366.5 C 1057.83,367.167 1057.83,367.167 1056.5,366.5 Z"/></g>
<g><path style="opacity:0.004" fill="#fefffe" d="M 1057.5,369.5 C 1058.83,370.167 1058.83,370.167 1057.5,369.5 Z"/></g>
<g><path style="opacity:0.004" fill="#fefffe" d="M 1058.5,372.5 C 1059.83,373.167 1059.83,373.167 1058.5,372.5 Z"/></g>
<g><path style="opacity:0.039" fill="#c2a7f9" d="M 27.5,364.5 C 26.6789,371.293 24.6789,377.626 21.5,383.5C 22.726,376.826 24.726,370.493 27.5,364.5 Z"/></g>
<g><path style="opacity:0.004" fill="#fefffe" d="M 1059.5,375.5 C 1060.83,376.167 1060.83,376.167 1059.5,375.5 Z"/></g>
<g><path style="opacity:0.004" fill="#fefffe" d="M 1060.5,378.5 C 1061.83,379.167 1061.83,379.167 1060.5,378.5 Z"/></g>
<g><path style="opacity:1" fill="#fdf509" d="M 471.5,431.5 C 471.44,430.957 471.107,430.624 470.5,430.5C 469.5,489.163 469.167,547.83 469.5,606.5C 468.525,617.475 462.525,623.475 451.5,624.5C 441.9,623.734 435.734,618.734 433,609.5C 432.333,538.167 432.333,466.833 433,395.5C 438.755,381.248 448.588,377.414 462.5,384C 550.5,431.333 638.5,478.667 726.5,526C 734.372,533.91 735.538,542.743 730,552.5C 726.94,555.614 723.44,558.114 719.5,560C 633.009,604.745 546.676,649.745 460.5,695C 451.698,698.121 443.864,696.621 437,690.5C 430.555,680.996 431.389,672.163 439.5,664C 517.868,622.817 596.201,581.65 674.5,540.5C 606.939,503.887 539.272,467.554 471.5,431.5 Z"/></g>
<g><path style="opacity:0.004" fill="#fefffe" d="M 1061.5,381.5 C 1062.53,381.897 1062.69,382.563 1062,383.5C 1061.54,382.906 1061.37,382.239 1061.5,381.5 Z"/></g>
<g><path style="opacity:0.004" fill="#fefffe" d="M 1062.5,385.5 C 1063.53,385.897 1063.69,386.563 1063,387.5C 1062.54,386.906 1062.37,386.239 1062.5,385.5 Z"/></g>
<g><path style="opacity:0.039" fill="#ceb6fb" d="M 21.5,383.5 C 21.68,387.286 20.68,390.619 18.5,393.5C 18.7234,389.838 19.7234,386.505 21.5,383.5 Z"/></g>
<g><path style="opacity:0.004" fill="#fefffe" d="M 1063.5,389.5 C 1064.83,390.167 1064.83,390.167 1063.5,389.5 Z"/></g>
<g><path style="opacity:0.004" fill="#fefffe" d="M 1064.5,392.5 C 1065.53,392.897 1065.69,393.563 1065,394.5C 1064.54,393.906 1064.37,393.239 1064.5,392.5 Z"/></g>
<g><path style="opacity:0.004" fill="#fefffe" d="M 1065.5,396.5 C 1066.53,396.897 1066.69,397.563 1066,398.5C 1065.54,397.906 1065.37,397.239 1065.5,396.5 Z"/></g>
<g><path style="opacity:0.031" fill="#d8c6fe" d="M 18.5,393.5 C 18.8294,396.228 18.1628,398.562 16.5,400.5C 16.4095,397.848 17.0762,395.515 18.5,393.5 Z"/></g>
<g><path style="opacity:0.004" fill="#fefffe" d="M 1066.5,400.5 C 1067.83,401.167 1067.83,401.167 1066.5,400.5 Z"/></g>
<g><path style="opacity:0.004" fill="#e7ddcb" d="M 1059.5,393.5 C 1064.56,408.73 1068.22,424.397 1070.5,440.5C 1066.71,424.98 1063.04,409.313 1059.5,393.5 Z"/></g>
<g><path style="opacity:0.004" fill="#fefffe" d="M 1067.5,403.5 C 1068.53,403.897 1068.69,404.563 1068,405.5C 1067.54,404.906 1067.37,404.239 1067.5,403.5 Z"/></g>
<g><path style="opacity:0.004" fill="#fefffe" d="M 1068.5,407.5 C 1069.53,407.897 1069.69,408.563 1069,409.5C 1068.54,408.906 1068.37,408.239 1068.5,407.5 Z"/></g>
<g><path style="opacity:0.004" fill="#fefffe" d="M 1069.5,411.5 C 1070.53,411.897 1070.69,412.563 1070,413.5C 1069.54,412.906 1069.37,412.239 1069.5,411.5 Z"/></g>
<g><path style="opacity:0.004" fill="#fefffe" d="M 1070.5,416.5 C 1071.53,416.897 1071.69,417.563 1071,418.5C 1070.54,417.906 1070.37,417.239 1070.5,416.5 Z"/></g>
<g><path style="opacity:0.004" fill="#fefffe" d="M 1071.5,420.5 C 1072.53,420.897 1072.69,421.563 1072,422.5C 1071.54,421.906 1071.37,421.239 1071.5,420.5 Z"/></g>
<g><path style="opacity:0.051" fill="#c2a1fd" d="M 12.5,416.5 C 12.6641,419.187 12.4974,421.854 12,424.5C 11.6174,425.056 11.1174,425.389 10.5,425.5C 10.6761,422.273 11.3428,419.273 12.5,416.5 Z"/></g>
<g><path style="opacity:0.004" fill="#fefffe" d="M 1072.5,425.5 C 1073.53,425.897 1073.69,426.563 1073,427.5C 1072.54,426.906 1072.37,426.239 1072.5,425.5 Z"/></g>
<g><path style="opacity:0.004" fill="#fefffe" d="M 1073.5,429.5 C 1074.53,429.897 1074.69,430.563 1074,431.5C 1073.54,430.906 1073.37,430.239 1073.5,429.5 Z"/></g>
<g><path style="opacity:1" fill="#947286" d="M 471.5,431.5 C 470.833,489.833 470.167,548.167 469.5,606.5C 469.167,547.83 469.5,489.163 470.5,430.5C 471.107,430.624 471.44,430.957 471.5,431.5 Z"/></g>
<g><path style="opacity:0.043" fill="#c5a6fc" d="M 10.5,425.5 C 10.6641,428.187 10.4974,430.854 10,433.5C 9.61742,434.056 9.11742,434.389 8.5,434.5C 8.67615,431.273 9.34281,428.273 10.5,425.5 Z"/></g>
<g><path style="opacity:0.004" fill="#fefffe" d="M 1074.5,434.5 C 1075.83,435.167 1075.83,435.167 1074.5,434.5 Z"/></g>
<g><path style="opacity:0.004" fill="#daccc1" d="M 1070.5,440.5 C 1071.9,444.591 1072.56,448.924 1072.5,453.5C 1071.1,449.409 1070.44,445.076 1070.5,440.5 Z"/></g>
<g><path style="opacity:0.047" fill="#ccb3fc" d="M 8.5,435.5 C 7.45164,448.12 5.45164,460.453 2.5,472.5C 3.33084,459.851 5.33084,447.518 8.5,435.5 Z"/></g>
<g><path style="opacity:0.073" fill="#f3efff" d="M 1.5,481.5 C 1.65001,488.721 0.983341,495.721 -0.5,502.5C -0.5,497.833 -0.5,493.167 -0.5,488.5C 0.166667,486.167 0.833333,483.833 1.5,481.5 Z"/></g>
<g><path style="opacity:0.004" fill="#e6dbc5" d="M 1074.5,466.5 C 1076.35,476.473 1078.02,486.473 1079.5,496.5C 1079.5,508.833 1079.5,521.167 1079.5,533.5C 1078.42,511.274 1076.75,488.94 1074.5,466.5 Z"/></g>
<g><path style="opacity:0.004" fill="#dfd3ed" d="M 1079.5,562.5 C 1079.5,569.5 1079.5,576.5 1079.5,583.5C 1078.35,591.195 1077.02,598.861 1075.5,606.5C 1076.56,591.663 1077.89,576.996 1079.5,562.5 Z"/></g>
<g><path style="opacity:0.004" fill="#d7c7f0" d="M -0.5,554.5 C 1.45076,600.478 8.45076,645.811 20.5,690.5C 15.5114,675.383 11.5114,659.883 8.5,644C 5.15502,624.408 2.15502,604.908 -0.5,585.5C -0.5,575.167 -0.5,564.833 -0.5,554.5 Z"/></g>
<g><path style="opacity:0.004" fill="#cebbeb" d="M 1071.5,633.5 C 1071.57,637.425 1070.9,641.091 1069.5,644.5C 1069.43,640.575 1070.1,636.909 1071.5,633.5 Z"/></g>
<g><path style="opacity:0.004" fill="#fefffe" d="M 1074.5,643.5 C 1075.83,644.167 1075.83,644.167 1074.5,643.5 Z"/></g>
<g><path style="opacity:0.004" fill="#fefffe" d="M 1073.5,647.5 C 1074.53,647.897 1074.69,648.563 1074,649.5C 1073.54,648.906 1073.37,648.239 1073.5,647.5 Z"/></g>
<g><path style="opacity:0.004" fill="#d8caee" d="M 1068.5,649.5 C 1068.58,652.781 1067.91,655.781 1066.5,658.5C 1066.42,655.219 1067.09,652.219 1068.5,649.5 Z"/></g>
<g><path style="opacity:0.004" fill="#fefffe" d="M 1072.5,652.5 C 1073.53,652.897 1073.69,653.563 1073,654.5C 1072.54,653.906 1072.37,653.239 1072.5,652.5 Z"/></g>
<g><path style="opacity:0.004" fill="#fefffe" d="M 1071.5,656.5 C 1072.53,656.897 1072.69,657.563 1072,658.5C 1071.54,657.906 1071.37,657.239 1071.5,656.5 Z"/></g>
<g><path style="opacity:0.004" fill="#d4c4e9" d="M 1066.5,658.5 C 1065.42,666.836 1063.42,674.836 1060.5,682.5C 1061.9,674.24 1063.9,666.24 1066.5,658.5 Z"/></g>
<g><path style="opacity:0.004" fill="#fefffe" d="M 1070.5,661.5 C 1071.53,661.897 1071.69,662.563 1071,663.5C 1070.54,662.906 1070.37,662.239 1070.5,661.5 Z"/></g>
<g><path style="opacity:0.004" fill="#fefffe" d="M 1069.5,665.5 C 1070.53,665.897 1070.69,666.563 1070,667.5C 1069.54,666.906 1069.37,666.239 1069.5,665.5 Z"/></g>
<g><path style="opacity:0.004" fill="#fefffe" d="M 1068.5,669.5 C 1069.53,669.897 1069.69,670.563 1069,671.5C 1068.54,670.906 1068.37,670.239 1068.5,669.5 Z"/></g>
<g><path style="opacity:0.004" fill="#fefffe" d="M 1067.5,673.5 C 1068.53,673.897 1068.69,674.563 1068,675.5C 1067.54,674.906 1067.37,674.239 1067.5,673.5 Z"/></g>
<g><path style="opacity:0.004" fill="#fefffe" d="M 1066.5,677.5 C 1067.53,677.897 1067.69,678.563 1067,679.5C 1066.54,678.906 1066.37,678.239 1066.5,677.5 Z"/></g>
<g><path style="opacity:0.004" fill="#fefffe" d="M 1065.5,681.5 C 1066.53,681.897 1066.69,682.563 1066,683.5C 1065.54,682.906 1065.37,682.239 1065.5,681.5 Z"/></g>
<g><path style="opacity:0.004" fill="#fefffe" d="M 1064.5,685.5 C 1065.83,686.167 1065.83,686.167 1064.5,685.5 Z"/></g>
<g><path style="opacity:0.004" fill="#fefffe" d="M 1063.5,688.5 C 1064.53,688.897 1064.69,689.563 1064,690.5C 1063.54,689.906 1063.37,689.239 1063.5,688.5 Z"/></g>
<g><path style="opacity:0.004" fill="#e2d7f8" d="M 20.5,690.5 C 23.8705,699.615 26.8705,708.948 29.5,718.5C 25.3245,709.637 22.3245,700.304 20.5,690.5 Z"/></g>
<g><path style="opacity:0.004" fill="#dbcee9" d="M 1058.5,689.5 C 1058.59,692.152 1057.92,694.485 1056.5,696.5C 1056.41,693.848 1057.08,691.515 1058.5,689.5 Z"/></g>
<g><path style="opacity:0.004" fill="#fefffe" d="M 1062.5,692.5 C 1063.83,693.167 1063.83,693.167 1062.5,692.5 Z"/></g>
<g><path style="opacity:0.004" fill="#fefffe" d="M 1061.5,695.5 C 1062.53,695.897 1062.69,696.563 1062,697.5C 1061.54,696.906 1061.37,696.239 1061.5,695.5 Z"/></g>
<g><path style="opacity:0.004" fill="#fefffe" d="M 1060.5,699.5 C 1061.83,700.167 1061.83,700.167 1060.5,699.5 Z"/></g>
<g><path style="opacity:0.004" fill="#fefffe" d="M 1059.5,702.5 C 1060.83,703.167 1060.83,703.167 1059.5,702.5 Z"/></g>
<g><path style="opacity:0.004" fill="#fefffe" d="M 1058.5,705.5 C 1059.83,706.167 1059.83,706.167 1058.5,705.5 Z"/></g>
<g><path style="opacity:0.004" fill="#fefffe" d="M 1057.5,708.5 C 1058.83,709.167 1058.83,709.167 1057.5,708.5 Z"/></g>
<g><path style="opacity:0.004" fill="#fefffe" d="M 1056.5,711.5 C 1057.83,712.167 1057.83,712.167 1056.5,711.5 Z"/></g>
<g><path style="opacity:0.004" fill="#fefffe" d="M 1055.5,714.5 C 1056.83,715.167 1056.83,715.167 1055.5,714.5 Z"/></g>
<g><path style="opacity:0.004" fill="#fefffe" d="M 1054.5,717.5 C 1055.83,718.167 1055.83,718.167 1054.5,717.5 Z"/></g>
<g><path style="opacity:0.004" fill="#fefffe" d="M 1053.5,720.5 C 1054.83,721.167 1054.83,721.167 1053.5,720.5 Z"/></g>
<g><path style="opacity:0.004" fill="#fefffe" d="M 1052.5,723.5 C 1053.83,724.167 1053.83,724.167 1052.5,723.5 Z"/></g>
<g><path style="opacity:0.004" fill="#fefffe" d="M 1051.5,726.5 C 1052.83,727.167 1052.83,727.167 1051.5,726.5 Z"/></g>
<g><path style="opacity:0.004" fill="#d7c8f3" d="M 30.5,721.5 C 32.2671,723.792 33.2671,726.458 33.5,729.5C 31.7329,727.208 30.7329,724.542 30.5,721.5 Z"/></g>
<g><path style="opacity:0.004" fill="#fefffe" d="M 1050.5,728.5 C 1051.83,729.167 1051.83,729.167 1050.5,728.5 Z"/></g>
<g><path style="opacity:0.004" fill="#fefffe" d="M 1049.5,731.5 C 1050.83,732.167 1050.83,732.167 1049.5,731.5 Z"/></g>
<g><path style="opacity:0.004" fill="#fefffe" d="M 1048.5,733.5 C 1049.83,734.167 1049.83,734.167 1048.5,733.5 Z"/></g>
<g><path style="opacity:0.004" fill="#ddd0f6" d="M 33.5,729.5 C 35.2671,731.792 36.2671,734.458 36.5,737.5C 34.7329,735.208 33.7329,732.542 33.5,729.5 Z"/></g>
<g><path style="opacity:0.004" fill="#fefffe" d="M 1047.5,736.5 C 1048.83,737.167 1048.83,737.167 1047.5,736.5 Z"/></g>
<g><path style="opacity:0.004" fill="#fefffe" d="M 1046.5,738.5 C 1047.83,739.167 1047.83,739.167 1046.5,738.5 Z"/></g>
<g><path style="opacity:0.004" fill="#e3d9f5" d="M 36.5,737.5 C 37.9313,738.78 38.5979,740.447 38.5,742.5C 37.0687,741.22 36.4021,739.553 36.5,737.5 Z"/></g>
<g><path style="opacity:0.004" fill="#fefffe" d="M 1045.5,741.5 C 1046.83,742.167 1046.83,742.167 1045.5,741.5 Z"/></g>
<g><path style="opacity:0.004" fill="#dfd3ed" d="M 38.5,742.5 C 40.2927,744.426 41.2927,746.759 41.5,749.5C 39.7073,747.574 38.7073,745.241 38.5,742.5 Z"/></g>
<g><path style="opacity:0.004" fill="#d4c4cb" d="M 1040.5,741.5 C 1040.6,743.553 1039.93,745.22 1038.5,746.5C 1038.4,744.447 1039.07,742.78 1040.5,741.5 Z"/></g>
<g><path style="opacity:0.004" fill="#fefffe" d="M 1044.5,744.5 C 1045.83,745.167 1045.83,745.167 1044.5,744.5 Z"/></g>
<g><path style="opacity:0.004" fill="#fefffe" d="M 1043.5,746.5 C 1044.83,747.167 1044.83,747.167 1043.5,746.5 Z"/></g>
<g><path style="opacity:0.004" fill="#daccd7" d="M 1038.5,746.5 C 1038.6,748.553 1037.93,750.22 1036.5,751.5C 1036.4,749.447 1037.07,747.78 1038.5,746.5 Z"/></g>
<g><path style="opacity:0.004" fill="#fefffe" d="M 1042.5,749.5 C 1043.83,750.167 1043.83,750.167 1042.5,749.5 Z"/></g>
<g><path style="opacity:0.004" fill="#dfd3f3" d="M 41.5,749.5 C 42.9313,750.78 43.5979,752.447 43.5,754.5C 42.0687,753.22 41.4021,751.553 41.5,749.5 Z"/></g>
<g><path style="opacity:0.004" fill="#fefffe" d="M 1041.5,751.5 C 1042.83,752.167 1042.83,752.167 1041.5,751.5 Z"/></g>
<g><path style="opacity:0.004" fill="#fefffe" d="M 1040.5,753.5 C 1041.83,754.167 1041.83,754.167 1040.5,753.5 Z"/></g>
<g><path style="opacity:0.004" fill="#fefffe" d="M 1039.5,755.5 C 1040.83,756.167 1040.83,756.167 1039.5,755.5 Z"/></g>
<g><path style="opacity:0.004" fill="#dccfdb" d="M 1035.5,753.5 C 1035.29,756.241 1034.29,758.574 1032.5,760.5C 1032.71,757.759 1033.71,755.426 1035.5,753.5 Z"/></g>
<g><path style="opacity:0.004" fill="#e1d5f5" d="M 44.5,756.5 C 46.2927,758.426 47.2927,760.759 47.5,763.5C 45.7073,761.574 44.7073,759.241 44.5,756.5 Z"/></g>
<g><path style="opacity:0.004" fill="#fefffe" d="M 1038.5,758.5 C 1039.83,759.167 1039.83,759.167 1038.5,758.5 Z"/></g>
<g><path style="opacity:0.004" fill="#fefffe" d="M 1037.5,760.5 C 1038.83,761.167 1038.83,761.167 1037.5,760.5 Z"/></g>
<g><path style="opacity:0.004" fill="#fefffe" d="M 1036.5,762.5 C 1037.83,763.167 1037.83,763.167 1036.5,762.5 Z"/></g>
<g><path style="opacity:0.004" fill="#e3d9df" d="M 1031.5,762.5 C 1030.96,765.912 1029.62,768.912 1027.5,771.5C 1028.04,768.088 1029.38,765.088 1031.5,762.5 Z"/></g>
<g><path style="opacity:0.004" fill="#fefffe" d="M 1035.5,764.5 C 1036.83,765.167 1036.83,765.167 1035.5,764.5 Z"/></g>
<g><path style="opacity:0.004" fill="#fefffe" d="M 1034.5,767.5 C 1035.83,768.167 1035.83,768.167 1034.5,767.5 Z"/></g>
<g><path style="opacity:0.004" fill="#fefffe" d="M 1033.5,769.5 C 1034.83,770.167 1034.83,770.167 1033.5,769.5 Z"/></g>
<g><path style="opacity:0.004" fill="#fefffe" d="M 1032.5,771.5 C 1033.83,772.167 1033.83,772.167 1032.5,771.5 Z"/></g>
<g><path style="opacity:0.004" fill="#dbcdf0" d="M 49.5,767.5 C 52.2895,771.416 54.2895,775.749 55.5,780.5C 52.7105,776.584 50.7105,772.251 49.5,767.5 Z"/></g>
<g><path style="opacity:0.004" fill="#fefffe" d="M 1031.5,773.5 C 1032.83,774.167 1032.83,774.167 1031.5,773.5 Z"/></g>
<g><path style="opacity:0.004" fill="#fefffe" d="M 1030.5,775.5 C 1031.83,776.167 1031.83,776.167 1030.5,775.5 Z"/></g>
<g><path style="opacity:0.004" fill="#fefffe" d="M 1029.5,777.5 C 1030.83,778.167 1030.83,778.167 1029.5,777.5 Z"/></g>
<g><path style="opacity:0.004" fill="#fefffe" d="M 1028.5,779.5 C 1029.83,780.167 1029.83,780.167 1028.5,779.5 Z"/></g>
<g><path style="opacity:0.004" fill="#fefffe" d="M 1027.5,781.5 C 1028.83,782.167 1028.83,782.167 1027.5,781.5 Z"/></g>
<g><path style="opacity:0.004" fill="#fefffe" d="M 1026.5,783.5 C 1027.83,784.167 1027.83,784.167 1026.5,783.5 Z"/></g>
<g><path style="opacity:0.004" fill="#fefffe" d="M 1025.5,785.5 C 1026.83,786.167 1026.83,786.167 1025.5,785.5 Z"/></g>
<g><path style="opacity:0.004" fill="#fefffe" d="M 1024.5,787.5 C 1025.83,788.167 1025.83,788.167 1024.5,787.5 Z"/></g>
<g><path style="opacity:0.004" fill="#e0d4f6" d="M 58.5,786.5 C 60.2503,787.659 61.2503,789.326 61.5,791.5C 59.7497,790.341 58.7497,788.674 58.5,786.5 Z"/></g>
<g><path style="opacity:0.004" fill="#fefffe" d="M 1023.5,789.5 C 1024.83,790.167 1024.83,790.167 1023.5,789.5 Z"/></g>
<g><path style="opacity:0.004" fill="#fefffe" d="M 1022.5,791.5 C 1023.83,792.167 1023.83,792.167 1022.5,791.5 Z"/></g>
<g><path style="opacity:0.004" fill="#fefffe" d="M 1021.5,793.5 C 1022.83,794.167 1022.83,794.167 1021.5,793.5 Z"/></g>
<g><path style="opacity:0.004" fill="#e2d7dc" d="M 1018.5,789.5 C 1017.59,792.992 1015.92,795.992 1013.5,798.5C 1014.41,795.008 1016.08,792.008 1018.5,789.5 Z"/></g>
<g><path style="opacity:0.004" fill="#fefffe" d="M 1020.5,795.5 C 1021.83,796.167 1021.83,796.167 1020.5,795.5 Z"/></g>
<g><path style="opacity:0.004" fill="#fefffe" d="M 1019.5,797.5 C 1020.83,798.167 1020.83,798.167 1019.5,797.5 Z"/></g>
<g><path style="opacity:0.004" fill="#fefffe" d="M 1019.5,798.5 C 1018.83,799.167 1018.83,799.167 1019.5,798.5 Z"/></g>
<g><path style="opacity:0.004" fill="#fefffe" d="M 1017.5,800.5 C 1018.83,801.167 1018.83,801.167 1017.5,800.5 Z"/></g>
<g><path style="opacity:0.004" fill="#e5dcf6" d="M 65.5,799.5 C 67.2503,800.659 68.2503,802.326 68.5,804.5C 66.7497,803.341 65.7497,801.674 65.5,799.5 Z"/></g>
<g><path style="opacity:0.004" fill="#fefffe" d="M 1016.5,802.5 C 1017.83,803.167 1017.83,803.167 1016.5,802.5 Z"/></g>
<g><path style="opacity:0.004" fill="#e4dae0" d="M 1012.5,800.5 C 1012.25,802.674 1011.25,804.341 1009.5,805.5C 1009.75,803.326 1010.75,801.659 1012.5,800.5 Z"/></g>
<g><path style="opacity:0.004" fill="#fefffe" d="M 1015.5,804.5 C 1016.83,805.167 1016.83,805.167 1015.5,804.5 Z"/></g>
<g><path style="opacity:0.004" fill="#fefffe" d="M 1014.5,806.5 C 1015.83,807.167 1015.83,807.167 1014.5,806.5 Z"/></g>
<g><path style="opacity:0.004" fill="#fefffe" d="M 1014.5,807.5 C 1013.83,808.167 1013.83,808.167 1014.5,807.5 Z"/></g>
<g><path style="opacity:0.004" fill="#e4daf6" d="M 69.5,806.5 C 71.2503,807.659 72.2503,809.326 72.5,811.5C 70.7497,810.341 69.7497,808.674 69.5,806.5 Z"/></g>
<g><path style="opacity:0.004" fill="#fefffe" d="M 1012.5,809.5 C 1013.83,810.167 1013.83,810.167 1012.5,809.5 Z"/></g>
<g><path style="opacity:0.004" fill="#e6dddf" d="M 1008.5,807.5 C 1008.25,809.674 1007.25,811.341 1005.5,812.5C 1005.75,810.326 1006.75,808.659 1008.5,807.5 Z"/></g>
<g><path style="opacity:0.004" fill="#fefffe" d="M 1011.5,811.5 C 1012.83,812.167 1012.83,812.167 1011.5,811.5 Z"/></g>
<g><path style="opacity:0.004" fill="#fefffe" d="M 1010.5,813.5 C 1011.83,814.167 1011.83,814.167 1010.5,813.5 Z"/></g>
<g><path style="opacity:0.004" fill="#ebe4f3" d="M 73.5,813.5 C 74.9063,813.973 75.573,814.973 75.5,816.5C 74.0937,816.027 73.427,815.027 73.5,813.5 Z"/></g>
<g><path style="opacity:0.004" fill="#fefffe" d="M 1010.5,814.5 C 1009.83,815.167 1009.83,815.167 1010.5,814.5 Z"/></g>
<g><path style="opacity:0.004" fill="#e8ded1" d="M 1005.5,812.5 C 1004.92,815.331 1003.59,817.664 1001.5,819.5C 1002.08,816.669 1003.41,814.336 1005.5,812.5 Z"/></g>
<g><path style="opacity:0.004" fill="#fefffe" d="M 1008.5,816.5 C 1009.83,817.167 1009.83,817.167 1008.5,816.5 Z"/></g>
<g><path style="opacity:0.004" fill="#fefffe" d="M 1007.5,818.5 C 1008.83,819.167 1008.83,819.167 1007.5,818.5 Z"/></g>
<g><path style="opacity:0.004" fill="#e7dff1" d="M 76.5,818.5 C 77.9063,818.973 78.573,819.973 78.5,821.5C 77.0937,821.027 76.427,820.027 76.5,818.5 Z"/></g>
<g><path style="opacity:0.004" fill="#fefffe" d="M 1006.5,820.5 C 1007.83,821.167 1007.83,821.167 1006.5,820.5 Z"/></g>
<g><path style="opacity:0.004" fill="#fefffe" d="M 1006.5,821.5 C 1005.83,822.167 1005.83,822.167 1006.5,821.5 Z"/></g>
<g><path style="opacity:0.004" fill="#fefffe" d="M 1004.5,823.5 C 1005.83,824.167 1005.83,824.167 1004.5,823.5 Z"/></g>
<g><path style="opacity:0.004" fill="#ece5f8" d="M 79.5,823.5 C 80.9063,823.973 81.573,824.973 81.5,826.5C 80.0937,826.027 79.427,825.027 79.5,823.5 Z"/></g>
<g><path style="opacity:0.004" fill="#fefffe" d="M 1004.5,824.5 C 1003.83,825.167 1003.83,825.167 1004.5,824.5 Z"/></g>
<g><path style="opacity:0.004" fill="#e9e1df" d="M 1001.5,819.5 C 1000.62,822.704 998.95,825.371 996.5,827.5C 997.383,824.296 999.05,821.629 1001.5,819.5 Z"/></g>
<g><path style="opacity:0.004" fill="#fefffe" d="M 1002.5,826.5 C 1003.83,827.167 1003.83,827.167 1002.5,826.5 Z"/></g>
<g><path style="opacity:0.004" fill="#fefffe" d="M 1002.5,827.5 C 1001.83,828.167 1001.83,828.167 1002.5,827.5 Z"/></g>
<g><path style="opacity:0.004" fill="#e2d7e1" d="M 996.5,827.5 C 996.573,829.027 995.906,830.027 994.5,830.5C 994.427,828.973 995.094,827.973 996.5,827.5 Z"/></g>
<g><path style="opacity:0.004" fill="#f0eafc" d="M 82.5,828.5 C 83.9063,828.973 84.573,829.973 84.5,831.5C 83.0937,831.027 82.427,830.027 82.5,828.5 Z"/></g>
<g><path style="opacity:0.004" fill="#fefffe" d="M 1000.5,829.5 C 1001.83,830.167 1001.83,830.167 1000.5,829.5 Z"/></g>
<g><path style="opacity:0.004" fill="#fefffe" d="M 999.5,831.5 C 1000.83,832.167 1000.83,832.167 999.5,831.5 Z"/></g>
<g><path style="opacity:0.004" fill="#ede7fa" d="M 84.5,831.5 C 85.9063,831.973 86.573,832.973 86.5,834.5C 85.0937,834.027 84.427,833.027 84.5,831.5 Z"/></g>
<g><path style="opacity:0.004" fill="#fefffe" d="M 999.5,832.5 C 998.833,833.167 998.833,833.167 999.5,832.5 Z"/></g>
<g><path style="opacity:0.004" fill="#e5dbda" d="M 994.5,830.5 C 991.489,837.197 987.489,843.197 982.5,848.5C 986.007,842.148 990.007,836.148 994.5,830.5 Z"/></g>
<g><path style="opacity:0.004" fill="#fefffe" d="M 997.5,834.5 C 998.833,835.167 998.833,835.167 997.5,834.5 Z"/></g>
<g><path style="opacity:0.004" fill="#ede6f5" d="M 86.5,834.5 C 87.9063,834.973 88.573,835.973 88.5,837.5C 87.0937,837.027 86.427,836.027 86.5,834.5 Z"/></g>
<g><path style="opacity:0.004" fill="#fefffe" d="M 997.5,835.5 C 996.833,836.167 996.833,836.167 997.5,835.5 Z"/></g>
<g><path style="opacity:0.004" fill="#fefffe" d="M 995.5,837.5 C 996.833,838.167 996.833,838.167 995.5,837.5 Z"/></g>
<g><path style="opacity:0.004" fill="#ece6f2" d="M 88.5,837.5 C 89.9063,837.973 90.573,838.973 90.5,840.5C 89.0937,840.027 88.427,839.027 88.5,837.5 Z"/></g>
<g><path style="opacity:0.004" fill="#fefffe" d="M 995.5,838.5 C 994.833,839.167 994.833,839.167 995.5,838.5 Z"/></g>
<g><path style="opacity:0.004" fill="#fefffe" d="M 993.5,840.5 C 994.833,841.167 994.833,841.167 993.5,840.5 Z"/></g>
<g><path style="opacity:0.004" fill="#ede7f4" d="M 90.5,840.5 C 91.9063,840.973 92.573,841.973 92.5,843.5C 91.0937,843.027 90.427,842.027 90.5,840.5 Z"/></g>
<g><path style="opacity:0.004" fill="#fefffe" d="M 993.5,841.5 C 992.833,842.167 992.833,842.167 993.5,841.5 Z"/></g>
<g><path style="opacity:0.004" fill="#fefffe" d="M 991.5,843.5 C 992.833,844.167 992.833,844.167 991.5,843.5 Z"/></g>
<g><path style="opacity:0.004" fill="#f1ecf7" d="M 92.5,843.5 C 93.9063,843.973 94.573,844.973 94.5,846.5C 93.0937,846.027 92.427,845.027 92.5,843.5 Z"/></g>
<g><path style="opacity:0.004" fill="#fefffe" d="M 991.5,844.5 C 990.833,845.167 990.833,845.167 991.5,844.5 Z"/></g>
<g><path style="opacity:0.004" fill="#fefffe" d="M 989.5,846.5 C 990.833,847.167 990.833,847.167 989.5,846.5 Z"/></g>
<g><path style="opacity:0.004" fill="#fefffe" d="M 989.5,847.5 C 988.833,848.167 988.833,848.167 989.5,847.5 Z"/></g>
<g><path style="opacity:0.004" fill="#e0d5f3" d="M 95.5,847.5 C 96.9063,847.973 97.573,848.973 97.5,850.5C 96.0937,850.027 95.427,849.027 95.5,847.5 Z"/></g>
<g><path style="opacity:0.004" fill="#e9e1de" d="M 982.5,848.5 C 982.573,850.027 981.906,851.027 980.5,851.5C 980.427,849.973 981.094,848.973 982.5,848.5 Z"/></g>
<g><path style="opacity:0.004" fill="#fefffe" d="M 987.5,849.5 C 988.833,850.167 988.833,850.167 987.5,849.5 Z"/></g>
<g><path style="opacity:0.004" fill="#fefffe" d="M 987.5,850.5 C 986.833,851.167 986.833,851.167 987.5,850.5 Z"/></g>
<g><path style="opacity:0.004" fill="#e5dcf6" d="M 97.5,850.5 C 98.9063,850.973 99.573,851.973 99.5,853.5C 98.0937,853.027 97.427,852.027 97.5,850.5 Z"/></g>
<g><path style="opacity:0.004" fill="#fefffe" d="M 985.5,852.5 C 986.833,853.167 986.833,853.167 985.5,852.5 Z"/></g>
<g><path style="opacity:0.004" fill="#e5dbde" d="M 980.5,851.5 C 980.262,853.404 979.262,854.738 977.5,855.5C 977.738,853.596 978.738,852.262 980.5,851.5 Z"/></g>
<g><path style="opacity:0.004" fill="#fefffe" d="M 985.5,853.5 C 984.833,854.167 984.833,854.167 985.5,853.5 Z"/></g>
<g><path style="opacity:0.004" fill="#e5dbf4" d="M 99.5,853.5 C 101.262,854.262 102.262,855.596 102.5,857.5C 100.738,856.738 99.7376,855.404 99.5,853.5 Z"/></g>
<g><path style="opacity:0.004" fill="#eae2d6" d="M 977.5,855.5 C 977.573,857.027 976.906,858.027 975.5,858.5C 975.427,856.973 976.094,855.973 977.5,855.5 Z"/></g>
<g><path style="opacity:0.004" fill="#fefffe" d="M 982.5,856.5 C 983.833,857.167 983.833,857.167 982.5,856.5 Z"/></g>
<g><path style="opacity:0.004" fill="#fefffe" d="M 982.5,857.5 C 981.833,858.167 981.833,858.167 982.5,857.5 Z"/></g>
<g><path style="opacity:0.004" fill="#ebe4f2" d="M 102.5,857.5 C 103.906,857.973 104.573,858.973 104.5,860.5C 103.094,860.027 102.427,859.027 102.5,857.5 Z"/></g>
<g><path style="opacity:0.004" fill="#fefffe" d="M 980.5,859.5 C 981.833,860.167 981.833,860.167 980.5,859.5 Z"/></g>
<g><path style="opacity:0.004" fill="#ece4d3" d="M 975.5,858.5 C 975.262,860.404 974.262,861.738 972.5,862.5C 972.738,860.596 973.738,859.262 975.5,858.5 Z"/></g>
<g><path style="opacity:0.004" fill="#fefffe" d="M 980.5,860.5 C 979.833,861.167 979.833,861.167 980.5,860.5 Z"/></g>
<g><path style="opacity:0.004" fill="#e6deef" d="M 105.5,861.5 C 106.906,861.973 107.573,862.973 107.5,864.5C 106.094,864.027 105.427,863.027 105.5,861.5 Z"/></g>
<g><path style="opacity:0.004" fill="#fefffe" d="M 977.5,863.5 C 978.833,864.167 978.833,864.167 977.5,863.5 Z"/></g>
<g><path style="opacity:0.004" fill="#ece5d8" d="M 972.5,862.5 C 972.262,864.404 971.262,865.738 969.5,866.5C 969.738,864.596 970.738,863.262 972.5,862.5 Z"/></g>
<g><path style="opacity:0.004" fill="#fefffe" d="M 977.5,864.5 C 976.833,865.167 976.833,865.167 977.5,864.5 Z"/></g>
<g><path style="opacity:0.004" fill="#e1d5f0" d="M 108.5,865.5 C 110.262,866.262 111.262,867.596 111.5,869.5C 109.738,868.738 108.738,867.404 108.5,865.5 Z"/></g>
<g><path style="opacity:0.004" fill="#fefffe" d="M 975.5,866.5 C 976.833,867.167 976.833,867.167 975.5,866.5 Z"/></g>
<g><path style="opacity:0.004" fill="#fefffe" d="M 975.5,867.5 C 974.833,868.167 974.833,868.167 975.5,867.5 Z"/></g>
<g><path style="opacity:0.004" fill="#fefffe" d="M 974.5,868.5 C 973.833,869.167 973.833,869.167 974.5,868.5 Z"/></g>
<g><path style="opacity:0.004" fill="#e4dad4" d="M 969.5,866.5 C 968.92,868.749 967.587,870.415 965.5,871.5C 966.08,869.251 967.413,867.585 969.5,866.5 Z"/></g>
<g><path style="opacity:0.004" fill="#e6ddf5" d="M 111.5,869.5 C 113.262,870.262 114.262,871.596 114.5,873.5C 112.738,872.738 111.738,871.404 111.5,869.5 Z"/></g>
<g><path style="opacity:0.004" fill="#fefffe" d="M 971.5,871.5 C 972.833,872.167 972.833,872.167 971.5,871.5 Z"/></g>
<g><path style="opacity:0.004" fill="#fefffe" d="M 971.5,872.5 C 970.833,873.167 970.833,873.167 971.5,872.5 Z"/></g>
<g><path style="opacity:0.004" fill="#eae3de" d="M 965.5,871.5 C 965.262,873.404 964.262,874.738 962.5,875.5C 962.738,873.596 963.738,872.262 965.5,871.5 Z"/></g>
<g><path style="opacity:0.004" fill="#fefffe" d="M 970.5,873.5 C 969.833,874.167 969.833,874.167 970.5,873.5 Z"/></g>
<g><path style="opacity:0.004" fill="#e5dcf1" d="M 115.5,874.5 C 117.262,875.262 118.262,876.596 118.5,878.5C 116.738,877.738 115.738,876.404 115.5,874.5 Z"/></g>
<g><path style="opacity:0.004" fill="#fefffe" d="M 967.5,876.5 C 968.833,877.167 968.833,877.167 967.5,876.5 Z"/></g>
<g><path style="opacity:0.004" fill="#fefffe" d="M 967.5,877.5 C 966.833,878.167 966.833,878.167 967.5,877.5 Z"/></g>
<g><path style="opacity:0.004" fill="#e6dcc5" d="M 961.5,876.5 C 959.628,881.043 956.628,884.71 952.5,887.5C 955.129,883.537 958.129,879.871 961.5,876.5 Z"/></g>
<g><path style="opacity:0.004" fill="#e1d6e8" d="M 119.5,879.5 C 121.587,880.585 122.92,882.251 123.5,884.5C 121.413,883.415 120.08,881.749 119.5,879.5 Z"/></g>
<g><path style="opacity:0.004" fill="#fefffe" d="M 964.5,880.5 C 965.833,881.167 965.833,881.167 964.5,880.5 Z"/></g>
<g><path style="opacity:0.004" fill="#fefffe" d="M 964.5,881.5 C 963.833,882.167 963.833,882.167 964.5,881.5 Z"/></g>
<g><path style="opacity:0.004" fill="#fefffe" d="M 963.5,882.5 C 962.833,883.167 962.833,883.167 963.5,882.5 Z"/></g>
<g><path style="opacity:0.004" fill="#fefffe" d="M 960.5,885.5 C 961.833,886.167 961.833,886.167 960.5,885.5 Z"/></g>
<g><path style="opacity:0.004" fill="#e2d7ee" d="M 124.5,885.5 C 126.587,886.585 127.92,888.251 128.5,890.5C 126.413,889.415 125.08,887.749 124.5,885.5 Z"/></g>
<g><path style="opacity:0.004" fill="#fefffe" d="M 960.5,886.5 C 959.833,887.167 959.833,887.167 960.5,886.5 Z"/></g>
<g><path style="opacity:0.004" fill="#fefffe" d="M 959.5,887.5 C 958.833,888.167 958.833,888.167 959.5,887.5 Z"/></g>
<g><path style="opacity:0.004" fill="#fefffe" d="M 958.5,888.5 C 957.833,889.167 957.833,889.167 958.5,888.5 Z"/></g>
<g><path style="opacity:0.004" fill="#fefffe" d="M 957.5,889.5 C 956.833,890.167 956.833,890.167 957.5,889.5 Z"/></g>
<g><path style="opacity:0.004" fill="#e5dbd4" d="M 952.5,887.5 C 951.581,890.089 949.914,892.089 947.5,893.5C 948.419,890.911 950.086,888.911 952.5,887.5 Z"/></g>
<g><path style="opacity:0.004" fill="#e1d6f3" d="M 129.5,891.5 C 131.914,892.911 133.581,894.911 134.5,897.5C 132.086,896.089 130.419,894.089 129.5,891.5 Z"/></g>
<g><path style="opacity:0.004" fill="#fefffe" d="M 954.5,892.5 C 955.833,893.167 955.833,893.167 954.5,892.5 Z"/></g>
<g><path style="opacity:0.004" fill="#fefffe" d="M 954.5,893.5 C 953.833,894.167 953.833,894.167 954.5,893.5 Z"/></g>
<g><path style="opacity:0.004" fill="#fefffe" d="M 953.5,894.5 C 952.833,895.167 952.833,895.167 953.5,894.5 Z"/></g>
<g><path style="opacity:0.004" fill="#fefffe" d="M 952.5,895.5 C 951.833,896.167 951.833,896.167 952.5,895.5 Z"/></g>
<g><path style="opacity:0.004" fill="#fefffe" d="M 951.5,896.5 C 950.833,897.167 950.833,897.167 951.5,896.5 Z"/></g>
<g><path style="opacity:0.004" fill="#fefffe" d="M 948.5,899.5 C 949.833,900.167 949.833,900.167 948.5,899.5 Z"/></g>
<g><path style="opacity:0.004" fill="#dfd3ec" d="M 136.5,899.5 C 139.573,901.569 141.906,904.236 143.5,907.5C 140.427,905.431 138.094,902.764 136.5,899.5 Z"/></g>
<g><path style="opacity:0.004" fill="#fefffe" d="M 948.5,900.5 C 947.833,901.167 947.833,901.167 948.5,900.5 Z"/></g>
<g><path style="opacity:0.004" fill="#fefffe" d="M 947.5,901.5 C 946.833,902.167 946.833,902.167 947.5,901.5 Z"/></g>
<g><path style="opacity:0.004" fill="#fefffe" d="M 946.5,902.5 C 945.833,903.167 945.833,903.167 946.5,902.5 Z"/></g>
<g><path style="opacity:0.004" fill="#fefffe" d="M 945.5,903.5 C 944.833,904.167 944.833,904.167 945.5,903.5 Z"/></g>
<g><path style="opacity:0.004" fill="#fefffe" d="M 944.5,904.5 C 943.833,905.167 943.833,905.167 944.5,904.5 Z"/></g>
<g><path style="opacity:0.004" fill="#fefffe" d="M 941.5,907.5 C 942.833,908.167 942.833,908.167 941.5,907.5 Z"/></g>
<g><path style="opacity:0.004" fill="#fefffe" d="M 941.5,908.5 C 940.833,909.167 940.833,909.167 941.5,908.5 Z"/></g>
<g><path style="opacity:0.004" fill="#fefffe" d="M 940.5,909.5 C 939.833,910.167 939.833,910.167 940.5,909.5 Z"/></g>
<g><path style="opacity:0.004" fill="#fefffe" d="M 939.5,910.5 C 938.833,911.167 938.833,911.167 939.5,910.5 Z"/></g>
<g><path style="opacity:0.004" fill="#fefffe" d="M 938.5,911.5 C 937.833,912.167 937.833,912.167 938.5,911.5 Z"/></g>
<g><path style="opacity:0.004" fill="#eee9f7" d="M 147.5,911.5 C 154.167,917.5 160.5,923.833 166.5,930.5C 159.167,925.167 152.833,918.833 147.5,911.5 Z"/></g>
<g><path style="opacity:0.004" fill="#fefffe" d="M 937.5,912.5 C 936.833,913.167 936.833,913.167 937.5,912.5 Z"/></g>
<g><path style="opacity:0.004" fill="#fefffe" d="M 936.5,913.5 C 935.833,914.167 935.833,914.167 936.5,913.5 Z"/></g>
<g><path style="opacity:0.004" fill="#fefffe" d="M 935.5,914.5 C 934.833,915.167 934.833,915.167 935.5,914.5 Z"/></g>
<g><path style="opacity:0.004" fill="#fefffe" d="M 934.5,915.5 C 933.833,916.167 933.833,916.167 934.5,915.5 Z"/></g>
<g><path style="opacity:0.004" fill="#fefffe" d="M 933.5,916.5 C 932.833,917.167 932.833,917.167 933.5,916.5 Z"/></g>
<g><path style="opacity:0.004" fill="#fefffe" d="M 932.5,917.5 C 931.833,918.167 931.833,918.167 932.5,917.5 Z"/></g>
<g><path style="opacity:0.004" fill="#fefffe" d="M 931.5,918.5 C 930.833,919.167 930.833,919.167 931.5,918.5 Z"/></g>
<g><path style="opacity:0.004" fill="#fefffe" d="M 930.5,919.5 C 929.833,920.167 929.833,920.167 930.5,919.5 Z"/></g>
<g><path style="opacity:0.004" fill="#fefffe" d="M 929.5,920.5 C 928.833,921.167 928.833,921.167 929.5,920.5 Z"/></g>
<g><path style="opacity:0.004" fill="#fefffe" d="M 928.5,921.5 C 927.833,922.167 927.833,922.167 928.5,921.5 Z"/></g>
<g><path style="opacity:0.004" fill="#fefffe" d="M 927.5,922.5 C 926.833,923.167 926.833,923.167 927.5,922.5 Z"/></g>
<g><path style="opacity:0.004" fill="#fefffe" d="M 926.5,923.5 C 925.833,924.167 925.833,924.167 926.5,923.5 Z"/></g>
<g><path style="opacity:0.004" fill="#fefffe" d="M 925.5,924.5 C 924.833,925.167 924.833,925.167 925.5,924.5 Z"/></g>
<g><path style="opacity:0.004" fill="#fefffe" d="M 924.5,925.5 C 923.833,926.167 923.833,926.167 924.5,925.5 Z"/></g>
<g><path style="opacity:0.004" fill="#fefffe" d="M 923.5,926.5 C 922.833,927.167 922.833,927.167 923.5,926.5 Z"/></g>
<g><path style="opacity:0.004" fill="#fefffe" d="M 922.5,927.5 C 921.833,928.167 921.833,928.167 922.5,927.5 Z"/></g>
<g><path style="opacity:0.004" fill="#fefffe" d="M 921.5,928.5 C 920.833,929.167 920.833,929.167 921.5,928.5 Z"/></g>
<g><path style="opacity:0.004" fill="#fefffe" d="M 920.5,929.5 C 919.833,930.167 919.833,930.167 920.5,929.5 Z"/></g>
<g><path style="opacity:0.004" fill="#fefffe" d="M 919.5,930.5 C 918.833,931.167 918.833,931.167 919.5,930.5 Z"/></g>
<g><path style="opacity:0.004" fill="#fefffe" d="M 918.5,931.5 C 917.833,932.167 917.833,932.167 918.5,931.5 Z"/></g>
<g><path style="opacity:0.004" fill="#fefffe" d="M 917.5,932.5 C 916.833,933.167 916.833,933.167 917.5,932.5 Z"/></g>
<g><path style="opacity:0.004" fill="#fefffe" d="M 916.5,933.5 C 915.833,934.167 915.833,934.167 916.5,933.5 Z"/></g>
<g><path style="opacity:0.004" fill="#fefffe" d="M 915.5,934.5 C 914.833,935.167 914.833,935.167 915.5,934.5 Z"/></g>
<g><path style="opacity:0.004" fill="#fefffe" d="M 914.5,935.5 C 913.833,936.167 913.833,936.167 914.5,935.5 Z"/></g>
<g><path style="opacity:0.004" fill="#fefffe" d="M 913.5,936.5 C 912.833,937.167 912.833,937.167 913.5,936.5 Z"/></g>
<g><path style="opacity:0.004" fill="#fefffe" d="M 912.5,937.5 C 911.833,938.167 911.833,938.167 912.5,937.5 Z"/></g>
<g><path style="opacity:0.004" fill="#fefffe" d="M 911.5,938.5 C 910.833,939.167 910.833,939.167 911.5,938.5 Z"/></g>
<g><path style="opacity:0.004" fill="#dccee8" d="M 168.5,932.5 C 172.771,935.101 176.437,938.434 179.5,942.5C 175.229,939.899 171.563,936.566 168.5,932.5 Z"/></g>
<g><path style="opacity:0.004" fill="#f5f1f1" d="M 946.5,894.5 C 939.94,903.236 932.773,911.57 925,919.5C 917.697,925.802 910.697,932.468 904,939.5C 903.421,940.928 903.588,942.262 904.5,943.5C 824.348,1014.57 731.015,1058.9 624.5,1076.5C 624.611,1075.88 624.944,1075.38 625.5,1075C 619.852,1075.03 614.185,1075.2 608.5,1075.5C 743.176,1055.51 855.843,995.172 946.5,894.5 Z"/></g>
<g><path style="opacity:0.004" fill="#fefffe" d="M 910.5,939.5 C 909.833,940.167 909.833,940.167 910.5,939.5 Z"/></g>
<g><path style="opacity:0.004" fill="#fefffe" d="M 909.5,940.5 C 908.833,941.167 908.833,941.167 909.5,940.5 Z"/></g>
<g><path style="opacity:0.004" fill="#fefffe" d="M 906.5,942.5 C 906.842,941.662 907.508,941.328 908.5,941.5C 908.158,942.338 907.492,942.672 906.5,942.5 Z"/></g>
<g><path style="opacity:0.004" fill="#c6afea" d="M 179.5,942.5 C 182.764,944.094 185.431,946.427 187.5,949.5C 184.236,947.906 181.569,945.573 179.5,942.5 Z"/></g>
<g><path style="opacity:0.004" fill="#fefffe" d="M 906.5,942.5 C 905.833,943.167 905.833,943.167 906.5,942.5 Z"/></g>
<g><path style="opacity:0.004" fill="#fefffe" d="M 904.5,943.5 C 904.833,943.5 905.167,943.5 905.5,943.5C 905.315,944.17 904.981,944.17 904.5,943.5 Z"/></g>
<g><path style="opacity:0.004" fill="#cebae2" d="M 187.5,949.5 C 190.089,950.419 192.089,952.086 193.5,954.5C 190.911,953.581 188.911,951.914 187.5,949.5 Z"/></g>
<g><path style="opacity:0.004" fill="#cfbcd6" d="M 193.5,954.5 C 196.089,955.419 198.089,957.086 199.5,959.5C 196.911,958.581 194.911,956.914 193.5,954.5 Z"/></g>
<g><path style="opacity:0.004" fill="#d3c3e4" d="M 199.5,959.5 C 201.749,960.08 203.415,961.413 204.5,963.5C 202.251,962.92 200.585,961.587 199.5,959.5 Z"/></g>
<g><path style="opacity:0.004" fill="#d7c8ed" d="M 204.5,963.5 C 206.749,964.08 208.415,965.413 209.5,967.5C 207.251,966.92 205.585,965.587 204.5,963.5 Z"/></g>
<g><path style="opacity:0.004" fill="#d7c9e1" d="M 209.5,967.5 C 211.404,967.738 212.738,968.738 213.5,970.5C 211.596,970.262 210.262,969.262 209.5,967.5 Z"/></g>
<g><path style="opacity:0.004" fill="#d6c7d4" d="M 213.5,970.5 C 215.404,970.738 216.738,971.738 217.5,973.5C 215.596,973.262 214.262,972.262 213.5,970.5 Z"/></g>
<g><path style="opacity:0.004" fill="#d9cdd5" d="M 217.5,973.5 C 219.404,973.738 220.738,974.738 221.5,976.5C 219.596,976.262 218.262,975.262 217.5,973.5 Z"/></g>
<g><path style="opacity:0.004" fill="#ded3e5" d="M 221.5,976.5 C 223.404,976.738 224.738,977.738 225.5,979.5C 223.596,979.262 222.262,978.262 221.5,976.5 Z"/></g>
<g><path style="opacity:0.004" fill="#dfd5ef" d="M 225.5,979.5 C 227.027,979.427 228.027,980.094 228.5,981.5C 226.973,981.573 225.973,980.906 225.5,979.5 Z"/></g>
<g><path style="opacity:0.004" fill="#d2c2ec" d="M 228.5,981.5 C 230.027,981.427 231.027,982.094 231.5,983.5C 229.973,983.573 228.973,982.906 228.5,981.5 Z"/></g>
<g><path style="opacity:0.004" fill="#d1c0ea" d="M 231.5,983.5 C 233.404,983.738 234.738,984.738 235.5,986.5C 233.596,986.262 232.262,985.262 231.5,983.5 Z"/></g>
<g><path style="opacity:0.004" fill="#ded3f0" d="M 235.5,986.5 C 237.027,986.427 238.027,987.094 238.5,988.5C 236.973,988.573 235.973,987.906 235.5,986.5 Z"/></g>
<g><path style="opacity:0.004" fill="#e4dbed" d="M 238.5,988.5 C 240.027,988.427 241.027,989.094 241.5,990.5C 239.973,990.573 238.973,989.906 238.5,988.5 Z"/></g>
<g><path style="opacity:0.004" fill="#eae3f3" d="M 241.5,990.5 C 243.027,990.427 244.027,991.094 244.5,992.5C 242.973,992.573 241.973,991.906 241.5,990.5 Z"/></g>
<g><path style="opacity:0.004" fill="#d4c4eb" d="M 246.5,993.5 C 248.027,993.427 249.027,994.094 249.5,995.5C 247.973,995.573 246.973,994.906 246.5,993.5 Z"/></g>
<g><path style="opacity:0.004" fill="#ded3f2" d="M 249.5,995.5 C 251.027,995.427 252.027,996.094 252.5,997.5C 250.973,997.573 249.973,996.906 249.5,995.5 Z"/></g>
<g><path style="opacity:0.004" fill="#e8e0f6" d="M 252.5,997.5 C 254.027,997.427 255.027,998.094 255.5,999.5C 253.973,999.573 252.973,998.906 252.5,997.5 Z"/></g>
<g><path style="opacity:0.004" fill="#d9cbed" d="M 257.5,1000.5 C 259.027,1000.43 260.027,1001.09 260.5,1002.5C 258.973,1002.57 257.973,1001.91 257.5,1000.5 Z"/></g>
<g><path style="opacity:0.004" fill="#e5ddf0" d="M 260.5,1002.5 C 262.674,1002.75 264.341,1003.75 265.5,1005.5C 263.326,1005.25 261.659,1004.25 260.5,1002.5 Z"/></g>
<g><path style="opacity:0.004" fill="#e0d6f3" d="M 267.5,1006.5 C 269.674,1006.75 271.341,1007.75 272.5,1009.5C 270.326,1009.25 268.659,1008.25 267.5,1006.5 Z"/></g>
<g><path style="opacity:0.004" fill="#e1d6f3" d="M 274.5,1010.5 C 276.674,1010.75 278.341,1011.75 279.5,1013.5C 277.326,1013.25 275.659,1012.25 274.5,1010.5 Z"/></g>
<g><path style="opacity:0.004" fill="#ded2f5" d="M 289.5,1018.5 C 292.992,1019.41 295.992,1021.08 298.5,1023.5C 295.008,1022.59 292.008,1020.92 289.5,1018.5 Z"/></g>
<g><path style="opacity:0.004" fill="#e5dcf7" d="M 306.5,1027.5 C 309.241,1027.71 311.574,1028.71 313.5,1030.5C 310.759,1030.29 308.426,1029.29 306.5,1027.5 Z"/></g>
<g><path style="opacity:0.004" fill="#eee8fb" d="M 319.5,1033.5 C 321.553,1033.4 323.22,1034.07 324.5,1035.5C 322.447,1035.6 320.78,1034.93 319.5,1033.5 Z"/></g>
<g><path style="opacity:0.004" fill="#ece5f6" d="M 326.5,1036.5 C 328.553,1036.4 330.22,1037.07 331.5,1038.5C 329.447,1038.6 327.78,1037.93 326.5,1036.5 Z"/></g>
<g><path style="opacity:0.004" fill="#e7def1" d="M 331.5,1038.5 C 333.553,1038.4 335.22,1039.07 336.5,1040.5C 334.447,1040.6 332.78,1039.93 331.5,1038.5 Z"/></g>
<g><path style="opacity:0.004" fill="#e2d7f6" d="M 336.5,1040.5 C 338.553,1040.4 340.22,1041.07 341.5,1042.5C 339.447,1042.6 337.78,1041.93 336.5,1040.5 Z"/></g>
<g><path style="opacity:0.004" fill="#ebe5fa" d="M 346.5,1044.5 C 348.553,1044.4 350.22,1045.07 351.5,1046.5C 349.447,1046.6 347.78,1045.93 346.5,1044.5 Z"/></g>
<g><path style="opacity:0.004" fill="#e8e0f3" d="M 357.5,1048.5 C 362.534,1049.4 367.201,1051.06 371.5,1053.5C 366.466,1052.6 361.799,1050.94 357.5,1048.5 Z"/></g>
<g><path style="opacity:0.004" fill="#c1a2f3" d="M 371.5,1053.5 C 374.01,1053.05 376.01,1053.72 377.5,1055.5C 375.214,1055.41 373.214,1054.74 371.5,1053.5 Z"/></g>
<g><path style="opacity:0.004" fill="#c3a9ef" d="M 377.5,1055.5 C 380.228,1055.17 382.562,1055.84 384.5,1057.5C 381.933,1057.28 379.599,1056.61 377.5,1055.5 Z"/></g>
<g><path style="opacity:0.004" fill="#c6acf4" d="M 384.5,1057.5 C 388.286,1057.32 391.619,1058.32 394.5,1060.5C 390.884,1060.1 387.55,1059.1 384.5,1057.5 Z"/></g>
<g><path style="opacity:0.004" fill="#cebaf5" d="M 394.5,1060.5 C 404.457,1062.07 414.124,1064.41 423.5,1067.5C 413.543,1065.93 403.876,1063.59 394.5,1060.5 Z"/></g>
<g><path style="opacity:0.004" fill="#e1d5f8" d="M 423.5,1067.5 C 428.744,1067.88 433.744,1068.88 438.5,1070.5C 433.206,1070.37 428.206,1069.37 423.5,1067.5 Z"/></g>
<g><path style="opacity:0.056" fill="#ebe3f4" d="M 443.5,1071.5 C 467.53,1075.1 491.53,1077.77 515.5,1079.5C 504.167,1079.5 492.833,1079.5 481.5,1079.5C 468.859,1076.71 456.192,1074.04 443.5,1071.5 Z"/></g>
<g><path style="opacity:0.004" fill="#fefffe" d="M 624.5,1076.5 C 623.749,1077.57 622.749,1077.74 621.5,1077C 622.448,1076.52 623.448,1076.35 624.5,1076.5 Z"/></g>
<g><path style="opacity:0.005" fill="#ddd1df" d="M 606.5,1075.5 C 599.181,1076.93 591.848,1078.26 584.5,1079.5C 575.167,1079.5 565.833,1079.5 556.5,1079.5C 573.014,1078.13 589.681,1076.79 606.5,1075.5 Z"/></g>
</svg>
