<?xml version="1.0" encoding="UTF-8"?>
<!DOCTYPE svg PUBLIC "-//W3C//DTD SVG 1.1//EN" "http://www.w3.org/Graphics/SVG/1.1/DTD/svg11.dtd">
<svg xmlns="http://www.w3.org/2000/svg" version="1.1" width="500px" height="500px" style="shape-rendering:geometricPrecision; text-rendering:geometricPrecision; image-rendering:optimizeQuality; fill-rule:evenodd; clip-rule:evenodd" xmlns:xlink="http://www.w3.org/1999/xlink">
<g><path style="opacity:1" fill="#fe1918" d="M 233.5,-0.5 C 244.5,-0.5 255.5,-0.5 266.5,-0.5C 367.523,10.3617 439.023,62.0284 481,154.5C 491.307,181.049 497.474,208.382 499.5,236.5C 499.5,246.5 499.5,256.5 499.5,266.5C 488.331,367.364 436.664,438.864 344.5,481C 318.307,491.335 291.307,497.501 263.5,499.5C 253.833,499.5 244.167,499.5 234.5,499.5C 152.412,492.557 87.9122,455.557 41,388.5C 17.0788,351.568 3.2455,311.235 -0.5,267.5C -0.5,253.5 -0.5,239.5 -0.5,225.5C 12.8805,127.98 64.2138,58.813 153.5,18C 179.354,7.70061 206.021,1.53395 233.5,-0.5 Z"/></g>
<g><path style="opacity:1" fill="#3b00f9" d="M 227.5,38.5 C 316.751,33.7056 385.251,68.7056 433,143.5C 460.142,191.448 467.809,242.448 456,296.5C 435.006,375.391 385.84,427.557 308.5,453C 226.663,473.121 155.83,453.954 96,395.5C 46.3726,340.215 28.7059,275.882 43,202.5C 57.9269,143.076 91.4269,97.5756 143.5,66C 169.777,51.2961 197.777,42.1294 227.5,38.5 Z"/></g>
<g><path style="opacity:1" fill="#fdf606" d="M 138.5,121.5 C 147.888,119.92 156.221,122.086 163.5,128C 192.014,156.68 220.68,185.18 249.5,213.5C 278.653,184.847 307.653,156.014 336.5,127C 353.081,117.123 366.581,120.289 377,136.5C 379.606,145.644 378.606,154.311 374,162.5C 344.653,191.68 315.486,221.014 286.5,250.5C 316.181,280.347 345.681,310.347 375,340.5C 382.625,356.619 378.792,369.119 363.5,378C 355.333,381.516 347.333,381.183 339.5,377C 309.028,347.528 278.861,317.695 249,287.5C 219.5,317 190,346.5 160.5,376C 146.583,383.559 134.416,381.393 124,369.5C 118.568,360.302 118.234,350.969 123,341.5C 152.472,311.028 182.305,280.861 212.5,251C 184.721,223.221 156.887,195.387 129,167.5C 126.667,164.5 124.333,161.5 122,158.5C 116.682,141.148 122.182,128.815 138.5,121.5 Z"/></g>
</svg>
