<?xml version="1.0" encoding="UTF-8"?>
<!DOCTYPE svg PUBLIC "-//W3C//DTD SVG 1.1//EN" "http://www.w3.org/Graphics/SVG/1.1/DTD/svg11.dtd">
<svg xmlns="http://www.w3.org/2000/svg" version="1.1" width="1080px" height="1080px" style="shape-rendering:geometricPrecision; text-rendering:geometricPrecision; image-rendering:optimizeQuality; fill-rule:evenodd; clip-rule:evenodd" xmlns:xlink="http://www.w3.org/1999/xlink">
<g><path style="opacity:0.92" fill="#000a61" d="M 677.5,103.5 C 681.244,103.954 683.744,105.954 685,109.5C 685.009,205.877 685.676,302.21 687,398.5C 689,395.833 691,393.167 693,390.5C 705.471,379.03 717.638,367.196 729.5,355C 732.702,353.517 736.036,353.183 739.5,354C 779.912,392.983 804.412,440.483 813,496.5C 821.902,573.445 800.902,640.779 750,698.5C 745.468,703.367 740.634,707.867 735.5,712C 732.634,713.457 729.634,713.79 726.5,713C 713.229,701.731 700.562,689.731 688.5,677C 688.167,676.833 687.833,676.667 687.5,676.5C 686.749,677.376 686.249,678.376 686,679.5C 685.667,776.167 685.333,872.833 685,969.5C 683.964,972.702 681.797,974.702 678.5,975.5C 674.422,973.586 670.755,971.086 667.5,968C 581.167,881.667 494.833,795.333 408.5,709C 320.462,708.005 232.462,707.005 144.5,706C 142.951,704.786 141.785,703.286 141,701.5C 140.811,670.471 140.311,639.471 139.5,608.5C 130.2,607.748 120.866,607.248 111.5,607C 109,605.833 107.167,604 106,601.5C 105.333,554.5 105.333,507.5 106,460.5C 107.167,458 109,456.167 111.5,455C 120.2,454.745 128.867,454.245 137.5,453.5C 138.307,426.863 138.807,400.197 139,373.5C 140.167,371 142,369.167 144.5,368C 233.877,367.99 323.21,367.323 412.5,366C 497.5,281 582.5,196 667.5,111C 670.734,108.252 674.068,105.752 677.5,103.5 Z M 686.5,401.5 C 741.07,457.87 755.236,523.203 729,597.5C 719.582,620.358 705.749,640.025 687.5,656.5C 686.749,655.624 686.249,654.624 686,653.5C 685.333,637.833 685.333,622.167 686,606.5C 686.471,604.754 687.138,603.087 688,601.5C 714.326,578.546 725.326,549.546 721,514.5C 717.152,490.464 705.818,470.798 687,455.5C 685.179,437.541 685.013,419.541 686.5,401.5 Z"/></g>
</svg>
