<?xml version="1.0" encoding="UTF-8"?>
<!DOCTYPE svg PUBLIC "-//W3C//DTD SVG 1.1//EN" "http://www.w3.org/Graphics/SVG/1.1/DTD/svg11.dtd">
<svg xmlns="http://www.w3.org/2000/svg" version="1.1" width="1080px" height="1080px" style="shape-rendering:geometricPrecision; text-rendering:geometricPrecision; image-rendering:optimizeQuality; fill-rule:evenodd; clip-rule:evenodd" xmlns:xlink="http://www.w3.org/1999/xlink">
<g><path style="opacity:0.305" fill="#030267" d="M -0.5,-0.5 C 0.166667,-0.5 0.833333,-0.5 1.5,-0.5C 1.3404,1.15298 0.673734,2.48631 -0.5,3.5C -0.5,2.16667 -0.5,0.833333 -0.5,-0.5 Z"/></g>
<g><path style="opacity:0.902" fill="#030267" d="M 675.5,98.5 C 683.774,98.9281 688.941,103.261 691,111.5C 691.333,224.5 691.667,337.5 692,450.5C 692.471,452.246 693.138,453.913 694,455.5C 719.565,478.847 730.565,507.847 727,542.5C 722.96,567.253 711.627,587.919 693,604.5C 692.667,605.5 692.333,606.5 692,607.5C 691.667,727.5 691.333,847.5 691,967.5C 689.325,974.34 685.158,978.673 678.5,980.5C 676.701,980.423 675.034,979.923 673.5,979C 669.833,976 666.167,973 662.5,970C 577.833,885.333 493.167,800.667 408.5,716C 406.913,715.138 405.246,714.471 403.5,714C 318.5,713.667 233.5,713.333 148.5,713C 142,710.5 137.5,706 135,699.5C 134.667,672.167 134.333,644.833 134,617.5C 133.5,615.667 132.333,614.5 130.5,614C 123.754,613.879 117.087,613.212 110.5,612C 105.527,609.031 102.027,604.864 100,599.5C 99.3333,553.833 99.3333,508.167 100,462.5C 105.512,450.303 115.012,445.47 128.5,448C 130.333,447.5 131.5,446.333 132,444.5C 132.333,421.5 132.667,398.5 133,375.5C 135.5,369 140,364.5 146.5,362C 234.557,361.992 322.557,361.326 410.5,360C 494.806,276.694 578.806,193.027 662.5,109C 666.732,105.257 671.065,101.757 675.5,98.5 Z"/></g>
</svg>
