<?xml version="1.0" encoding="UTF-8"?>
<!DOCTYPE svg PUBLIC "-//W3C//DTD SVG 1.1//EN" "http://www.w3.org/Graphics/SVG/1.1/DTD/svg11.dtd">
<svg xmlns="http://www.w3.org/2000/svg" version="1.1" width="1080px" height="1080px" style="shape-rendering:geometricPrecision; text-rendering:geometricPrecision; image-rendering:optimizeQuality; fill-rule:evenodd; clip-rule:evenodd" xmlns:xlink="http://www.w3.org/1999/xlink">
<g><path style="opacity:0.882" fill="#000098" d="M 673.5,97.5 C 683.798,97.2983 689.631,102.298 691,112.5C 691.333,201.5 691.667,290.5 692,379.5C 692.333,380.167 692.667,380.833 693,381.5C 703.196,370.97 713.696,360.803 724.5,351C 732.019,345.031 739.353,345.365 746.5,352C 808.249,416.106 831.416,492.273 816,580.5C 804.848,630.655 781.348,673.822 745.5,710C 742.5,712.333 739.5,714.667 736.5,717C 730.917,720.482 725.584,720.149 720.5,716C 711.53,708.031 702.863,699.697 694.5,691C 693.551,690.383 692.718,690.549 692,691.5C 691.667,782.833 691.333,874.167 691,965.5C 689.333,976.556 683.167,981.056 672.5,979C 669.167,976.333 665.833,973.667 662.5,971C 577.5,886 492.5,801 407.5,716C 405.913,715.138 404.246,714.471 402.5,714C 323.167,713.667 243.833,713.333 164.5,713C 158.167,712.667 151.833,712.333 145.5,712C 139.508,709.341 135.675,704.841 134,698.5C 133.667,671.5 133.333,644.5 133,617.5C 132.5,615.667 131.333,614.5 129.5,614C 122.801,613.639 116.135,612.972 109.5,612C 104.123,608.957 100.623,604.457 99,598.5C 98.3333,553.167 98.3333,507.833 99,462.5C 104.627,449.096 114.793,443.596 129.5,446C 130.126,445.25 130.626,444.416 131,443.5C 131.333,420.833 131.667,398.167 132,375.5C 133.675,369.159 137.508,364.659 143.5,362C 149.833,361.667 156.167,361.333 162.5,361C 244.837,360.698 327.17,360.031 409.5,359C 497.395,271.604 585.395,184.438 673.5,97.5 Z M 692.5,419.5 C 695.056,420.543 697.223,422.21 699,424.5C 744.952,490.307 747.285,557.64 706,626.5C 702.414,632.091 698.08,637.091 693,641.5C 691.358,630.324 691.025,618.991 692,607.5C 692.333,606.5 692.667,605.5 693,604.5C 726.675,572.125 735.675,533.792 720,489.5C 714.015,475.872 705.348,464.205 694,454.5C 693.138,452.913 692.471,451.246 692,449.5C 691.301,439.478 691.468,429.478 692.5,419.5 Z"/></g>
<g><path style="opacity:0.734" fill="#000099" d="M 819.5,258.5 C 824.725,258.297 829.392,259.797 833.5,263C 936.682,371.564 968.182,498.397 928,643.5C 907.379,706.935 872.545,761.101 823.5,806C 819.5,808 815.5,808 811.5,806C 793.333,790.5 776.5,773.667 761,755.5C 757.779,749.78 758.446,744.447 763,739.5C 838.307,662.883 865.64,571.55 845,465.5C 831.6,410.675 805.266,363.341 766,323.5C 764,319.5 764,315.5 766,311.5C 782.398,292.268 800.232,274.601 819.5,258.5 Z"/></g>
</svg>
